<svg width="1092" height="656" viewBox="0 0 1092 656" fill="none" xmlns="http://www.w3.org/2000/svg">
<g clip-path="url(#clip0_201_490)">
<path d="M466 0H957L667 656H176L466 0Z" fill="#3793E0"/>
<g opacity="0.1" clip-path="url(#clip1_201_490)">
<g clip-path="url(#clip2_201_490)">
<path fill-rule="evenodd" clip-rule="evenodd" d="M747.289 200.713H795.45L807.597 212.851H854.667L870.019 228.193V340.01H867.718V229.145L853.714 215.15H806.644L794.497 203.012H748.242L736.647 214.599H629.332V212.3H735.695L747.289 200.713Z" fill="white"/>
<path fill-rule="evenodd" clip-rule="evenodd" d="M845.483 224.369H610.418V223.22H845.959L858.398 235.626V321.687H857.247V236.103L845.483 224.369Z" fill="white"/>
<path fill-rule="evenodd" clip-rule="evenodd" d="M769.42 233.198H837.97V235.497H770.373L752.957 252.901H682.191L660.259 274.818L658.632 273.193L681.239 250.602H752.004L769.42 233.198Z" fill="white"/>
<path fill-rule="evenodd" clip-rule="evenodd" d="M659.881 28.2234V0H657.58V29.1766L675.279 46.8393H719.035L733.644 61.4381H811.903V59.1391H734.597L719.988 44.5403H676.231L659.881 28.2234Z" fill="white"/>
<path fill-rule="evenodd" clip-rule="evenodd" d="M605.62 15.5496H634.968V17.8486H606.572L590.629 33.7808H459.871V31.4818H589.677L605.62 15.5496Z" fill="white"/>
<path fill-rule="evenodd" clip-rule="evenodd" d="M383.859 -1.8999H425.462L443.499 16.1244H578.581V17.2739H443.022L424.986 -0.750393H383.859V-1.8999Z" fill="white"/>
<path fill-rule="evenodd" clip-rule="evenodd" d="M888.528 197.287H979.348L995.176 213.104H1066.35V214.254H994.699L978.871 198.436H889.004L873.575 213.855L872.761 213.043L888.528 197.287Z" fill="white"/>
<path fill-rule="evenodd" clip-rule="evenodd" d="M895.951 210.024H970.223L986.756 226.545L985.129 228.171L969.27 212.323H896.903L884.61 224.608L882.983 222.982L895.951 210.024Z" fill="white"/>
<path fill-rule="evenodd" clip-rule="evenodd" d="M834 0L812.143 21.8718H783.777L770.134 35.505H681.715V34.3555H769.658L783.3 20.7223H811.666L832.5 0H834Z" fill="white"/>
<path fill-rule="evenodd" clip-rule="evenodd" d="M781.039 5.00571L760.204 25.8032H681.715V23.5042H759.251L779.413 3.37915L781.039 5.00571Z" fill="white"/>
<path fill-rule="evenodd" clip-rule="evenodd" d="M581.644 233.198H725.907V235.497H582.597L569.798 248.288L568.171 246.662L581.644 233.198Z" fill="white"/>
<path fill-rule="evenodd" clip-rule="evenodd" d="M990.46 178.297H937.816V175.998H991.414L1009.24 193.839H1036.03V196.138H1008.29L990.46 178.297Z" fill="white"/>
<path fill-rule="evenodd" clip-rule="evenodd" d="M625.661 -1L644 0.0241037V4H641.651V0.078443L624 -0.907237L625.661 -1Z" fill="white"/>
<path fill-rule="evenodd" clip-rule="evenodd" d="M431.91 61.1854L413.106 42.3943L411.479 44.0199L430.957 63.4845H489.776V61.1854H431.91Z" fill="white"/>
<path fill-rule="evenodd" clip-rule="evenodd" d="M1018.55 28.7H1066.35V30.999H1019.5L996.337 54.1501H947.227V51.8511H995.384L1018.55 28.7Z" fill="white"/>
<path fill-rule="evenodd" clip-rule="evenodd" d="M779.985 246.9H837.968V248.049H780.461L747.34 281.125L746.527 280.312L779.985 246.9Z" fill="white"/>
<path fill-rule="evenodd" clip-rule="evenodd" d="M450.796 197.954H495.412V199.103H451.272L394.816 255.521H350.223V254.372H394.34L450.796 197.954Z" fill="white"/>
<path fill-rule="evenodd" clip-rule="evenodd" d="M459.393 210.024H553.019V212.323H460.345L435.376 237.253L433.75 235.626L459.393 210.024Z" fill="white"/>
<path fill-rule="evenodd" clip-rule="evenodd" d="M882.646 356.908V247.475H884.947V356.908H882.646Z" fill="white"/>
<path fill-rule="evenodd" clip-rule="evenodd" d="M953.096 237.589H903.535V235.29H954.049L992.814 274.051H1036.03V276.35H991.861L953.096 237.589Z" fill="white"/>
<path fill-rule="evenodd" clip-rule="evenodd" d="M969.34 231.949L970.152 231.136L986.548 247.498H1047.61L1085.99 285.876L1085.17 286.688L1047.13 248.647H986.072L969.34 231.949Z" fill="white"/>
<path fill-rule="evenodd" clip-rule="evenodd" d="M456.555 30.4704C455.361 30.4704 454.392 31.4379 454.392 32.6315C454.392 33.825 455.361 34.7926 456.555 34.7926C457.749 34.7926 458.717 33.825 458.717 32.6315C458.717 31.4379 457.749 30.4704 456.555 30.4704ZM452.092 32.6315C452.092 30.1682 454.09 28.1714 456.555 28.1714C459.02 28.1714 461.018 30.1682 461.018 32.6315C461.018 35.0947 459.02 37.0916 456.555 37.0916C454.09 37.0916 452.092 35.0947 452.092 32.6315Z" fill="white"/>
<path fill-rule="evenodd" clip-rule="evenodd" d="M493.09 60.174C491.896 60.174 490.928 61.1416 490.928 62.3351C490.928 63.5286 491.896 64.4962 493.09 64.4962C494.284 64.4962 495.253 63.5286 495.253 62.3351C495.253 61.1416 494.284 60.174 493.09 60.174ZM488.627 62.3351C488.627 59.8718 490.625 57.875 493.09 57.875C495.555 57.875 497.553 59.8718 497.553 62.3351C497.553 64.7983 495.555 66.7952 493.09 66.7952C490.625 66.7952 488.627 64.7983 488.627 62.3351Z" fill="white"/>
<path fill-rule="evenodd" clip-rule="evenodd" d="M1069.66 27.6884C1068.47 27.6884 1067.5 28.656 1067.5 29.8495C1067.5 31.043 1068.47 32.0106 1069.66 32.0106C1070.85 32.0106 1071.82 31.043 1071.82 29.8495C1071.82 28.656 1070.85 27.6884 1069.66 27.6884ZM1065.2 29.8495C1065.2 27.3862 1067.2 25.3894 1069.66 25.3894C1072.13 25.3894 1074.12 27.3863 1074.12 29.8495C1074.12 32.3127 1072.13 34.3096 1069.66 34.3096C1067.2 34.3096 1065.2 32.3128 1065.2 29.8495Z" fill="white"/>
<path fill-rule="evenodd" clip-rule="evenodd" d="M880.782 223.68C879.587 223.68 878.619 224.647 878.619 225.841C878.619 227.034 879.587 228.002 880.782 228.002C881.976 228.002 882.944 227.035 882.944 225.841C882.944 224.647 881.976 223.68 880.782 223.68ZM876.318 225.841C876.318 223.378 878.317 221.381 880.782 221.381C883.247 221.381 885.245 223.378 885.245 225.841C885.245 228.304 883.247 230.301 880.782 230.301C878.317 230.301 876.318 228.304 876.318 225.841Z" fill="white"/>
<path fill-rule="evenodd" clip-rule="evenodd" d="M1039.57 272.856C1038.37 272.856 1037.4 273.823 1037.4 275.017C1037.4 276.211 1038.37 277.178 1039.57 277.178C1040.76 277.178 1041.73 276.211 1041.73 275.017C1041.73 273.823 1040.76 272.856 1039.57 272.856ZM1035.1 275.017C1035.1 272.554 1037.1 270.557 1039.57 270.557C1042.03 270.557 1044.03 272.554 1044.03 275.017C1044.03 277.48 1042.03 279.477 1039.57 279.477C1037.1 279.477 1035.1 277.48 1035.1 275.017Z" fill="white"/>
<path fill-rule="evenodd" clip-rule="evenodd" d="M868.868 341.16C867.673 341.16 866.705 342.127 866.705 343.321C866.705 344.514 867.673 345.482 868.868 345.482C870.062 345.482 871.03 344.514 871.03 343.321C871.03 342.127 870.062 341.16 868.868 341.16ZM864.404 343.321C864.404 340.858 866.403 338.861 868.868 338.861C871.333 338.861 873.331 340.858 873.331 343.321C873.331 345.784 871.333 347.781 868.868 347.781C866.403 347.781 864.404 345.784 864.404 343.321Z" fill="white"/>
<path fill-rule="evenodd" clip-rule="evenodd" d="M657.606 273.04C656.411 273.04 655.443 274.007 655.443 275.201C655.443 276.394 656.411 277.362 657.606 277.362C658.8 277.362 659.768 276.394 659.768 275.201C659.768 274.007 658.8 273.04 657.606 273.04ZM653.143 275.201C653.143 272.738 655.141 270.741 657.606 270.741C660.071 270.741 662.069 272.738 662.069 275.201C662.069 277.664 660.071 279.661 657.606 279.661C655.141 279.661 653.143 277.664 653.143 275.201Z" fill="white"/>
<path fill-rule="evenodd" clip-rule="evenodd" d="M567.031 247.544C565.837 247.544 564.869 248.511 564.869 249.705C564.869 250.898 565.837 251.866 567.031 251.866C568.226 251.866 569.194 250.898 569.194 249.705C569.194 248.511 568.226 247.544 567.031 247.544ZM562.568 249.705C562.568 247.241 564.567 245.245 567.031 245.245C569.496 245.245 571.495 247.241 571.495 249.705C571.495 252.168 569.496 254.165 567.031 254.165C564.567 254.165 562.568 252.168 562.568 249.705Z" fill="white"/>
<path fill-rule="evenodd" clip-rule="evenodd" d="M432.817 236.577C431.622 236.577 430.654 237.545 430.654 238.738C430.654 239.932 431.622 240.9 432.817 240.9C434.011 240.9 434.979 239.932 434.979 238.738C434.979 237.545 434.011 236.577 432.817 236.577ZM428.354 238.738C428.354 236.275 430.352 234.278 432.817 234.278C435.282 234.278 437.28 236.275 437.28 238.738C437.28 241.202 435.282 243.199 432.817 243.199C430.352 243.199 428.354 241.202 428.354 238.738Z" fill="white"/>
<path fill-rule="evenodd" clip-rule="evenodd" d="M626.016 211.518C624.822 211.518 623.853 212.486 623.853 213.679C623.853 214.873 624.822 215.84 626.016 215.84C627.21 215.84 628.178 214.873 628.178 213.679C628.178 212.486 627.21 211.518 626.016 211.518ZM621.553 213.679C621.553 211.216 623.551 209.219 626.016 209.219C628.481 209.219 630.479 211.216 630.479 213.679C630.479 216.142 628.481 218.139 626.016 218.139C623.551 218.139 621.553 216.142 621.553 213.679Z" fill="white"/>
<path fill-rule="evenodd" clip-rule="evenodd" d="M883.797 241.98C882.603 241.98 881.635 242.947 881.635 244.141C881.635 245.335 882.603 246.302 883.797 246.302C884.992 246.302 885.96 245.335 885.96 244.141C885.96 242.947 884.992 241.98 883.797 241.98ZM879.334 244.141C879.334 241.678 881.332 239.681 883.797 239.681C886.262 239.681 888.26 241.678 888.26 244.141C888.26 246.604 886.262 248.601 883.797 248.601C881.332 248.601 879.334 246.604 879.334 244.141Z" fill="white"/>
<path fill-rule="evenodd" clip-rule="evenodd" d="M1039.34 192.827C1038.15 192.827 1037.18 193.794 1037.18 194.988C1037.18 196.181 1038.15 197.149 1039.34 197.149C1040.53 197.149 1041.5 196.181 1041.5 194.988C1041.5 193.794 1040.53 192.827 1039.34 192.827ZM1034.88 194.988C1034.88 192.525 1036.88 190.528 1039.34 190.528C1041.81 190.528 1043.8 192.525 1043.8 194.988C1043.8 197.451 1041.81 199.448 1039.34 199.448C1036.88 199.448 1034.88 197.451 1034.88 194.988Z" fill="white"/>
<path fill-rule="evenodd" clip-rule="evenodd" d="M642.719 5.52607C641.525 5.52607 640.557 6.49361 640.557 7.68714C640.557 8.88067 641.525 9.84822 642.719 9.84822C643.914 9.84822 644.882 8.88068 644.882 7.68714C644.882 6.4936 643.914 5.52607 642.719 5.52607ZM638.256 7.68714C638.256 5.22389 640.254 3.22705 642.719 3.22705C645.184 3.22705 647.182 5.2239 647.182 7.68714C647.182 10.1504 645.184 12.1472 642.719 12.1472C640.254 12.1472 638.256 10.1504 638.256 7.68714Z" fill="white"/>
<path fill-rule="evenodd" clip-rule="evenodd" d="M815.219 58.1274C814.025 58.1274 813.057 59.095 813.057 60.2885C813.057 61.482 814.025 62.4495 815.219 62.4495C816.413 62.4495 817.382 61.482 817.382 60.2885C817.382 59.0949 816.413 58.1274 815.219 58.1274ZM810.756 60.2885C810.756 57.8252 812.754 55.8284 815.219 55.8284C817.684 55.8284 819.682 57.8252 819.682 60.2885C819.682 62.7517 817.684 64.7486 815.219 64.7486C812.754 64.7486 810.756 62.7517 810.756 60.2885Z" fill="white"/>
<path fill-rule="evenodd" clip-rule="evenodd" d="M679.067 22.4924C677.872 22.4924 676.904 23.4599 676.904 24.6535C676.904 25.847 677.872 26.8145 679.067 26.8145C680.261 26.8145 681.229 25.847 681.229 24.6535C681.229 23.4599 680.261 22.4924 679.067 22.4924ZM674.604 24.6535C674.604 22.1902 676.602 20.1934 679.067 20.1934C681.532 20.1934 683.53 22.1902 683.53 24.6535C683.53 27.1167 681.532 29.1135 679.067 29.1135C676.602 29.1135 674.604 27.1167 674.604 24.6535Z" fill="white"/>
<path d="M798.664 38.7135C800.753 37.8486 801.745 35.4547 800.88 33.3667C800.014 31.2786 797.619 30.2871 795.529 31.152C793.44 32.0169 792.448 34.4107 793.313 36.4988C794.179 38.5868 796.574 39.5784 798.664 38.7135Z" fill="white"/>
<path d="M781.777 7.95908C783.866 7.09418 784.859 4.70034 783.993 2.61229C783.128 0.524236 780.732 -0.467317 778.643 0.397582C776.553 1.26248 775.561 3.65632 776.426 5.74437C777.292 7.83242 779.687 8.82398 781.777 7.95908Z" fill="white"/>
<path d="M413.738 47.0994C415.832 46.2455 416.836 43.8569 415.982 41.7643C415.127 39.6718 412.737 38.6677 410.643 39.5216C408.549 40.3756 407.544 42.7642 408.399 44.8568C409.253 46.9493 411.644 47.9534 413.738 47.0994Z" fill="white"/>
<path d="M948.796 56.7789C950.886 55.914 951.878 53.5202 951.013 51.4321C950.147 49.3441 947.752 48.3525 945.662 49.2174C943.573 50.0823 942.581 52.4761 943.446 54.5642C944.311 56.6522 946.707 57.6438 948.796 56.7789Z" fill="white"/>
<path d="M939.378 180.937C941.468 180.072 942.46 177.678 941.595 175.59C940.729 173.502 938.334 172.51 936.244 173.375C934.155 174.24 933.163 176.634 934.028 178.722C934.894 180.81 937.289 181.802 939.378 180.937Z" fill="white"/>
<path d="M905.109 240.225C907.198 239.361 908.191 236.967 907.325 234.879C906.46 232.791 904.064 231.799 901.975 232.664C899.885 233.529 898.893 235.923 899.759 238.011C900.624 240.099 903.019 241.09 905.109 240.225Z" fill="white"/>
<path d="M885.679 360.697C887.769 359.832 888.761 357.438 887.895 355.35C887.03 353.262 884.635 352.27 882.545 353.135C880.456 354 879.463 356.394 880.329 358.482C881.194 360.57 883.59 361.562 885.679 360.697Z" fill="white"/>
<path d="M839.546 238.124C841.636 237.259 842.628 234.865 841.763 232.777C840.897 230.689 838.502 229.697 836.412 230.562C834.323 231.427 833.331 233.821 834.196 235.909C835.061 237.997 837.457 238.989 839.546 238.124Z" fill="white"/>
<path d="M727.48 238.125C729.57 237.26 730.562 234.866 729.696 232.778C728.831 230.69 726.435 229.698 724.346 230.563C722.256 231.428 721.264 233.822 722.13 235.91C722.995 237.998 725.391 238.99 727.48 238.125Z" fill="white"/>
<path d="M554.597 214.964C556.687 214.099 557.679 211.705 556.813 209.617C555.948 207.529 553.552 206.538 551.463 207.403C549.374 208.268 548.381 210.661 549.247 212.749C550.112 214.838 552.508 215.829 554.597 214.964Z" fill="white"/>
<path d="M987.398 231.447C989.487 230.582 990.48 228.188 989.614 226.1C988.749 224.012 986.353 223.02 984.264 223.885C982.174 224.75 981.182 227.144 982.048 229.232C982.913 231.32 985.309 232.312 987.398 231.447Z" fill="white"/>
<path d="M635.468 20.4764C637.558 19.6115 638.55 17.2177 637.685 15.1296C636.819 13.0416 634.424 12.05 632.334 12.9149C630.245 13.7798 629.252 16.1737 630.118 18.2617C630.983 20.3498 633.379 21.3413 635.468 20.4764Z" fill="white"/>
<path fill-rule="evenodd" clip-rule="evenodd" d="M581.918 13.9632C580.406 13.9632 579.181 15.1881 579.181 16.6991C579.181 18.21 580.406 19.4349 581.918 19.4349C583.43 19.4349 584.656 18.21 584.656 16.6991C584.656 15.1881 583.43 13.9632 581.918 13.9632ZM578.03 16.6991C578.03 14.5532 579.771 12.8137 581.918 12.8137C584.066 12.8137 585.806 14.5532 585.806 16.6991C585.806 18.8449 584.066 20.5844 581.918 20.5844C579.771 20.5844 578.03 18.8449 578.03 16.6991Z" fill="white"/>
<path fill-rule="evenodd" clip-rule="evenodd" d="M962.36 38.7008C960.848 38.7008 959.622 39.9257 959.622 41.4366C959.622 42.9476 960.848 44.1724 962.36 44.1724C963.872 44.1724 965.097 42.9476 965.097 41.4366C965.097 39.9257 963.872 38.7008 962.36 38.7008ZM958.472 41.4366C958.472 39.2908 960.212 37.5513 962.36 37.5513C964.507 37.5513 966.248 39.2908 966.248 41.4366C966.248 43.5824 964.507 45.3219 962.36 45.3219C960.212 45.3219 958.472 43.5824 958.472 41.4366Z" fill="white"/>
<path fill-rule="evenodd" clip-rule="evenodd" d="M988.91 37.9649C987.398 37.9649 986.173 39.1898 986.173 40.7008C986.173 42.2117 987.398 43.4366 988.91 43.4366C990.422 43.4366 991.648 42.2117 991.648 40.7008C991.648 39.1898 990.422 37.9649 988.91 37.9649ZM985.022 40.7008C985.022 38.555 986.763 36.8154 988.91 36.8154C991.058 36.8154 992.798 38.555 992.798 40.7008C992.798 42.8466 991.058 44.5861 988.91 44.5861C986.763 44.5861 985.022 42.8466 985.022 40.7008Z" fill="white"/>
<path fill-rule="evenodd" clip-rule="evenodd" d="M1088.11 285.707C1086.6 285.707 1085.37 286.932 1085.37 288.443C1085.37 289.954 1086.6 291.179 1088.11 291.179C1089.62 291.179 1090.85 289.954 1090.85 288.443C1090.85 286.932 1089.62 285.707 1088.11 285.707ZM1084.22 288.443C1084.22 286.297 1085.96 284.558 1088.11 284.558C1090.26 284.558 1092 286.297 1092 288.443C1092 290.589 1090.26 292.328 1088.11 292.328C1085.96 292.328 1084.22 290.589 1084.22 288.443Z" fill="white"/>
<path fill-rule="evenodd" clip-rule="evenodd" d="M841.285 244.739C839.773 244.739 838.548 245.964 838.548 247.475C838.548 248.986 839.773 250.211 841.285 250.211C842.797 250.211 844.023 248.986 844.023 247.475C844.023 245.964 842.797 244.739 841.285 244.739ZM837.397 247.475C837.397 245.329 839.138 243.589 841.285 243.589C843.433 243.589 845.173 245.329 845.173 247.475C845.173 249.621 843.433 251.36 841.285 251.36C839.138 251.36 837.397 249.621 837.397 247.475Z" fill="white"/>
<path fill-rule="evenodd" clip-rule="evenodd" d="M346.887 252.211C345.375 252.211 344.149 253.436 344.149 254.947C344.149 256.458 345.375 257.682 346.887 257.682C348.399 257.682 349.625 256.458 349.625 254.947C349.625 253.436 348.399 252.211 346.887 252.211ZM342.999 254.947C342.999 252.801 344.74 251.061 346.887 251.061C349.034 251.061 350.775 252.801 350.775 254.947C350.775 257.092 349.034 258.832 346.887 258.832C344.74 258.832 342.999 257.092 342.999 254.947Z" fill="white"/>
<path d="M681.715 38.2408C683.545 38.2408 685.028 36.7586 685.028 34.9302C685.028 33.1018 683.545 31.6196 681.715 31.6196C679.886 31.6196 678.402 33.1018 678.402 34.9302C678.402 36.7586 679.886 38.2408 681.715 38.2408Z" fill="white"/>
<path d="M383.86 1.98567C385.689 1.98567 387.173 0.503474 387.173 -1.32491C387.173 -3.1533 385.689 -4.6355 383.86 -4.6355C382.03 -4.6355 380.547 -3.1533 380.547 -1.32491C380.547 0.503474 382.03 1.98567 383.86 1.98567Z" fill="white"/>
<path d="M873.168 216.99C874.998 216.99 876.481 215.508 876.481 213.679C876.481 211.851 874.998 210.369 873.168 210.369C871.339 210.369 869.855 211.851 869.855 213.679C869.855 215.508 871.339 216.99 873.168 216.99Z" fill="white"/>
<path d="M969.746 234.853C971.576 234.853 973.059 233.371 973.059 231.542C973.059 229.714 971.576 228.232 969.746 228.232C967.917 228.232 966.434 229.714 966.434 231.542C966.434 233.371 967.917 234.853 969.746 234.853Z" fill="white"/>
<path d="M857.824 324.997C859.654 324.997 861.137 323.515 861.137 321.687C861.137 319.858 859.654 318.376 857.824 318.376C855.995 318.376 854.512 319.858 854.512 321.687C854.512 323.515 855.995 324.997 857.824 324.997Z" fill="white"/>
<path d="M746.934 284.029C748.764 284.029 750.247 282.547 750.247 280.718C750.247 278.89 748.764 277.408 746.934 277.408C745.104 277.408 743.621 278.89 743.621 280.718C743.621 282.547 745.104 284.029 746.934 284.029Z" fill="white"/>
<path d="M610.418 227.106C612.248 227.106 613.731 225.623 613.731 223.795C613.731 221.967 612.248 220.484 610.418 220.484C608.589 220.484 607.105 221.967 607.105 223.795C607.105 225.623 608.589 227.106 610.418 227.106Z" fill="white"/>
<path d="M495.414 201.839C497.244 201.839 498.727 200.357 498.727 198.528C498.727 196.7 497.244 195.218 495.414 195.218C493.585 195.218 492.102 196.7 492.102 198.528C492.102 200.357 493.585 201.839 495.414 201.839Z" fill="white"/>
<path d="M1066.35 216.99C1068.18 216.99 1069.66 215.508 1069.66 213.679C1069.66 211.851 1068.18 210.369 1066.35 210.369C1064.52 210.369 1063.04 211.851 1063.04 213.679C1063.04 215.508 1064.52 216.99 1066.35 216.99Z" fill="white"/>
<path fill-rule="evenodd" clip-rule="evenodd" d="M611.689 124.776H475.902V122.477H612.642L631.415 141.237H943.932V143.536H630.462L611.689 124.776Z" fill="white"/>
<path fill-rule="evenodd" clip-rule="evenodd" d="M877.662 62.6186L850.432 89.8308H695.511L663.731 121.588L662.105 119.963L694.558 87.5318H849.479L876.036 60.9929L877.662 62.6186Z" fill="white"/>
<path fill-rule="evenodd" clip-rule="evenodd" d="M694.376 182.711L715.711 161.391L717.338 163.017L695.329 185.01H414.359L390.356 208.997L388.729 207.371L413.407 182.711H694.376Z" fill="white"/>
<path fill-rule="evenodd" clip-rule="evenodd" d="M1074.43 93.288L1047.78 119.902H802.012V117.603H1046.82L1072.81 91.6616L1074.43 93.288Z" fill="white"/>
<path fill-rule="evenodd" clip-rule="evenodd" d="M365.938 169.768H681.715V170.917H365.938V169.768Z" fill="white"/>
<path fill-rule="evenodd" clip-rule="evenodd" d="M694.875 114.729H736.662L752.444 130.501H1023.81V131.65H751.967L736.185 115.879H694.875V114.729Z" fill="white"/>
<path fill-rule="evenodd" clip-rule="evenodd" d="M996.309 156.824H742.816V155.675H996.786L1018.72 177.592L1017.9 178.405L996.309 156.824Z" fill="white"/>
<path fill-rule="evenodd" clip-rule="evenodd" d="M407.063 138.202H602.782V139.352H407.539L394.203 152.656L393.391 151.843L407.063 138.202Z" fill="white"/>
<path fill-rule="evenodd" clip-rule="evenodd" d="M614.162 39.0613L600.49 52.7016H524.77V51.5521H600.014L613.35 38.2478L614.162 39.0613Z" fill="white"/>
<path fill-rule="evenodd" clip-rule="evenodd" d="M868.538 168.266L854.888 181.907H779.145V180.757H854.411L867.724 167.453L868.538 168.266Z" fill="white"/>
<path fill-rule="evenodd" clip-rule="evenodd" d="M384.025 109.419L360.774 86.1833L359.96 86.9962L383.549 110.569H598.063V109.419H384.025Z" fill="white"/>
<path fill-rule="evenodd" clip-rule="evenodd" d="M647.744 67.7687L620.168 95.3024H402.586V93.0034H619.216L646.118 66.1423L647.744 67.7687Z" fill="white"/>
<path fill-rule="evenodd" clip-rule="evenodd" d="M921.267 85.1868H1036.03V86.3363H921.743L906.583 101.487H716.523V100.337H906.106L921.267 85.1868Z" fill="white"/>
<path fill-rule="evenodd" clip-rule="evenodd" d="M878.038 176.573H914.786V177.723H878.514L862.41 193.816H829.273V192.666H861.934L878.038 176.573Z" fill="white"/>
<path fill-rule="evenodd" clip-rule="evenodd" d="M515.257 63.0471H552.028V64.1966H515.733L499.629 80.2898H466.516V79.1402H499.153L515.257 63.0471Z" fill="white"/>
<path fill-rule="evenodd" clip-rule="evenodd" d="M915.084 45.3911V66.8949L893.421 88.5667H876.273V87.4172H892.944L913.934 66.4191V45.3911H915.084Z" fill="white"/>
<path fill-rule="evenodd" clip-rule="evenodd" d="M677.725 57.8286H694.872V58.9781H678.201L657.212 79.9533V101.004H656.062V79.4772L677.725 57.8286Z" fill="white"/>
<path fill-rule="evenodd" clip-rule="evenodd" d="M586.793 155.882H431.734V153.583H586.793V155.882Z" fill="white"/>
<path fill-rule="evenodd" clip-rule="evenodd" d="M716.524 199.103H561.441V197.954H716.524V199.103Z" fill="white"/>
<path fill-rule="evenodd" clip-rule="evenodd" d="M1028.26 53.8134L1009.24 72.8181H930.773V70.5191H1008.29L1026.63 52.1877L1028.26 53.8134Z" fill="white"/>
<path fill-rule="evenodd" clip-rule="evenodd" d="M1023.81 104.752H930.773V102.453H1023.81V104.752Z" fill="white"/>
<path fill-rule="evenodd" clip-rule="evenodd" d="M690.239 72.6802H829.272V73.8297H690.716L676.161 88.3977L675.347 87.5856L690.239 72.6802Z" fill="white"/>
<path fill-rule="evenodd" clip-rule="evenodd" d="M355.979 83.3355C355.629 84.8053 356.537 86.2807 358.008 86.6308C359.479 86.981 360.955 86.0733 361.306 84.6035C361.656 83.1337 360.748 81.6583 359.277 81.3081C357.806 80.958 356.33 81.8656 355.979 83.3355ZM357.742 87.7491C355.653 87.2518 354.363 85.1565 354.861 83.0691C355.358 80.9817 357.455 79.6926 359.544 80.1899C361.632 80.6872 362.922 82.7825 362.425 84.8699C361.927 86.9573 359.83 88.2463 357.742 87.7491Z" fill="white"/>
<path fill-rule="evenodd" clip-rule="evenodd" d="M683.98 167.811C682.583 168.389 681.92 169.989 682.498 171.385C683.077 172.781 684.678 173.444 686.075 172.866C687.472 172.287 688.136 170.687 687.557 169.291C686.978 167.895 685.377 167.232 683.98 167.811ZM681.436 171.825C680.614 169.842 681.556 167.57 683.54 166.749C685.524 165.927 687.798 166.869 688.62 168.851C689.441 170.834 688.499 173.107 686.515 173.928C684.532 174.749 682.257 173.807 681.436 171.825Z" fill="white"/>
<path fill-rule="evenodd" clip-rule="evenodd" d="M739.481 153.514C737.969 153.514 736.743 154.739 736.743 156.25C736.743 157.761 737.969 158.985 739.481 158.985C740.993 158.985 742.218 157.761 742.218 156.25C742.218 154.739 740.993 153.514 739.481 153.514ZM735.593 156.25C735.593 154.104 737.333 152.364 739.481 152.364C741.628 152.364 743.369 154.104 743.369 156.25C743.369 158.395 741.628 160.135 739.481 160.135C737.333 160.135 735.593 158.395 735.593 156.25Z" fill="white"/>
<path fill-rule="evenodd" clip-rule="evenodd" d="M869.836 162.871C868.324 162.871 867.099 164.096 867.099 165.607C867.099 167.118 868.324 168.342 869.836 168.342C871.348 168.342 872.574 167.118 872.574 165.607C872.574 164.096 871.348 162.871 869.836 162.871ZM865.948 165.607C865.948 163.461 867.689 161.721 869.836 161.721C871.983 161.721 873.724 163.461 873.724 165.607C873.724 167.752 871.983 169.492 869.836 169.492C867.689 169.492 865.948 167.752 865.948 165.607Z" fill="white"/>
<path fill-rule="evenodd" clip-rule="evenodd" d="M825.961 190.505C824.449 190.505 823.224 191.73 823.224 193.241C823.224 194.752 824.449 195.977 825.961 195.977C827.473 195.977 828.699 194.752 828.699 193.241C828.699 191.73 827.473 190.505 825.961 190.505ZM822.073 193.241C822.073 191.095 823.814 189.355 825.961 189.355C828.109 189.355 829.849 191.095 829.849 193.241C829.849 195.387 828.109 197.126 825.961 197.126C823.814 197.126 822.073 195.387 822.073 193.241Z" fill="white"/>
<path fill-rule="evenodd" clip-rule="evenodd" d="M719.836 195.793C718.324 195.793 717.099 197.017 717.099 198.528C717.099 200.039 718.324 201.264 719.836 201.264C721.348 201.264 722.574 200.039 722.574 198.528C722.574 197.017 721.348 195.793 719.836 195.793ZM715.948 198.528C715.948 196.383 717.689 194.643 719.836 194.643C721.983 194.643 723.724 196.383 723.724 198.528C723.724 200.674 721.984 202.414 719.836 202.414C717.689 202.414 715.948 200.674 715.948 198.528Z" fill="white"/>
<path fill-rule="evenodd" clip-rule="evenodd" d="M463.184 76.9793C461.672 76.9793 460.446 78.2042 460.446 79.7152C460.446 81.2261 461.672 82.451 463.184 82.451C464.696 82.451 465.922 81.2261 465.922 79.7152C465.922 78.2042 464.696 76.9793 463.184 76.9793ZM459.296 79.7152C459.296 77.5694 461.037 75.8298 463.184 75.8298C465.331 75.8298 467.072 77.5694 467.072 79.7152C467.072 81.861 465.331 83.6005 463.184 83.6005C461.037 83.6005 459.296 81.861 459.296 79.7152Z" fill="white"/>
<path fill-rule="evenodd" clip-rule="evenodd" d="M555.344 60.8863C553.832 60.8863 552.606 62.1112 552.606 63.6222C552.606 65.1331 553.832 66.358 555.344 66.358C556.856 66.358 558.082 65.1331 558.082 63.6222C558.082 62.1112 556.856 60.8863 555.344 60.8863ZM551.456 63.6222C551.456 61.4763 553.197 59.7368 555.344 59.7368C557.491 59.7368 559.232 61.4763 559.232 63.6222C559.232 65.768 557.491 67.5075 555.344 67.5075C553.197 67.5075 551.456 65.768 551.456 63.6222Z" fill="white"/>
<path fill-rule="evenodd" clip-rule="evenodd" d="M696.253 56.4703C695.184 57.5387 695.184 59.2709 696.253 60.3393C697.322 61.4077 699.056 61.4077 700.125 60.3393C701.194 59.2709 701.194 57.5387 700.125 56.4703C699.056 55.4018 697.322 55.4018 696.253 56.4703ZM695.44 61.1521C693.921 59.6348 693.921 57.1748 695.44 55.6574C696.958 54.1401 699.42 54.1401 700.938 55.6574C702.457 57.1748 702.457 59.6348 700.938 61.1521C699.42 62.6694 696.958 62.6695 695.44 61.1521Z" fill="white"/>
<path fill-rule="evenodd" clip-rule="evenodd" d="M872.18 85.256C870.668 85.256 869.442 86.4808 869.442 87.9918C869.442 89.5028 870.668 90.7276 872.18 90.7276C873.692 90.7276 874.918 89.5027 874.918 87.9918C874.918 86.4808 873.692 85.256 872.18 85.256ZM868.292 87.9918C868.292 85.846 870.033 84.1064 872.18 84.1064C874.327 84.1064 876.068 85.846 876.068 87.9918C876.068 90.1376 874.327 91.8771 872.18 91.8771C870.033 91.8771 868.292 90.1376 868.292 87.9918Z" fill="white"/>
<path fill-rule="evenodd" clip-rule="evenodd" d="M1039.34 83.0257C1037.83 83.0257 1036.6 84.2506 1036.6 85.7616C1036.6 87.2725 1037.83 88.4974 1039.34 88.4974C1040.85 88.4974 1042.08 87.2725 1042.08 85.7616C1042.08 84.2506 1040.85 83.0257 1039.34 83.0257ZM1035.45 85.7616C1035.45 83.6157 1037.19 81.8762 1039.34 81.8762C1041.49 81.8762 1043.23 83.6158 1043.23 85.7616C1043.23 87.9074 1041.49 89.6469 1039.34 89.6469C1037.19 89.6469 1035.45 87.9074 1035.45 85.7616Z" fill="white"/>
<path fill-rule="evenodd" clip-rule="evenodd" d="M829.746 72.7274C829.504 74.2189 830.518 75.6238 832.011 75.8654C833.503 76.107 834.909 75.0937 835.151 73.6022C835.393 72.1106 834.379 70.7057 832.886 70.4641C831.394 70.2225 829.988 71.2358 829.746 72.7274ZM831.827 77.0001C829.707 76.657 828.267 74.6618 828.61 72.5436C828.954 70.4254 830.95 68.9863 833.07 69.3294C835.19 69.6724 836.63 71.6677 836.286 73.786C835.943 75.9042 833.946 77.3432 831.827 77.0001Z" fill="white"/>
<path fill-rule="evenodd" clip-rule="evenodd" d="M1024.53 130.526C1024.29 132.018 1025.3 133.423 1026.79 133.664C1028.28 133.906 1029.69 132.892 1029.93 131.401C1030.17 129.909 1029.16 128.504 1027.67 128.263C1026.17 128.021 1024.77 129.035 1024.53 130.526ZM1026.61 134.799C1024.49 134.456 1023.05 132.461 1023.39 130.342C1023.73 128.224 1025.73 126.785 1027.85 127.128C1029.97 127.471 1031.41 129.467 1031.07 131.585C1030.72 133.703 1028.73 135.142 1026.61 134.799Z" fill="white"/>
<path fill-rule="evenodd" clip-rule="evenodd" d="M713.231 98.1764C711.719 98.1764 710.493 99.4012 710.493 100.912C710.493 102.423 711.719 103.648 713.231 103.648C714.743 103.648 715.968 102.423 715.968 100.912C715.968 99.4012 714.743 98.1764 713.231 98.1764ZM709.343 100.912C709.343 98.7664 711.083 97.0269 713.231 97.0269C715.378 97.0269 717.119 98.7664 717.119 100.912C717.119 103.058 715.378 104.798 713.231 104.798C711.083 104.798 709.343 103.058 709.343 100.912Z" fill="white"/>
<path d="M367.172 173.418C368.86 172.713 369.656 170.773 368.949 169.087C368.243 167.4 366.303 166.604 364.615 167.31C362.927 168.016 362.131 169.955 362.837 171.642C363.543 173.329 365.484 174.124 367.172 173.418Z" fill="white"/>
<path d="M393.797 155.56C395.627 155.56 397.11 154.078 397.11 152.25C397.11 150.421 395.627 148.939 393.797 148.939C391.968 148.939 390.484 150.421 390.484 152.25C390.484 154.078 391.968 155.56 393.797 155.56Z" fill="white"/>
<path d="M527.047 52.5992C527.339 50.7943 526.112 49.0942 524.306 48.8019C522.5 48.5096 520.799 49.7357 520.506 51.5406C520.214 53.3455 521.441 55.0456 523.247 55.3379C525.053 55.6302 526.754 54.4041 527.047 52.5992Z" fill="white"/>
<path d="M613.754 41.5745C615.584 41.5745 617.067 40.0923 617.067 38.2639C617.067 36.4356 615.584 34.9534 613.754 34.9534C611.925 34.9534 610.441 36.4356 610.441 38.2639C610.441 40.0923 611.925 41.5745 613.754 41.5745Z" fill="white"/>
<path d="M598.067 113.304C599.896 113.304 601.38 111.821 601.38 109.993C601.38 108.165 599.896 106.682 598.067 106.682C596.237 106.682 594.754 108.165 594.754 109.993C594.754 111.821 596.237 113.304 598.067 113.304Z" fill="white"/>
<path d="M602.782 141.076C604.611 141.076 606.094 139.594 606.094 137.765C606.094 135.937 604.611 134.455 602.782 134.455C600.952 134.455 599.469 135.937 599.469 137.765C599.469 139.594 600.952 141.076 602.782 141.076Z" fill="white"/>
<path d="M561.442 201.839C563.271 201.839 564.755 200.357 564.755 198.528C564.755 196.7 563.271 195.218 561.442 195.218C559.612 195.218 558.129 196.7 558.129 198.528C558.129 200.357 559.612 201.839 561.442 201.839Z" fill="white"/>
<path d="M656.637 104.315C658.467 104.315 659.95 102.832 659.95 101.004C659.95 99.1756 658.467 97.6934 656.637 97.6934C654.807 97.6934 653.324 99.1756 653.324 101.004C653.324 102.832 654.807 104.315 656.637 104.315Z" fill="white"/>
<path d="M914.785 48.7015C916.615 48.7015 918.098 47.2193 918.098 45.3909C918.098 43.5625 916.615 42.0803 914.785 42.0803C912.956 42.0803 911.473 43.5625 911.473 45.3909C911.473 47.2193 912.956 48.7015 914.785 48.7015Z" fill="white"/>
<path d="M1019.59 181.112C1021.28 180.412 1022.09 178.475 1021.39 176.786C1020.69 175.097 1018.75 174.295 1017.06 174.994C1015.37 175.694 1014.56 177.631 1015.26 179.32C1015.96 181.009 1017.9 181.811 1019.59 181.112Z" fill="white"/>
<path d="M696.147 118.368C697.837 117.669 698.64 115.732 697.94 114.043C697.24 112.354 695.302 111.551 693.611 112.251C691.921 112.951 691.118 114.887 691.819 116.577C692.519 118.266 694.457 119.068 696.147 118.368Z" fill="white"/>
<path d="M779.145 184.665C780.975 184.665 782.458 183.183 782.458 181.355C782.458 179.526 780.975 178.044 779.145 178.044C777.315 178.044 775.832 179.526 775.832 181.355C775.832 183.183 777.315 184.665 779.145 184.665Z" fill="white"/>
<path d="M914.785 180.458C916.615 180.458 918.098 178.976 918.098 177.147C918.098 175.319 916.615 173.837 914.785 173.837C912.956 173.837 911.473 175.319 911.473 177.147C911.473 178.976 912.956 180.458 914.785 180.458Z" fill="white"/>
<path d="M675.754 91.3026C677.584 91.3026 679.067 89.8204 679.067 87.992C679.067 86.1636 677.584 84.6814 675.754 84.6814C673.925 84.6814 672.441 86.1636 672.441 87.992C672.441 89.8204 673.925 91.3026 675.754 91.3026Z" fill="white"/>
<path fill-rule="evenodd" clip-rule="evenodd" d="M428.121 152.571C426.927 152.571 425.959 153.539 425.959 154.732C425.959 155.926 426.927 156.893 428.121 156.893C429.316 156.893 430.284 155.926 430.284 154.732C430.284 153.539 429.316 152.571 428.121 152.571ZM423.658 154.732C423.658 152.269 425.656 150.272 428.121 150.272C430.586 150.272 432.584 152.269 432.584 154.732C432.584 157.195 430.586 159.192 428.121 159.192C425.656 159.192 423.658 157.195 423.658 154.732Z" fill="white"/>
<path fill-rule="evenodd" clip-rule="evenodd" d="M661.469 121.029C660.275 121.029 659.307 121.996 659.307 123.19C659.307 124.383 660.275 125.351 661.469 125.351C662.663 125.351 663.632 124.383 663.632 123.19C663.632 121.996 662.663 121.029 661.469 121.029ZM657.006 123.19C657.006 120.726 659.004 118.729 661.469 118.729C663.934 118.729 665.932 120.726 665.932 123.19C665.932 125.653 663.934 127.65 661.469 127.65C659.004 127.65 657.006 125.653 657.006 123.19Z" fill="white"/>
<path fill-rule="evenodd" clip-rule="evenodd" d="M1027.45 101.441C1026.25 101.441 1025.28 102.408 1025.28 103.602C1025.28 104.795 1026.25 105.763 1027.45 105.763C1028.64 105.763 1029.61 104.795 1029.61 103.602C1029.61 102.408 1028.64 101.441 1027.45 101.441ZM1022.98 103.602C1022.98 101.139 1024.98 99.1418 1027.45 99.1418C1029.91 99.1418 1031.91 101.139 1031.91 103.602C1031.91 106.065 1029.91 108.062 1027.45 108.062C1024.98 108.062 1022.98 106.065 1022.98 103.602Z" fill="white"/>
<path fill-rule="evenodd" clip-rule="evenodd" d="M926.68 101.441C925.486 101.441 924.517 102.408 924.517 103.602C924.517 104.795 925.486 105.763 926.68 105.763C927.874 105.763 928.843 104.795 928.843 103.602C928.843 102.408 927.874 101.441 926.68 101.441ZM922.217 103.602C922.217 101.139 924.215 99.1418 926.68 99.1418C929.145 99.1418 931.143 101.139 931.143 103.602C931.143 106.065 929.145 108.062 926.68 108.062C924.215 108.062 922.217 106.065 922.217 103.602Z" fill="white"/>
<path fill-rule="evenodd" clip-rule="evenodd" d="M589.141 152.571C587.947 152.571 586.978 153.539 586.978 154.732C586.978 155.926 587.947 156.893 589.141 156.893C590.335 156.893 591.303 155.926 591.303 154.732C591.303 153.539 590.335 152.571 589.141 152.571ZM584.678 154.732C584.678 152.269 586.676 150.272 589.141 150.272C591.606 150.272 593.604 152.269 593.604 154.732C593.604 157.195 591.606 159.192 589.141 159.192C586.676 159.192 584.678 157.195 584.678 154.732Z" fill="white"/>
<path fill-rule="evenodd" clip-rule="evenodd" d="M387.172 207.977C385.978 207.977 385.01 208.945 385.01 210.139C385.01 211.332 385.978 212.3 387.172 212.3C388.366 212.3 389.335 211.332 389.335 210.139C389.335 208.945 388.366 207.977 387.172 207.977ZM382.709 210.139C382.709 207.675 384.707 205.678 387.172 205.678C389.637 205.678 391.635 207.675 391.635 210.139C391.635 212.602 389.637 214.599 387.172 214.599C384.707 214.599 382.709 212.602 382.709 210.139Z" fill="white"/>
<path d="M472.591 127.719C474.853 127.719 476.686 125.887 476.686 123.626C476.686 121.366 474.853 119.534 472.591 119.534C470.329 119.534 468.496 121.366 468.496 123.626C468.496 125.887 470.329 127.719 472.591 127.719Z" fill="white"/>
<path d="M649.843 69.8385C651.442 68.2404 651.442 65.6493 649.843 64.0512C648.244 62.4531 645.651 62.4531 644.052 64.0512C642.453 65.6493 642.453 68.2404 644.052 69.8385C645.651 71.4366 648.244 71.4366 649.843 69.8385Z" fill="white"/>
<path d="M805.915 119.187C806.277 116.956 804.76 114.854 802.528 114.493C800.295 114.131 798.192 115.647 797.83 117.878C797.469 120.109 798.986 122.211 801.218 122.572C803.451 122.933 805.554 121.418 805.915 119.187Z" fill="white"/>
<path d="M933.671 74.5443C935.27 72.9462 935.27 70.3551 933.671 68.757C932.072 67.1589 929.479 67.1589 927.88 68.757C926.281 70.3551 926.281 72.9462 927.88 74.5443C929.479 76.1424 932.072 76.1425 933.671 74.5443Z" fill="white"/>
<path d="M1031.61 54.0346C1032.13 51.8351 1030.77 49.6307 1028.56 49.1107C1026.36 48.5908 1024.16 49.9523 1023.64 52.1518C1023.12 54.3512 1024.48 56.5558 1026.68 57.0757C1028.88 57.5956 1031.09 56.2341 1031.61 54.0346Z" fill="white"/>
<path d="M1074.74 96.6698C1076.83 95.8049 1077.82 93.411 1076.95 91.323C1076.09 89.2349 1073.69 88.2434 1071.6 89.1083C1069.51 89.9732 1068.52 92.367 1069.39 94.4551C1070.25 96.5431 1072.65 97.5347 1074.74 96.6698Z" fill="white"/>
<path d="M948.088 143.422C948.609 141.223 947.246 139.018 945.045 138.498C942.844 137.978 940.638 139.34 940.118 141.539C939.598 143.739 940.96 145.943 943.161 146.463C945.362 146.983 947.568 145.622 948.088 143.422Z" fill="white"/>
<path d="M876.275 66.4272C878.536 66.4272 880.37 64.595 880.37 62.3349C880.37 60.0748 878.536 58.2427 876.275 58.2427C874.013 58.2427 872.18 60.0748 872.18 62.3349C872.18 64.595 874.013 66.4272 876.275 66.4272Z" fill="white"/>
<path d="M716.525 166.296C718.786 166.296 720.62 164.464 720.62 162.204C720.62 159.944 718.786 158.112 716.525 158.112C714.263 158.112 712.43 159.944 712.43 162.204C712.43 164.464 714.263 166.296 716.525 166.296Z" fill="white"/>
<path d="M406.51 95.4281C407.13 93.2545 405.869 90.9905 403.694 90.3713C401.519 89.7521 399.253 91.0123 398.634 93.1859C398.014 95.3595 399.275 97.6235 401.45 98.2427C403.625 98.8619 405.891 97.6017 406.51 95.4281Z" fill="white"/>
</g>
</g>
<g opacity="0.1">
<g clip-path="url(#clip3_201_490)">
<path d="M286.332 598.67H393.171L404.766 587.075H451.974L464.121 599.223H511.191L525.868 613.9V725.317" stroke="white" stroke-width="2.30058" stroke-miterlimit="10"/>
<path d="M267.418 609.023H502.721L514.822 621.101V706.982" stroke="white" stroke-width="1.15029" stroke-miterlimit="10"/>
<path d="M494.97 619.583H426.896L409.481 636.998H338.715L316.445 659.268" stroke="white" stroke-width="2.30058" stroke-miterlimit="10"/>
<path d="M468.903 445.405H391.12L376.512 430.797H332.755L315.73 413.795V337.646" stroke="white" stroke-width="2.30058" stroke-miterlimit="10"/>
<path d="M291.968 401.787H263.096L247.153 417.73H116.871" stroke="white" stroke-width="2.30058" stroke-miterlimit="10"/>
<path d="M235.581 401.787H100.26L82.2238 383.75H40.8594" stroke="white" stroke-width="1.15029" stroke-miterlimit="10"/>
<path d="M530.168 598.67L545.766 583.072H636.11L651.938 598.9H723.348" stroke="white" stroke-width="1.15029" stroke-miterlimit="10"/>
<path d="M540.797 609.023L553.427 596.393H626.746L642.942 612.589" stroke="white" stroke-width="2.30058" stroke-miterlimit="10"/>
<path d="M338.715 420.03H426.896L440.539 406.388H468.905L500.101 375.192" stroke="white" stroke-width="1.15029" stroke-miterlimit="10"/>
<path d="M338.715 409.747H416.728L437.226 389.271" stroke="white" stroke-width="2.30058" stroke-miterlimit="10"/>
<path d="M382.907 619.583H239.121L225.984 632.719" stroke="white" stroke-width="2.30058" stroke-miterlimit="10"/>
<path d="M594.816 562.344H647.937L665.766 580.197H693.028" stroke="white" stroke-width="2.30058" stroke-miterlimit="10"/>
<path d="M299.72 389.271V320.024L282.098 302.401" stroke="white" stroke-width="2.30058" stroke-miterlimit="10"/>
<path d="M286.331 355.959V329.18L257.32 300.17V276.313" stroke="white" stroke-width="1.15029" stroke-miterlimit="10"/>
<path d="M146.777 447.453H88.4338L69.293 428.312" stroke="white" stroke-width="2.30058" stroke-miterlimit="10"/>
<path d="M604.227 438.113H652.861L676.028 414.946H723.351" stroke="white" stroke-width="2.30058" stroke-miterlimit="10"/>
<path d="M621.848 423.757L657.001 388.604V351.749" stroke="white" stroke-width="1.15029" stroke-miterlimit="10"/>
<path d="M647.934 423.366L680.441 390.859V371.465L704.367 347.562" stroke="white" stroke-width="1.15029" stroke-miterlimit="10"/>
<path d="M494.968 632.719H437.223L403.934 665.985" stroke="white" stroke-width="1.15029" stroke-miterlimit="10"/>
<path d="M152.412 583.74H108.034L51.5779 640.196H7.22266" stroke="white" stroke-width="1.15029" stroke-miterlimit="10"/>
<path d="M210.019 596.393H116.869L91.5625 621.676" stroke="white" stroke-width="2.30058" stroke-miterlimit="10"/>
<path d="M454.09 420.03H514.825L532.793 402.086H594.816L620.008 376.871" stroke="white" stroke-width="2.30058" stroke-miterlimit="10"/>
<path d="M540.797 632.719V742.226" stroke="white" stroke-width="2.30058" stroke-miterlimit="10"/>
<path d="M560.535 621.676H610.573L649.338 660.464H693.026" stroke="white" stroke-width="2.30058" stroke-miterlimit="10"/>
<path d="M626.746 616.776L643.31 633.317H704.368L742.58 671.553" stroke="white" stroke-width="1.15029" stroke-miterlimit="10"/>
<path d="M277.174 385.452H196.124L152.482 341.833H81.8086" stroke="white" stroke-width="2.30058" stroke-miterlimit="10"/>
<path d="M621.848 378.505C623.678 378.505 625.161 377.021 625.161 375.192C625.161 373.362 623.678 371.879 621.848 371.879C620.018 371.879 618.535 373.362 618.535 375.192C618.535 377.021 620.018 378.505 621.848 378.505Z" stroke="white" stroke-width="2.30058" stroke-miterlimit="10"/>
<path d="M78.473 345.146C80.3026 345.146 81.7858 343.663 81.7858 341.834C81.7858 340.004 80.3026 338.521 78.473 338.521C76.6434 338.521 75.1602 340.004 75.1602 341.834C75.1602 343.663 76.6434 345.146 78.473 345.146Z" stroke="white" stroke-width="2.30058" stroke-miterlimit="10"/>
<path d="M113.555 421.042C115.385 421.042 116.868 419.559 116.868 417.73C116.868 415.9 115.385 414.417 113.555 414.417C111.725 414.417 110.242 415.9 110.242 417.73C110.242 419.559 111.725 421.042 113.555 421.042Z" stroke="white" stroke-width="2.30058" stroke-miterlimit="10"/>
<path d="M150.09 450.766C151.92 450.766 153.403 449.283 153.403 447.453C153.403 445.624 151.92 444.14 150.09 444.14C148.261 444.14 146.777 445.624 146.777 447.453C146.777 449.283 148.261 450.766 150.09 450.766Z" stroke="white" stroke-width="2.30058" stroke-miterlimit="10"/>
<path d="M726.661 418.259C728.49 418.259 729.973 416.776 729.973 414.946C729.973 413.116 728.49 411.633 726.661 411.633C724.831 411.633 723.348 413.116 723.348 414.946C723.348 416.776 724.831 418.259 726.661 418.259Z" stroke="white" stroke-width="2.30058" stroke-miterlimit="10"/>
<path d="M537.782 614.383C539.611 614.383 541.094 612.9 541.094 611.07C541.094 609.241 539.611 607.758 537.782 607.758C535.952 607.758 534.469 609.241 534.469 611.07C534.469 612.9 535.952 614.383 537.782 614.383Z" stroke="white" stroke-width="2.30058" stroke-miterlimit="10"/>
<path d="M696.567 663.593C698.396 663.593 699.88 662.11 699.88 660.28C699.88 658.45 698.396 656.967 696.567 656.967C694.737 656.967 693.254 658.45 693.254 660.28C693.254 662.11 694.737 663.593 696.567 663.593Z" stroke="white" stroke-width="2.30058" stroke-miterlimit="10"/>
<path d="M224.032 638.263C225.861 638.263 227.344 636.78 227.344 634.951C227.344 633.121 225.861 631.638 224.032 631.638C222.202 631.638 220.719 633.121 220.719 634.951C220.719 636.78 222.202 638.263 224.032 638.263Z" stroke="white" stroke-width="2.30058" stroke-miterlimit="10"/>
<path d="M89.8167 627.29C91.6464 627.29 93.1296 625.806 93.1296 623.977C93.1296 622.147 91.6464 620.664 89.8167 620.664C87.9871 620.664 86.5039 622.147 86.5039 623.977C86.5039 625.806 87.9871 627.29 89.8167 627.29Z" stroke="white" stroke-width="2.30058" stroke-miterlimit="10"/>
<path d="M283.016 602.213C284.846 602.213 286.329 600.73 286.329 598.9C286.329 597.071 284.846 595.588 283.016 595.588C281.186 595.588 279.703 597.071 279.703 598.9C279.703 600.73 281.186 602.213 283.016 602.213Z" stroke="white" stroke-width="2.30058" stroke-miterlimit="10"/>
<path d="M540.797 632.696C542.627 632.696 544.11 631.213 544.11 629.383C544.11 627.554 542.627 626.07 540.797 626.07C538.968 626.07 537.484 627.554 537.484 629.383C537.484 631.213 538.968 632.696 540.797 632.696Z" stroke="white" stroke-width="2.30058" stroke-miterlimit="10"/>
<path d="M696.34 583.509C698.17 583.509 699.653 582.026 699.653 580.197C699.653 578.367 698.17 576.884 696.34 576.884C694.511 576.884 693.027 578.367 693.027 580.197C693.027 582.026 694.511 583.509 696.34 583.509Z" stroke="white" stroke-width="2.30058" stroke-miterlimit="10"/>
<path d="M279.106 302.632C280.935 302.632 282.419 301.148 282.419 299.319C282.419 297.489 280.935 296.006 279.106 296.006C277.276 296.006 275.793 297.489 275.793 299.319C275.793 301.148 277.276 302.632 279.106 302.632Z" stroke="white" stroke-width="2.30058" stroke-miterlimit="10"/>
<path d="M299.719 396.081C301.549 396.081 303.032 394.598 303.032 392.768C303.032 390.939 301.549 389.456 299.719 389.456C297.89 389.456 296.406 390.939 296.406 392.768C296.406 394.598 297.89 396.081 299.719 396.081Z" stroke="white" stroke-width="2.30058" stroke-miterlimit="10"/>
<path d="M472.219 448.718C474.049 448.718 475.532 447.235 475.532 445.406C475.532 443.576 474.049 442.093 472.219 442.093C470.389 442.093 468.906 443.576 468.906 445.406C468.906 447.235 470.389 448.718 472.219 448.718Z" stroke="white" stroke-width="2.30058" stroke-miterlimit="10"/>
<path d="M336.067 413.059C337.896 413.059 339.38 411.576 339.38 409.746C339.38 407.917 337.896 406.434 336.067 406.434C334.237 406.434 332.754 407.917 332.754 409.746C332.754 411.576 334.237 413.059 336.067 413.059Z" stroke="white" stroke-width="2.30058" stroke-miterlimit="10"/>
<path d="M455.664 423.816C457.753 422.951 458.745 420.555 457.88 418.466C457.014 416.376 454.619 415.384 452.529 416.25C450.44 417.115 449.448 419.51 450.313 421.6C451.179 423.689 453.574 424.682 455.664 423.816Z" fill="white"/>
<path d="M438.777 393.041C440.866 392.175 441.859 389.78 440.993 387.69C440.128 385.601 437.732 384.609 435.643 385.474C433.553 386.34 432.561 388.735 433.426 390.825C434.292 392.914 436.687 393.906 438.777 393.041Z" fill="white"/>
<path d="M70.7376 432.207C72.8316 431.353 73.8363 428.963 72.9818 426.869C72.1272 424.775 69.737 423.77 67.643 424.624C65.5491 425.479 64.5443 427.869 65.3988 429.963C66.2534 432.057 68.6436 433.062 70.7376 432.207Z" fill="white"/>
<path d="M278.73 389.244C280.819 388.379 281.812 385.983 280.946 383.894C280.081 381.804 277.685 380.812 275.596 381.678C273.506 382.543 272.514 384.938 273.38 387.028C274.245 389.117 276.641 390.11 278.73 389.244Z" fill="white"/>
<path d="M605.796 441.894C607.886 441.028 608.878 438.633 608.013 436.543C607.147 434.454 604.752 433.461 602.662 434.327C600.573 435.192 599.581 437.588 600.446 439.677C601.311 441.767 603.707 442.759 605.796 441.894Z" fill="white"/>
<path d="M596.378 566.136C598.468 565.27 599.46 562.875 598.595 560.785C597.729 558.696 595.334 557.704 593.244 558.569C591.155 559.435 590.163 561.83 591.028 563.92C591.894 566.009 594.289 567.001 596.378 566.136Z" fill="white"/>
<path d="M562.109 625.465C564.198 624.599 565.191 622.204 564.325 620.114C563.46 618.025 561.064 617.033 558.975 617.898C556.885 618.764 555.893 621.159 556.759 623.249C557.624 625.338 560.019 626.33 562.109 625.465Z" fill="white"/>
<path d="M496.546 623.362C498.636 622.496 499.628 620.101 498.763 618.011C497.897 615.922 495.502 614.929 493.412 615.795C491.323 616.66 490.331 619.056 491.196 621.145C492.061 623.235 494.457 624.227 496.546 623.362Z" fill="white"/>
<path d="M384.48 623.363C386.57 622.497 387.562 620.102 386.696 618.012C385.831 615.923 383.435 614.931 381.346 615.796C379.256 616.662 378.264 619.057 379.13 621.147C379.995 623.236 382.391 624.228 384.48 623.363Z" fill="white"/>
<path d="M211.597 600.187C213.687 599.321 214.679 596.926 213.813 594.836C212.948 592.747 210.552 591.754 208.463 592.62C206.374 593.485 205.381 595.881 206.247 597.97C207.112 600.06 209.508 601.052 211.597 600.187Z" fill="white"/>
<path d="M644.398 616.68C646.487 615.814 647.48 613.419 646.614 611.33C645.749 609.24 643.353 608.248 641.264 609.113C639.174 609.979 638.182 612.374 639.048 614.464C639.913 616.553 642.309 617.545 644.398 616.68Z" fill="white"/>
<path d="M292.468 405.566C294.558 404.701 295.55 402.305 294.685 400.216C293.819 398.127 291.424 397.134 289.334 398C287.245 398.865 286.252 401.261 287.118 403.35C287.983 405.44 290.379 406.432 292.468 405.566Z" fill="white"/>
<path d="M317.293 341.433C319.382 340.568 320.374 338.172 319.509 336.083C318.643 333.993 316.248 333.001 314.158 333.867C312.069 334.732 311.077 337.128 311.942 339.217C312.808 341.307 315.203 342.299 317.293 341.433Z" fill="white"/>
<path d="M238.918 405.1C240.748 405.1 242.231 403.616 242.231 401.787C242.231 399.957 240.748 398.474 238.918 398.474C237.089 398.474 235.605 399.957 235.605 401.787C235.605 403.616 237.089 405.1 238.918 405.1Z" stroke="white" stroke-width="1.15029" stroke-miterlimit="10"/>
<path d="M619.36 429.854C621.189 429.854 622.673 428.37 622.673 426.541C622.673 424.711 621.189 423.228 619.36 423.228C617.53 423.228 616.047 424.711 616.047 426.541C616.047 428.37 617.53 429.854 619.36 429.854Z" stroke="white" stroke-width="1.15029" stroke-miterlimit="10"/>
<path d="M645.911 429.117C647.74 429.117 649.223 427.634 649.223 425.805C649.223 423.975 647.74 422.492 645.911 422.492C644.081 422.492 642.598 423.975 642.598 425.805C642.598 427.634 644.081 429.117 645.911 429.117Z" stroke="white" stroke-width="1.15029" stroke-miterlimit="10"/>
<path d="M498.285 636.032C500.115 636.032 501.598 634.549 501.598 632.719C501.598 630.889 500.115 629.406 498.285 629.406C496.456 629.406 494.973 630.889 494.973 632.719C494.973 634.549 496.456 636.032 498.285 636.032Z" stroke="white" stroke-width="1.15029" stroke-miterlimit="10"/>
<path d="M3.88705 643.509C5.71668 643.509 7.19989 642.026 7.19989 640.196C7.19989 638.366 5.71668 636.883 3.88705 636.883C2.05743 636.883 0.574219 638.366 0.574219 640.196C0.574219 642.026 2.05743 643.509 3.88705 643.509Z" stroke="white" stroke-width="1.15029" stroke-miterlimit="10"/>
<path d="M286.328 362.608C288.158 362.608 289.641 361.125 289.641 359.295C289.641 357.465 288.158 355.982 286.328 355.982C284.499 355.982 283.016 357.465 283.016 359.295C283.016 361.125 284.499 362.608 286.328 362.608Z" stroke="white" stroke-width="1.15029" stroke-miterlimit="10"/>
<path d="M502.723 375.629C504.553 375.629 506.036 374.146 506.036 372.316C506.036 370.486 504.553 369.003 502.723 369.003C500.893 369.003 499.41 370.486 499.41 372.316C499.41 374.146 500.893 375.629 502.723 375.629Z" stroke="white" stroke-width="1.15029" stroke-miterlimit="10"/>
<path d="M338.715 423.343C340.545 423.343 342.028 421.86 342.028 420.03C342.028 418.2 340.545 416.717 338.715 416.717C336.886 416.717 335.402 418.2 335.402 420.03C335.402 421.86 336.886 423.343 338.715 423.343Z" fill="white"/>
<path d="M40.8597 387.063C42.6893 387.063 44.1725 385.58 44.1725 383.75C44.1725 381.92 42.6893 380.437 40.8597 380.437C39.0301 380.437 37.5469 381.92 37.5469 383.75C37.5469 385.58 39.0301 387.063 40.8597 387.063Z" fill="white"/>
<path d="M704.368 350.875C706.197 350.875 707.68 349.392 707.68 347.562C707.68 345.732 706.197 344.249 704.368 344.249C702.538 344.249 701.055 345.732 701.055 347.562C701.055 349.392 702.538 350.875 704.368 350.875Z" fill="white"/>
<path d="M657 355.062C658.83 355.062 660.313 353.578 660.313 351.749C660.313 349.919 658.83 348.436 657 348.436C655.171 348.436 653.688 349.919 653.688 351.749C653.688 353.578 655.171 355.062 657 355.062Z" fill="white"/>
<path d="M530.168 602.213C531.998 602.213 533.481 600.73 533.481 598.9C533.481 597.071 531.998 595.588 530.168 595.588C528.339 595.588 526.855 597.071 526.855 598.9C526.855 600.73 528.339 602.213 530.168 602.213Z" fill="white"/>
<path d="M626.746 620.089C628.576 620.089 630.059 618.605 630.059 616.776C630.059 614.946 628.576 613.463 626.746 613.463C624.917 613.463 623.434 614.946 623.434 616.776C623.434 618.605 624.917 620.089 626.746 620.089Z" fill="white"/>
<path d="M267.418 612.336C269.248 612.336 270.731 610.853 270.731 609.023C270.731 607.193 269.248 605.71 267.418 605.71C265.589 605.71 264.105 607.193 264.105 609.023C264.105 610.853 265.589 612.336 267.418 612.336Z" fill="white"/>
<path d="M152.414 587.052C154.244 587.052 155.727 585.569 155.727 583.739C155.727 581.91 154.244 580.427 152.414 580.427C150.585 580.427 149.102 581.91 149.102 583.739C149.102 585.569 150.585 587.052 152.414 587.052Z" fill="white"/>
<path d="M723.348 602.213C725.178 602.213 726.661 600.73 726.661 598.9C726.661 597.071 725.178 595.588 723.348 595.588C721.518 595.588 720.035 597.071 720.035 598.9C720.035 600.73 721.518 602.213 723.348 602.213Z" fill="white"/>
<path d="M257.321 279.626C259.15 279.626 260.633 278.142 260.633 276.313C260.633 274.483 259.15 273 257.321 273C255.491 273 254.008 274.483 254.008 276.313C254.008 278.142 255.491 279.626 257.321 279.626Z" fill="white"/>
<path d="M132.902 508.787H269.166L287.938 527.559H600.932" stroke="white" stroke-width="2.30058" stroke-miterlimit="10"/>
<path d="M319.918 505.934L352.034 473.818H506.955L533.849 446.924" stroke="white" stroke-width="2.30058" stroke-miterlimit="10"/>
<path d="M373.524 547.39L351.853 569.062H70.8831L46.543 593.402" stroke="white" stroke-width="2.30058" stroke-miterlimit="10"/>
<path d="M459.012 503.909H704.3L730.618 477.614" stroke="white" stroke-width="2.30058" stroke-miterlimit="10"/>
<path d="M338.715 555.534H22.9375" stroke="white" stroke-width="1.15029" stroke-miterlimit="10"/>
<path d="M680.812 516.24H409.205L393.423 500.458H351.875" stroke="white" stroke-width="1.15029" stroke-miterlimit="10"/>
<path d="M399.816 541.432H653.547L675.311 563.195" stroke="white" stroke-width="1.15029" stroke-miterlimit="10"/>
<path d="M259.782 523.948H64.3013L50.7969 537.429" stroke="white" stroke-width="1.15029" stroke-miterlimit="10"/>
<path d="M181.77 437.238H257.252L270.756 423.757" stroke="white" stroke-width="1.15029" stroke-miterlimit="10"/>
<path d="M436.145 566.531H511.65L525.131 553.05" stroke="white" stroke-width="1.15029" stroke-miterlimit="10"/>
<path d="M255.063 495.144H40.7871L17.3672 471.724" stroke="white" stroke-width="1.15029" stroke-miterlimit="10"/>
<path d="M59.5859 479.293H276.692L303.931 452.077" stroke="white" stroke-width="2.30058" stroke-miterlimit="10"/>
<path d="M373.523 486.057H563.344L578.505 470.896H693.028" stroke="white" stroke-width="1.15029" stroke-miterlimit="10"/>
<path d="M486.273 578.448H519.172L535.276 562.344H571.786" stroke="white" stroke-width="1.15029" stroke-miterlimit="10"/>
<path d="M123.516 464.846H156.391L172.495 448.741H209.028" stroke="white" stroke-width="1.15029" stroke-miterlimit="10"/>
<path d="M533.273 473.128H550.183L571.509 451.778V430.498" stroke="white" stroke-width="1.15029" stroke-miterlimit="10"/>
<path d="M351.872 443.519H334.963L313.637 464.845V486.149" stroke="white" stroke-width="1.15029" stroke-miterlimit="10"/>
<path d="M88.7344 539.914H243.793" stroke="white" stroke-width="2.30058" stroke-miterlimit="10"/>
<path d="M218.441 583.74H373.524" stroke="white" stroke-width="1.15029" stroke-miterlimit="10"/>
<path d="M587.773 456.794H665.763L684.444 438.113" stroke="white" stroke-width="2.30058" stroke-miterlimit="10"/>
<path d="M587.773 488.749H680.809" stroke="white" stroke-width="2.30058" stroke-miterlimit="10"/>
<path d="M332.754 473.128L347.478 458.381H486.272" stroke="white" stroke-width="1.15029" stroke-miterlimit="10"/>
<path d="M18.8654 469.87C19.2894 468.09 18.1903 466.304 16.4105 465.88C14.6307 465.456 12.8441 466.555 12.4201 468.335C11.9961 470.115 13.0952 471.901 14.875 472.325C16.6548 472.749 18.4414 471.65 18.8654 469.87Z" stroke="white" stroke-width="1.15029" stroke-miterlimit="10"/>
<path d="M343.295 558.591C344.986 557.89 345.788 555.953 345.088 554.262C344.388 552.572 342.45 551.769 340.76 552.469C339.07 553.169 338.267 555.107 338.967 556.798C339.667 558.488 341.605 559.291 343.295 558.591Z" stroke="white" stroke-width="1.15029" stroke-miterlimit="10"/>
<path d="M396.481 544.745C398.31 544.745 399.794 543.262 399.794 541.432C399.794 539.602 398.31 538.119 396.481 538.119C394.651 538.119 393.168 539.602 393.168 541.432C393.168 543.262 394.651 544.745 396.481 544.745Z" stroke="white" stroke-width="1.15029" stroke-miterlimit="10"/>
<path d="M526.836 554.108C528.666 554.108 530.149 552.625 530.149 550.795C530.149 548.966 528.666 547.482 526.836 547.482C525.007 547.482 523.523 548.966 523.523 550.795C523.523 552.625 525.007 554.108 526.836 554.108Z" stroke="white" stroke-width="1.15029" stroke-miterlimit="10"/>
<path d="M482.961 581.761C484.791 581.761 486.274 580.278 486.274 578.448C486.274 576.618 484.791 575.135 482.961 575.135C481.132 575.135 479.648 576.618 479.648 578.448C479.648 580.278 481.132 581.761 482.961 581.761Z" stroke="white" stroke-width="1.15029" stroke-miterlimit="10"/>
<path d="M376.836 587.052C378.666 587.052 380.149 585.569 380.149 583.739C380.149 581.91 378.666 580.427 376.836 580.427C375.007 580.427 373.523 581.91 373.523 583.739C373.523 585.569 375.007 587.052 376.836 587.052Z" stroke="white" stroke-width="1.15029" stroke-miterlimit="10"/>
<path d="M120.184 468.158C122.014 468.158 123.497 466.675 123.497 464.846C123.497 463.016 122.014 461.533 120.184 461.533C118.354 461.533 116.871 463.016 116.871 464.846C116.871 466.675 118.354 468.158 120.184 468.158Z" stroke="white" stroke-width="1.15029" stroke-miterlimit="10"/>
<path d="M212.344 452.054C214.174 452.054 215.657 450.571 215.657 448.742C215.657 446.912 214.174 445.429 212.344 445.429C210.514 445.429 209.031 446.912 209.031 448.742C209.031 450.571 210.514 452.054 212.344 452.054Z" stroke="white" stroke-width="1.15029" stroke-miterlimit="10"/>
<path d="M357.531 445.863C358.825 444.569 358.825 442.472 357.532 441.178C356.238 439.884 354.14 439.884 352.846 441.178C351.553 442.472 351.553 444.569 352.846 445.863C354.14 447.157 356.238 447.157 357.531 445.863Z" stroke="white" stroke-width="1.15029" stroke-miterlimit="10"/>
<path d="M529.18 476.441C531.01 476.441 532.493 474.957 532.493 473.128C532.493 471.298 531.01 469.815 529.18 469.815C527.35 469.815 525.867 471.298 525.867 473.128C525.867 474.957 527.35 476.441 529.18 476.441Z" stroke="white" stroke-width="1.15029" stroke-miterlimit="10"/>
<path d="M696.34 474.209C698.17 474.209 699.653 472.725 699.653 470.896C699.653 469.066 698.17 467.583 696.34 467.583C694.511 467.583 693.027 469.066 693.027 470.896C693.027 472.725 694.511 474.209 696.34 474.209Z" stroke="white" stroke-width="1.15029" stroke-miterlimit="10"/>
<path d="M492.719 458.821C493.011 457.015 491.784 455.313 489.978 455.021C488.172 454.728 486.471 455.955 486.178 457.761C485.886 459.567 487.113 461.269 488.919 461.561C490.725 461.854 492.426 460.627 492.719 458.821Z" stroke="white" stroke-width="1.15029" stroke-miterlimit="10"/>
<path d="M687.5 516.658C687.792 514.852 686.565 513.151 684.759 512.858C682.953 512.566 681.252 513.793 680.959 515.599C680.667 517.405 681.894 519.106 683.7 519.399C685.506 519.691 687.207 518.464 687.5 516.658Z" stroke="white" stroke-width="1.15029" stroke-miterlimit="10"/>
<path d="M370.231 489.37C372.06 489.37 373.544 487.887 373.544 486.057C373.544 484.227 372.06 482.744 370.231 482.744C368.401 482.744 366.918 484.227 366.918 486.057C366.918 487.887 368.401 489.37 370.231 489.37Z" stroke="white" stroke-width="1.15029" stroke-miterlimit="10"/>
<path d="M24.1717 558.612C25.8596 557.906 26.6555 555.966 25.9495 554.278C25.2434 552.59 23.3027 551.794 21.6148 552.5C19.9269 553.206 19.131 555.147 19.837 556.835C20.5431 558.522 22.4838 559.318 24.1717 558.612Z" fill="white"/>
<path d="M50.7972 540.742C52.6268 540.742 54.11 539.259 54.11 537.429C54.11 535.599 52.6268 534.116 50.7972 534.116C48.9676 534.116 47.4844 535.599 47.4844 537.429C47.4844 539.259 48.9676 540.742 50.7972 540.742Z" fill="white"/>
<path d="M184.047 437.711C184.339 435.905 183.112 434.203 181.306 433.911C179.5 433.618 177.799 434.845 177.506 436.651C177.214 438.457 178.441 440.159 180.247 440.451C182.053 440.744 183.754 439.517 184.047 437.711Z" fill="white"/>
<path d="M270.754 426.679C272.584 426.679 274.067 425.196 274.067 423.366C274.067 421.536 272.584 420.053 270.754 420.053C268.925 420.053 267.441 421.536 267.441 423.366C267.441 425.196 268.925 426.679 270.754 426.679Z" fill="white"/>
<path d="M255.067 498.457C256.896 498.457 258.38 496.974 258.38 495.144C258.38 493.314 256.896 491.831 255.067 491.831C253.237 491.831 251.754 493.314 251.754 495.144C251.754 496.974 253.237 498.457 255.067 498.457Z" fill="white"/>
<path d="M259.782 526.248C261.611 526.248 263.094 524.765 263.094 522.935C263.094 521.106 261.611 519.622 259.782 519.622C257.952 519.622 256.469 521.106 256.469 522.935C256.469 524.765 257.952 526.248 259.782 526.248Z" fill="white"/>
<path d="M218.442 587.052C220.271 587.052 221.755 585.569 221.755 583.739C221.755 581.91 220.271 580.427 218.442 580.427C216.612 580.427 215.129 581.91 215.129 583.739C215.129 585.569 216.612 587.052 218.442 587.052Z" fill="white"/>
<path d="M313.637 489.462C315.467 489.462 316.95 487.978 316.95 486.149C316.95 484.319 315.467 482.836 313.637 482.836C311.807 482.836 310.324 484.319 310.324 486.149C310.324 487.978 311.807 489.462 313.637 489.462Z" fill="white"/>
<path d="M571.785 433.811C573.615 433.811 575.098 432.328 575.098 430.498C575.098 428.668 573.615 427.185 571.785 427.185C569.956 427.185 568.473 428.668 568.473 430.498C568.473 432.328 569.956 433.811 571.785 433.811Z" fill="white"/>
<path d="M676.592 566.311C678.283 565.61 679.085 563.673 678.385 561.982C677.685 560.292 675.747 559.489 674.057 560.189C672.366 560.889 671.564 562.827 672.264 564.518C672.964 566.208 674.902 567.011 676.592 566.311Z" fill="white"/>
<path d="M353.147 503.525C354.837 502.825 355.64 500.887 354.94 499.197C354.24 497.506 352.302 496.703 350.611 497.404C348.921 498.104 348.118 500.042 348.819 501.732C349.519 503.422 351.457 504.225 353.147 503.525Z" fill="white"/>
<path d="M436.145 569.867C437.975 569.867 439.458 568.384 439.458 566.554C439.458 564.724 437.975 563.241 436.145 563.241C434.315 563.241 432.832 564.724 432.832 566.554C432.832 568.384 434.315 569.867 436.145 569.867Z" fill="white"/>
<path d="M571.785 565.657C573.615 565.657 575.098 564.174 575.098 562.344C575.098 560.514 573.615 559.031 571.785 559.031C569.956 559.031 568.473 560.514 568.473 562.344C568.473 564.174 569.956 565.657 571.785 565.657Z" fill="white"/>
<path d="M332.754 476.441C334.584 476.441 336.067 474.957 336.067 473.128C336.067 471.298 334.584 469.815 332.754 469.815C330.925 469.815 329.441 471.298 329.441 473.128C329.441 474.957 330.925 476.441 332.754 476.441Z" fill="white"/>
<path d="M85.1214 543.226C86.9511 543.226 88.4343 541.743 88.4343 539.913C88.4343 538.084 86.9511 536.601 85.1214 536.601C83.2918 536.601 81.8086 538.084 81.8086 539.913C81.8086 541.743 83.2918 543.226 85.1214 543.226Z" stroke="white" stroke-width="2.30058" stroke-miterlimit="10"/>
<path d="M318.469 511.662C320.299 511.662 321.782 510.179 321.782 508.349C321.782 506.52 320.299 505.037 318.469 505.037C316.639 505.037 315.156 506.52 315.156 508.349C315.156 510.179 316.639 511.662 318.469 511.662Z" stroke="white" stroke-width="2.30058" stroke-miterlimit="10"/>
<path d="M684.446 492.061C686.275 492.061 687.758 490.578 687.758 488.749C687.758 486.919 686.275 485.436 684.446 485.436C682.616 485.436 681.133 486.919 681.133 488.749C681.133 490.578 682.616 492.061 684.446 492.061Z" stroke="white" stroke-width="2.30058" stroke-miterlimit="10"/>
<path d="M583.68 492.061C585.51 492.061 586.993 490.578 586.993 488.749C586.993 486.919 585.51 485.436 583.68 485.436C581.85 485.436 580.367 486.919 580.367 488.749C580.367 490.578 581.85 492.061 583.68 492.061Z" stroke="white" stroke-width="2.30058" stroke-miterlimit="10"/>
<path d="M246.141 543.226C247.971 543.226 249.454 541.743 249.454 539.913C249.454 538.084 247.971 536.601 246.141 536.601C244.311 536.601 242.828 538.084 242.828 539.913C242.828 541.743 244.311 543.226 246.141 543.226Z" stroke="white" stroke-width="2.30058" stroke-miterlimit="10"/>
<path d="M44.1722 598.67C46.0018 598.67 47.485 597.187 47.485 595.357C47.485 593.528 46.0018 592.045 44.1722 592.045C42.3426 592.045 40.8594 593.528 40.8594 595.357C40.8594 597.187 42.3426 598.67 44.1722 598.67Z" stroke="white" stroke-width="2.30058" stroke-miterlimit="10"/>
<path d="M129.591 512.882C131.853 512.882 133.686 511.048 133.686 508.787C133.686 506.525 131.853 504.692 129.591 504.692C127.329 504.692 125.496 506.525 125.496 508.787C125.496 511.048 127.329 512.882 129.591 512.882Z" fill="white"/>
<path d="M306.843 454.962C308.442 453.363 308.442 450.77 306.843 449.171C305.244 447.572 302.651 447.572 301.052 449.171C299.453 450.77 299.453 453.363 301.052 454.962C302.651 456.561 305.244 456.561 306.843 454.962Z" fill="white"/>
<path d="M462.915 504.344C463.277 502.111 461.76 500.008 459.528 499.647C457.295 499.285 455.192 500.802 454.83 503.034C454.469 505.267 455.986 507.37 458.218 507.731C460.451 508.093 462.554 506.576 462.915 504.344Z" fill="white"/>
<path d="M590.671 459.671C592.27 458.072 592.27 455.479 590.671 453.88C589.072 452.28 586.479 452.28 584.88 453.88C583.281 455.479 583.281 458.072 584.88 459.671C586.479 461.27 589.072 461.27 590.671 459.671Z" fill="white"/>
<path d="M688.608 439.147C689.128 436.946 687.765 434.741 685.564 434.22C683.363 433.7 681.157 435.062 680.637 437.263C680.117 439.464 681.479 441.67 683.68 442.191C685.881 442.711 688.087 441.348 688.608 439.147Z" fill="white"/>
<path d="M731.738 481.812C733.827 480.946 734.82 478.551 733.954 476.461C733.089 474.372 730.693 473.379 728.604 474.245C726.514 475.11 725.522 477.506 726.387 479.595C727.253 481.685 729.648 482.677 731.738 481.812Z" fill="white"/>
<path d="M605.088 528.596C605.609 526.395 604.246 524.189 602.045 523.668C599.844 523.148 597.638 524.511 597.118 526.712C596.598 528.913 597.96 531.119 600.161 531.639C602.362 532.159 604.568 530.797 605.088 528.596Z" fill="white"/>
<path d="M533.275 451.548C535.536 451.548 537.37 449.715 537.37 447.453C537.37 445.192 535.536 443.358 533.275 443.358C531.013 443.358 529.18 445.192 529.18 447.453C529.18 449.715 531.013 451.548 533.275 451.548Z" fill="white"/>
<path d="M373.525 551.485C375.786 551.485 377.62 549.652 377.62 547.39C377.62 545.129 375.786 543.295 373.525 543.295C371.263 543.295 369.43 545.129 369.43 547.39C369.43 549.652 371.263 551.485 373.525 551.485Z" fill="white"/>
<path d="M63.5103 480.569C64.1299 478.394 62.8689 476.128 60.6938 475.509C58.5187 474.889 56.2532 476.15 55.6336 478.325C55.014 480.5 56.275 482.766 58.4501 483.385C60.6252 484.005 62.8907 482.744 63.5103 480.569Z" fill="white"/>
</g>
</g>
</g>
<defs>
<clipPath id="clip0_201_490">
<rect width="1092" height="656" fill="white"/>
</clipPath>
<clipPath id="clip1_201_490">
<rect width="749" height="473" fill="white" transform="translate(343 -112)"/>
</clipPath>
<clipPath id="clip2_201_490">
<rect width="749" height="473" fill="white" transform="translate(343 -112)"/>
</clipPath>
<clipPath id="clip3_201_490">
<rect width="749" height="473.321" fill="white" transform="translate(0 273)"/>
</clipPath>
</defs>
</svg>
