<svg width="809" height="563" viewBox="0 0 809 563" fill="none" xmlns="http://www.w3.org/2000/svg">
<path d="M696.88 527.069H755.88V261.551H696.88V527.069Z" fill="#CDDFED"/>
<path d="M696.879 343.04H607.846V527.071H696.879V343.04Z" fill="#CDDFED"/>
<path d="M809 397.825H719.967V527.069H809V397.825Z" fill="#CDDFED"/>
<path d="M696.879 261.553H744.793V248.575H696.879V261.553Z" fill="#CDDFED"/>
<path d="M696.88 248.573H736.082V235.595H696.88V248.573Z" fill="#CDDFED"/>
<path d="M696.879 235.595H727.765V222.617H696.879V235.595Z" fill="#CDDFED"/>
<path d="M463.964 527.069H522.964V261.551H463.964L463.964 527.069Z" fill="#CDDFED"/>
<path d="M625.357 527.069H684.357V175.588H625.357V527.069Z" fill="#CDDFED"/>
<path d="M345.96 527.069H463.962V424.323H345.96V527.069Z" fill="#CDDFED"/>
<path d="M493.462 527.069H611.997V134.127H493.462L493.462 527.069Z" fill="#CDDFED"/>
<path d="M463.963 261.553H511.877V248.575H463.963V261.553Z" fill="#CDDFED"/>
<path d="M463.963 248.573H503.166V235.595H463.963V248.573Z" fill="#CDDFED"/>
<path d="M463.963 235.595H494.849V222.617H463.963V235.595Z" fill="#CDDFED"/>
<path d="M350.92 527.069H409.92L409.92 261.551H350.92L350.92 527.069Z" fill="#CDDFED"/>
<path d="M468.919 306.437H409.919V527.071H468.919V306.437Z" fill="#CDDFED"/>
<path d="M350.918 202.009H261.885V527.071H350.918V202.009Z" fill="#CDDFED"/>
<path d="M350.918 261.553H398.832V248.575H350.918V261.553Z" fill="#CDDFED"/>
<path d="M350.919 248.573H390.121V235.595H350.919V248.573Z" fill="#CDDFED"/>
<path d="M350.92 235.595H381.806V222.617H350.92V235.595Z" fill="#CDDFED"/>
<path d="M118.001 527.069H177.001L177.001 261.551H118.001L118.001 527.069Z" fill="#CDDFED"/>
<path d="M59.0016 527.069H118.002L118.002 306.435H59.0016L59.0016 527.069Z" fill="#CDDFED"/>
<path d="M190.893 527.071H249.894L249.894 269.617H190.893L190.893 527.071Z" fill="#CDDFED"/>
<path d="M-0.000366211 527.071H59L59 398.899H-0.000366211L-0.000366211 527.071Z" fill="#CDDFED"/>
<path d="M147.501 527.071H266.036V333.205H147.501L147.501 527.071Z" fill="#CDDFED"/>
<path d="M118.001 261.553H165.915V248.575H118.001V261.553Z" fill="#CDDFED"/>
<path d="M54.2502 483.808H102.164V470.83H54.2502V483.808Z" fill="#CDDFED"/>
<path d="M118.001 248.573H157.203V235.595H118.001V248.573Z" fill="#CDDFED"/>
<path d="M118.001 235.595H148.887V222.617H118.001V235.595Z" fill="#CDDFED"/>
<path d="M372.731 344.291H450.298V331.312H372.731V344.291Z" fill="#CDDFED"/>
<path d="M372.731 390.797H450.298V377.819H372.731V390.797Z" fill="#CDDFED"/>
<path d="M372.731 437.302H450.298V424.323H372.731V437.302Z" fill="#CDDFED"/>
<path d="M75.438 437.302H153.005V424.323H75.438V437.302Z" fill="#CDDFED"/>
<path d="M75.438 483.808H153.005V470.83H75.438V483.808Z" fill="#CDDFED"/>
<path d="M556.319 411.666C534.047 419.544 507.188 418.738 486.925 405.744C467.005 392.969 448.858 383.744 424.35 384.192C402.45 384.592 384.342 396.426 363.131 398.945C346.309 400.943 329.22 393.61 317.028 381.852C305.126 370.373 297.222 352.872 302.398 337.17C305.108 328.948 311.03 322.165 314.409 314.195C322.202 295.814 301.68 284.725 306.785 265.377C311.126 248.921 329.186 237.185 328.916 220.17C328.718 207.714 319.073 198.06 315.677 186.536C312.25 174.911 313.007 161.887 319.052 151.266C323.494 143.463 330.629 137.073 338.897 133.552C346.322 130.389 354.617 130.329 360.36 123.841C370.592 112.28 374.346 99.75 388.387 91.2964C400.273 84.1401 415.97 83.6855 429.607 84.9359C459.909 87.7134 489.319 103.703 506.386 129.17C512.434 138.196 516.799 147.431 516.951 158.157C517.118 169.883 517.113 181.679 524.3 191.648C530.334 200.019 540.019 204.916 549.622 208.693C559.227 212.47 569.291 215.526 577.722 221.477C586.153 227.428 592.849 237.135 591.865 247.405C591.041 256.001 585.09 263.472 584.297 272.069C582.857 287.705 597.924 299.062 607.212 311.723C620.217 329.451 622.372 354.519 612.583 374.205C601.314 396.871 580.84 401.983 559.385 410.512C558.372 410.915 557.35 411.299 556.316 411.664L556.319 411.666Z" fill="#0B2D4E"/>
<path d="M394.397 119.331C401.763 115.03 410.322 113.058 418.826 112.718C427.361 112.392 435.914 113.49 444.2 115.551C460.818 119.734 475.953 129.622 486.509 143.223C491.727 150.062 495.764 157.843 498.158 166.145C500.564 174.471 501.056 183.177 500.957 191.693C500.873 200.229 500.265 208.719 500.546 217.116C500.723 221.284 501.239 225.446 502.507 229.337C503.755 233.212 505.92 236.787 509.122 239.122C512.282 241.519 516.341 242.532 520.443 243.023C524.559 243.512 528.855 243.536 533.144 244.109C541.632 245.251 550.263 247.268 557.659 252.135C561.293 254.563 564.561 257.944 566.151 262.213C567.799 266.483 567.467 271.145 566.365 275.4C565.082 279.703 562.642 283.311 560.945 287.074C559.243 290.84 558.152 294.894 557.783 299.02C556.998 307.327 559.131 315.652 562.085 323.532C564.986 331.474 568.473 339.302 570.507 347.645C571.502 351.809 572.11 356.096 572.041 360.394C571.989 364.69 571.206 368.967 569.806 373.006C567.014 381.099 561.75 388.273 554.94 393.361C561.629 388.115 566.676 380.858 569.242 372.817C571.929 364.766 571.573 356.031 569.353 347.933C567.227 339.766 563.684 332.031 560.649 324.069C557.566 316.159 555.215 307.595 555.922 298.862C556.254 294.522 557.345 290.238 559.089 286.241C560.862 282.262 563.229 278.708 564.351 274.811C565.338 270.882 565.6 266.699 564.137 262.981C562.734 259.253 559.825 256.223 556.429 253.974C549.536 249.46 541.121 247.475 532.864 246.415C528.722 245.875 524.493 245.873 520.165 245.385C515.891 244.888 511.361 243.842 507.675 241.071C503.975 238.348 501.575 234.254 500.253 230.078C498.902 225.87 498.396 221.512 498.231 217.206C497.982 208.61 498.632 200.123 498.75 191.669C498.885 183.233 498.432 174.771 496.139 166.716C493.828 158.681 490.015 151.09 485.026 144.351C474.917 130.955 460.197 121.051 443.9 116.696C435.763 114.469 427.306 113.183 418.844 113.31C410.408 113.453 401.863 115.205 394.397 119.333V119.331Z" fill="#73B8D4"/>
<path d="M501.598 307.784C502.387 326.998 497.933 341.429 480.357 350.932C466.358 358.501 449.595 360.984 434.147 361.364C408.238 362.003 379.368 355.323 359.987 337.128C356.47 333.825 353.095 329.777 352.841 324.96C352.609 320.581 355.018 316.455 355.232 312.076C355.59 304.688 349.846 298.57 347.278 291.634C343.887 282.474 346.192 272.247 349.239 262.967C352.286 253.687 356.099 244.317 355.641 234.56C355.047 221.904 347.441 210.854 341.351 199.742C335.261 188.631 330.467 175.114 335.672 163.561C339.1 155.949 347.281 150.095 355.638 149.168C364.467 148.189 372.401 158.275 378.055 163.832C385.667 171.308 394.145 177.902 403.267 183.435C415.883 191.088 429.733 196.734 441.601 205.504C448.781 210.812 456.485 218.098 459.912 226.551C463.775 236.077 457.011 245.299 465.19 254.062C470.466 259.715 478.57 261.637 484.95 266.008C498.609 275.363 500.977 292.61 501.599 307.779L501.598 307.784Z" fill="#061F33"/>
<path d="M358.515 415.297C376.706 387.27 388.027 352.872 372.219 321.228C370.618 318.021 368.691 314.522 365.288 313.391C357.97 310.958 348.043 313.574 341.68 317.307C319.607 330.254 306.1 354.619 293.699 376.297C280.817 398.819 269.628 422.263 256.681 444.747C251.437 453.854 246.142 463.085 243.33 473.209C240.865 482.079 240.597 492.234 243.957 500.912C258.49 538.431 298.452 492.473 310.616 478.589C327.974 458.777 344.181 437.392 358.515 415.297Z" fill="#EFB126"/>
<path d="M523.12 383.943C528.35 361.806 531.06 339.16 519.209 324.08C513.857 317.27 504.324 312.529 496.52 309.156C481.301 302.579 465.741 293.739 449.449 290.872C432.273 287.851 413.169 285.987 396.051 290.309C385.178 293.055 375.005 298.135 365.283 303.616C356.846 308.372 346.496 312.466 342.399 321.317C332.474 342.764 323.666 365.135 316.359 387.604C310.246 406.404 303.537 426.108 313.168 445.16C316.29 451.334 320.823 456.618 324.393 462.515C328.37 469.086 329.853 475.257 330.374 482.837C331.564 500.13 331.101 517.474 331.052 534.792C331.038 539.782 331.104 544.97 333.29 549.457C337.599 558.304 349.31 558.427 357.744 558.412C385.546 558.364 413.35 558.317 441.154 558.268C452.723 558.249 461.56 559.664 472.42 561.897C481.56 563.775 489.406 559.163 493.791 550.662C497.941 542.615 498.258 533.215 498.703 524.171C500.434 488.981 505.427 453.955 513.598 419.683C515.912 409.979 519.968 397.287 523.12 383.943Z" fill="#FFC73C"/>
<mask id="mask0_231_181" style="mask-type:luminance" maskUnits="userSpaceOnUse" x="308" y="287" width="220" height="276">
<path d="M523.12 383.943C528.35 361.806 531.06 339.16 519.209 324.08C513.857 317.27 504.324 312.529 496.52 309.156C481.301 302.579 465.741 293.739 449.449 290.872C432.273 287.851 413.169 285.987 396.051 290.309C385.178 293.055 375.005 298.135 365.283 303.616C356.846 308.372 346.496 312.466 342.399 321.317C332.474 342.764 323.666 365.135 316.359 387.604C310.246 406.404 303.537 426.108 313.168 445.16C316.29 451.334 320.823 456.618 324.393 462.515C328.37 469.086 329.853 475.257 330.374 482.837C331.564 500.13 331.101 517.474 331.052 534.792C331.038 539.782 331.104 544.97 333.29 549.457C337.599 558.304 349.31 558.427 357.744 558.412C385.546 558.364 413.35 558.317 441.154 558.268C452.723 558.249 461.56 559.664 472.42 561.897C481.56 563.775 489.406 559.163 493.791 550.662C497.941 542.615 498.258 533.215 498.703 524.171C500.434 488.981 505.427 453.955 513.598 419.683C515.912 409.979 519.968 397.287 523.12 383.943Z" fill="white"/>
</mask>
<g mask="url(#mask0_231_181)">
<path d="M458.725 319.549C465.27 308.543 466.757 294.79 458.183 284.185C454.263 279.336 447.33 278.792 441.401 278.682C429.732 278.464 418.036 279.703 406.671 282.362C395.838 284.895 384.794 289.185 380.102 300.12C376.617 308.244 377.833 317.642 382.425 325.073C386.596 331.824 393.515 336.821 401.236 338.658C413.703 341.625 428.294 341.227 440.189 336.233C447.64 333.107 454.324 326.948 458.724 319.549H458.725Z" fill="#EFB126"/>
<path d="M532.969 485.432C532.883 468.458 532.797 451.485 532.711 434.51C532.682 428.601 536.519 392.631 527.325 393.041C526.333 393.084 525.424 393.595 524.616 394.173C520.042 397.444 517.691 402.923 515.554 408.123C508.852 424.429 503.225 450.53 489.276 461.944C475.096 473.547 453.293 478.439 435.673 481.225C415.096 484.478 394.181 484.719 373.387 485.984C359.936 486.802 345.096 488.737 336.26 498.91C329.95 506.173 326.738 517.061 323.368 525.937C320.423 533.692 318.079 542.906 324.054 549.929C326.604 552.927 330.143 554.894 333.702 556.571C346.679 562.687 360.864 565.771 375.015 568.139C414.615 574.765 454.978 576.141 495.085 574.231C503.66 573.821 512.957 572.969 519.284 567.165C523.99 562.848 526.209 556.492 527.785 550.303C533.158 529.221 533.08 507.186 532.97 485.43L532.969 485.432Z" fill="#EFB126"/>
</g>
<path d="M343.348 195.548C328.178 211.153 341.939 249.285 366.133 243.766C392.131 237.836 388.218 197.332 364.711 190.682C355.543 188.089 348.231 190.525 343.348 195.548Z" fill="#3793E0"/>
<path d="M550.439 409.103C565.645 411.041 581.661 409.708 595.243 402.602C612.534 393.555 621.184 376.968 621.543 357.885C621.802 344.061 619.126 329.651 610.779 318.627C601.702 306.641 586.491 299.271 580.847 285.337C577.192 276.312 578.068 264.026 585.297 257.045C589.898 252.6 593.497 247.588 592.906 240.925C592.037 231.123 584.865 221.705 576.853 216.411C565.104 208.648 550.49 205.807 536.742 204.06C527.432 202.878 518.155 200.262 515.273 190.236C513.72 184.827 514.027 179.121 513.736 173.563C513.116 161.711 512.247 149.856 510.477 138.112C508.435 124.574 499.642 111.479 489.835 102.151C488.427 100.811 486.965 99.5285 485.455 98.3055C460.172 77.8282 413.371 70.5749 385.484 89.5527C375.975 96.0231 369.313 105.926 367.195 117.246C365.78 124.812 363.728 126.441 356.335 128.734C342.904 132.901 327.661 135.86 316.994 145.708C308.65 153.413 304.813 165.079 305.923 176.273C307.341 190.563 317.335 197.399 324.49 208.725C331.795 220.286 326.051 234.835 317.566 244.376C311.031 251.723 301.76 257.09 298.069 266.204C294.673 274.588 296.922 284.279 301.024 292.343C302.686 295.609 304.642 298.729 306.111 302.087C310.581 312.306 310.12 324.554 304.893 334.407" stroke="#0B2D4E" stroke-width="15" stroke-miterlimit="10"/>
<path d="M593.542 431.215C598.192 439.602 602.815 448.002 607.352 456.456C616.563 473.614 633.664 511.734 606.285 521.152C592.492 525.897 584.601 521.257 575.482 511.21C540.986 473.201 511.573 430.595 488.264 384.88C479.588 367.864 456.552 323.524 484.533 313.393C493.367 310.193 503.551 310.939 511.827 315.389C515.611 317.424 518.965 320.164 522.172 323.024C542.365 341.028 556.744 364.257 569.536 387.817C577.441 402.377 585.535 416.777 593.542 431.216V431.215Z" fill="#FFC73C"/>
<path d="M435.018 325.161C443.35 322.488 450.211 317.31 452.782 309.08C455.116 301.61 451.436 293.208 450.781 285.67C450.153 278.447 450.072 271.181 450.546 263.949C450.985 257.262 451.624 250.296 450.597 243.63C450.012 239.82 447.92 240.472 444.066 238.958C440.214 237.446 435.889 237.431 431.698 237.441C423.121 237.462 400.765 236.839 395.466 244.364C393.033 247.818 392.842 252.164 392.726 256.276C392.586 261.242 391.706 267.671 390.892 274.597C390.53 277.681 390.753 280.754 390.281 283.816C389.752 287.246 388.449 290.533 387.309 293.818C382.995 306.241 387.033 318.056 400.473 323.744C410.114 327.825 423.879 328.732 435.018 325.159V325.161Z" fill="#F8A17A"/>
<path d="M450.555 243.632C449.971 239.822 447.879 240.474 444.025 238.96C440.172 237.447 435.847 237.433 431.657 237.443C423.08 237.464 400.724 236.841 395.425 244.366C392.991 247.82 392.801 252.166 392.684 256.278C392.545 261.243 391.665 267.673 390.851 274.599C390.488 277.682 390.712 280.756 390.239 283.818C389.836 286.429 388.985 288.957 388.099 291.466C396.412 294.552 405.801 295.24 414.474 293.106C430.097 289.261 441.93 279.539 450.367 266.899C450.411 265.916 450.44 264.932 450.505 263.95C450.943 257.263 451.582 250.298 450.553 243.632H450.555Z" fill="#E5785C"/>
<path d="M463.005 194.683C462.937 183.233 461.356 172.373 458.41 163.355C445.697 124.443 397.146 114.831 367.909 142.761C335.306 173.909 347.782 248.383 382.125 274.544C391.307 281.539 403.785 283.996 414.936 281.007C448.676 271.961 463.219 230.448 463.007 194.683H463.005Z" fill="#F8A17A"/>
<path d="M456.624 195.644C471.561 187.478 476.159 208.154 473.588 218.444C472.527 222.693 470.848 226.839 468.21 230.335C464.657 235.044 454.493 242.855 448.637 237.705C445.981 235.367 445.707 231.396 445.625 227.858C445.406 218.373 446.498 201.179 456.624 195.644Z" fill="#F8A17A"/>
<path d="M407.97 263.753C404.309 263.753 400.621 263.483 396.931 262.939L397.591 258.46C410.998 260.437 424.367 258.569 436.255 253.062C439.484 251.566 442.22 249.995 444.621 248.256C448.987 245.094 452.734 240.966 455.457 236.313L459.366 238.601C456.329 243.79 452.148 248.397 447.278 251.923C444.639 253.834 441.655 255.55 438.159 257.169C428.749 261.529 418.474 263.753 407.972 263.753H407.97Z" fill="#3793E0"/>
<path d="M383.836 254.89C389.299 250.204 401.445 250.605 405.449 255.471C408.417 259.077 407.511 263.654 404.244 266.702C400.379 270.309 395.596 270.099 390.774 269.012C384.737 267.652 377.254 260.537 383.836 254.89Z" fill="#3793E0"/>
<path d="M463.081 164.957C449.697 123.99 398.58 113.87 367.799 143.277C360.998 149.773 356.089 158.076 352.824 167.403C353.51 168.464 354.279 169.529 355.198 170.595C359.421 175.485 365.25 178.681 371.116 181.392C388.25 189.312 406.72 193.96 425.275 197.436C426.642 197.691 428.018 197.944 429.39 198.216C434.498 199.223 439.568 200.482 444.028 203.11C456.638 210.542 451.215 226.886 460.454 234.049C461.29 234.698 462.135 235.115 462.978 235.413C466.39 223.213 467.99 210.257 467.917 197.944C467.846 185.889 466.181 174.456 463.08 164.961L463.081 164.957Z" fill="#E5785C"/>
<path d="M430.715 193.534C435.597 195.343 440.402 197.394 444.386 200.7C455.649 210.047 447.688 225.317 455.665 233.861C462.732 241.432 473.466 231.428 476.278 224.437C481.457 211.556 481.153 197.221 480.771 183.343C480.558 175.605 480.328 167.754 478.058 160.352C475.582 152.277 470.761 145.072 465.018 138.878C448.44 120.994 423.421 111.698 399.2 113.223C380.258 114.415 347.027 130.329 361.879 154.44C365.267 159.941 370.513 164.024 375.871 167.636C391.524 178.186 409.015 185.72 426.779 192.109C428.087 192.58 429.405 193.049 430.717 193.534H430.715Z" fill="#0B2D4E"/>
<path d="M462.899 189.762C441.815 195.168 433.667 234.877 457.187 242.784C482.462 251.278 500.254 214.68 483.664 196.748C477.194 189.755 469.685 188.023 462.899 189.762Z" fill="#3793E0"/>
<path d="M469.811 194.857C455.255 197.195 446.29 228.109 461.29 236.618C477.409 245.76 492.534 218.23 483.053 202.374C479.355 196.19 474.497 194.105 469.811 194.857Z" fill="#3793E0"/>
<path d="M472.749 192.541L467.126 191.891C470.942 158.933 469.316 116.824 439.913 103.373C425.989 97.0049 386.112 89.9375 368.561 113.614C366.45 115.984 365.037 117.972 365.037 117.972C375.92 84.3972 427.238 91.3513 442.267 98.2262C474.763 113.09 476.779 157.719 472.749 192.541Z" fill="#3793E0"/>
<path d="M0 562.404L809 562.404V525.404L0 525.404V562.404Z" fill="white"/>
<path d="M366.552 502.732H251.46V525.259H366.552V502.732Z" fill="#3793E0"/>
<path d="M271.209 504.918L242.163 357.078C241.396 353.173 237.97 350.357 233.99 350.357H40.8965C38.1005 350.357 35.7059 351.74 34.2044 353.789L34.1785 353.765L25.2617 364.305L33.1721 362.571L61.7703 508.129C62.5372 512.034 65.9609 514.85 69.9428 514.85H263.038C268.282 514.85 272.22 510.063 271.211 504.919L271.209 504.918Z" fill="#3793E0"/>
<path d="M61.1138 525.259H254.209C259.453 525.259 263.391 520.473 262.382 515.329L233.335 367.489C232.568 363.584 229.143 360.768 225.163 360.768H32.0675C26.8235 360.768 22.8853 365.554 23.8949 370.698L52.9413 518.538C53.7082 522.443 57.1319 525.259 61.1138 525.259Z" fill="#0B2D4E"/>
<path d="M121.852 439.351C123.633 449.324 133.163 457.408 143.138 457.408C153.113 457.408 159.64 449.324 157.716 439.351C155.792 429.379 146.262 421.294 136.43 421.294C126.597 421.294 120.07 429.379 121.852 439.351Z" fill="#3793E0"/>
<path d="M676.368 436.996C678.496 432.598 678.116 427.975 676.774 423.782C675.485 419.495 673.182 415.804 670.689 411.766C668.17 407.787 665.599 403.448 664.023 398.225C662.426 392.944 662.882 387.021 664.35 382.013C667.521 371.797 674.017 364.267 678.493 356.565C680.735 352.668 682.57 348.71 683.295 344.328C684.11 339.989 683.83 335.368 681.698 331.012C685.395 334.245 687.184 339.486 687.427 344.561C687.659 349.689 686.364 354.891 684.397 359.465C680.512 368.742 674.69 376.274 672.425 384.417C671.14 388.448 670.825 392.353 671.736 396.263C672.498 400.27 674.595 404.315 676.48 408.702C678.481 412.986 680.395 417.936 680.819 423.026C681.251 428.042 680.104 433.711 676.366 436.996H676.368Z" fill="white"/>
<path d="M649.659 442.612H707.043V509.656C707.043 518.008 700.26 524.787 691.908 524.787H664.796C656.442 524.787 649.661 518.006 649.661 509.656V442.612H649.659Z" fill="#3793E0"/>
<path d="M711.051 461.198C697.29 461.198 686.136 472.515 686.136 486.474C686.136 500.432 697.29 511.749 711.051 511.749C724.812 511.749 735.967 500.432 735.967 486.474C735.967 472.515 724.812 461.198 711.051 461.198ZM711.051 502.735C702.198 502.735 695.02 495.455 695.02 486.474C695.02 477.493 702.198 470.212 711.051 470.212C719.905 470.212 727.081 477.493 727.081 486.474C727.081 495.455 719.903 502.735 711.051 502.735Z" fill="#3793E0"/>
<path opacity="0.2" d="M658.239 493.596C656.532 493.596 655.138 492.2 655.138 490.495V450.503C655.138 448.796 656.534 447.402 658.239 447.402C659.946 447.402 661.341 448.798 661.341 450.503V490.495C661.341 492.202 659.945 493.596 658.239 493.596Z" fill="white"/>
<path d="M693.792 442.612V510.259C693.792 518.282 687.286 524.789 679.259 524.789H692.512C700.539 524.789 707.045 518.284 707.045 510.259V442.612H693.793H693.792Z" fill="#3793E0"/>
<path d="M557.487 142.727L752.229 142.727C763.374 142.727 772.409 133.694 772.409 122.552V20.1748C772.409 9.03253 763.374 -6.10352e-05 752.229 -6.10352e-05L557.487 -6.10352e-05C546.342 -6.10352e-05 537.307 9.03253 537.307 20.1748V122.552C537.307 133.694 546.342 142.727 557.487 142.727Z" fill="#3793E0"/>
<path d="M568.251 180.296V114.708L619.632 142.727L568.251 180.296Z" fill="#3793E0"/>
<path d="M683.271 65.3386H579.344C575.904 65.3386 573.116 68.1262 573.116 71.5648C573.116 75.0034 575.904 77.791 579.344 77.791H683.271C686.711 77.791 689.499 75.0034 689.499 71.5648C689.499 68.1262 686.711 65.3386 683.271 65.3386Z" fill="#E1F4FD"/>
<path d="M730.371 65.3386H704.681C701.241 65.3386 698.453 68.1262 698.453 71.5648C698.453 75.0034 701.241 77.791 704.681 77.791H730.371C733.811 77.791 736.599 75.0034 736.599 71.5648C736.599 68.1262 733.811 65.3386 730.371 65.3386Z" fill="#E1F4FD"/>
<path d="M626.444 37.0596H730.372C733.797 37.0596 736.6 39.8613 736.6 43.2858C736.6 46.7102 733.797 49.5119 730.372 49.5119H626.444C623.019 49.5119 620.217 46.7102 620.217 43.2858C620.217 39.8613 623.019 37.0596 626.444 37.0596Z" fill="#E1F4FD"/>
<path d="M579.346 37.0596H605.036C608.462 37.0596 611.264 39.8613 611.264 43.2858C611.264 46.7102 608.462 49.5119 605.036 49.5119H579.346C575.921 49.5119 573.118 46.7102 573.118 43.2858C573.118 39.8613 575.921 37.0596 579.346 37.0596Z" fill="#E1F4FD"/>
<path d="M648.63 103.644H579.346C575.921 103.644 573.118 100.842 573.118 97.4173C573.118 93.9929 575.921 91.1912 579.346 91.1912H648.63C652.056 91.1912 654.858 93.9929 654.858 97.4173C654.858 100.842 652.056 103.644 648.63 103.644Z" fill="#E1F4FD"/>
<path d="M458.873 491.12C461.227 490.718 463.586 490.329 465.95 489.958C477.438 488.156 488.879 486.018 500.255 483.544C522.786 478.646 545.449 474.44 568.384 472.268C570.814 472.038 573.248 471.831 575.681 471.647C585.964 470.87 596.738 470.618 606.152 475.532C615.564 480.447 623.05 492.077 620.751 503.287C619.136 511.163 613.112 517.092 606.419 520.08C599.725 523.067 592.355 523.588 585.127 524.075C561.71 525.651 538.293 527.226 514.874 528.803C503.279 529.577 491.686 530.377 480.093 531.183C469.021 531.953 457.783 533.516 446.682 533.504C441.986 533.499 436.742 532.619 432.797 529.486C427.312 525.131 424.01 515.861 423.479 508.616C423.204 504.853 423.939 500.285 426.821 497.957C428.364 496.71 430.325 496.33 432.213 495.982C441.112 494.344 449.969 492.637 458.873 491.116V491.12Z" fill="#FFC73C"/>
<path d="M432.601 526.794C426.938 527.962 422.513 532.935 416.877 534.599C412.855 535.788 408.551 535.152 404.686 533.703C401.133 532.37 397.518 531.658 393.871 530.491C391.028 529.58 387.189 527.665 384.136 528.299C376.131 529.965 368.148 535.66 360.891 539.357C359.26 540.188 357.473 541.044 355.673 540.703C353.874 540.361 352.374 538.181 353.397 536.663C351.31 538.613 348.546 542.513 345.177 541C343.8 540.382 342.969 538.558 343.732 537.255C342.576 538.525 341.359 539.835 339.762 540.466C338.163 541.097 336.068 540.824 335.126 539.386C334.683 538.71 334.55 537.878 334.51 537.069C334.372 534.292 335.21 531.547 336.369 529.02C342.084 516.552 355.007 507.3 366.004 499.872C367.949 498.559 369.931 497.226 372.177 496.54C374.186 495.927 376.317 495.859 378.418 495.849C392.054 495.786 405.699 497.991 418.622 502.344C421.418 503.286 424.497 502.483 427.284 501.962C429.349 501.576 431.504 501.192 433.52 501.781C435.776 502.44 437.525 504.227 438.898 506.133C441.426 509.638 443.356 514.277 443.055 518.68C442.827 522.024 442.573 525.631 438.638 526.332C437.043 526.616 435.402 526.44 433.79 526.608C433.388 526.65 432.991 526.713 432.601 526.794Z" fill="#F8A17A"/>
</svg>
