<svg width="20" height="20" viewBox="0 0 20 20" fill="none" xmlns="http://www.w3.org/2000/svg">
<path d="M7.47045 15.0001C7.26826 16.4135 6.05268 17.5001 4.58331 17.5001C3.11395 17.5001 1.89836 16.4135 1.69618 15.0001H0.833313V5.00008C0.833313 4.53985 1.20641 4.16675 1.66665 4.16675H13.3333C13.7936 4.16675 14.1666 4.53985 14.1666 5.00008V6.66675H16.6666L19.1666 10.0465V15.0001H17.4705C17.2682 16.4135 16.0526 17.5001 14.5833 17.5001C13.114 17.5001 11.8984 16.4135 11.6961 15.0001H7.47045ZM12.5 5.83341H2.49998V12.5422C3.02936 12.0019 3.7672 11.6667 4.58331 11.6667C5.74681 11.6667 6.75119 12.348 7.2193 13.3334H11.9473C12.0871 13.0392 12.2746 12.7721 12.5 12.5422V5.83341ZM14.1666 10.8334H17.5V10.5959L15.8264 8.33341H14.1666V10.8334ZM14.5833 15.8334C15.1276 15.8334 15.5906 15.4856 15.7621 15.0001C15.8082 14.8697 15.8333 14.7295 15.8333 14.5834C15.8333 13.8931 15.2736 13.3334 14.5833 13.3334C13.893 13.3334 13.3333 13.8931 13.3333 14.5834C13.3333 14.7295 13.3584 14.8697 13.4045 15.0001C13.5761 15.4856 14.0391 15.8334 14.5833 15.8334ZM5.83331 14.5834C5.83331 13.8931 5.27367 13.3334 4.58331 13.3334C3.89295 13.3334 3.33331 13.8931 3.33331 14.5834C3.33331 14.7295 3.35838 14.8697 3.40444 15.0001C3.57604 15.4856 4.03905 15.8334 4.58331 15.8334C5.12757 15.8334 5.59059 15.4856 5.76219 15.0001C5.80825 14.8697 5.83331 14.7295 5.83331 14.5834Z" fill="#3793E0"/>
</svg>
