<svg width="26" height="44" viewBox="0 0 26 44" fill="none" xmlns="http://www.w3.org/2000/svg">
<path fill-rule="evenodd" clip-rule="evenodd" d="M12.5752 0C9.97711 0 7.86093 2.11618 7.86093 4.71431V28.8675C5.6958 30.3716 4.25 32.8452 4.25 35.675C4.25 40.2639 7.98633 44.0002 12.5752 44.0002C17.1642 44.0002 20.9005 40.2639 20.9005 35.675C20.9005 32.8452 19.4547 30.3716 17.2896 28.8675V4.71431C17.2896 2.11618 15.1734 0 12.5752 0ZM12.5752 1.57144C14.33 1.57144 15.7181 2.95957 15.7181 4.71431V29.2373C15.7181 29.372 15.7527 29.5043 15.8185 29.6218C15.8843 29.7392 15.9792 29.8377 16.0941 29.9079C18.0342 31.0946 19.329 33.2278 19.329 35.675C19.329 39.4148 16.3151 42.4288 12.5752 42.4288C8.83542 42.4288 5.82144 39.4148 5.82144 35.675C5.82144 33.2278 7.11623 31.0946 9.05638 29.9079C9.17125 29.8377 9.26616 29.7392 9.33199 29.6218C9.39783 29.5043 9.43239 29.372 9.43237 29.2373V4.71431C9.43237 2.95957 10.8205 1.57144 12.5752 1.57144Z" fill="white"/>
<path fill-rule="evenodd" clip-rule="evenodd" d="M12.5706 3.92847C12.3623 3.92847 12.1624 4.01125 12.0151 4.1586C11.8677 4.30595 11.7849 4.5058 11.7849 4.71419V31.2644C11.79 31.2877 11.7961 31.3108 11.8033 31.3335C9.73998 31.6995 8.16016 33.5103 8.16016 35.6749C8.16016 38.1014 10.1441 40.0838 12.5706 40.0838C14.9971 40.0838 16.9811 38.1014 16.9811 35.6749C16.9811 33.5103 15.4013 31.6995 13.3379 31.3335C13.3451 31.3108 13.3513 31.2877 13.3564 31.2644V4.71419C13.3564 4.5058 13.2736 4.30595 13.1262 4.1586C12.9789 4.01125 12.779 3.92847 12.5706 3.92847ZM12.5706 32.8359C14.1479 32.8359 15.4097 34.0976 15.4097 35.6749C15.4097 37.2521 14.1479 38.5124 12.5706 38.5124C10.9934 38.5124 9.73162 37.2521 9.73162 35.6749C9.73162 34.0976 10.9934 32.8359 12.5706 32.8359Z" fill="white"/>
<path fill-rule="evenodd" clip-rule="evenodd" d="M3.14119 3.92847C2.9328 3.92847 2.73295 4.01125 2.5856 4.1586C2.43825 4.30595 2.35547 4.5058 2.35547 4.71419C2.35547 4.92257 2.43825 5.12242 2.5856 5.26977C2.73295 5.41712 2.9328 5.4999 3.14119 5.4999H4.71262C4.92101 5.4999 5.12086 5.41712 5.26821 5.26977C5.41556 5.12242 5.49834 4.92257 5.49834 4.71419C5.49834 4.5058 5.41556 4.30595 5.26821 4.1586C5.12086 4.01125 4.92101 3.92847 4.71262 3.92847H3.14119Z" fill="white"/>
<path fill-rule="evenodd" clip-rule="evenodd" d="M0.785719 7.07153C0.577333 7.07153 0.377482 7.15431 0.230131 7.30166C0.0827802 7.44902 0 7.64887 0 7.85725C0 8.06564 0.0827802 8.26549 0.230131 8.41284C0.377482 8.56019 0.577333 8.64297 0.785719 8.64297H4.71431C4.9227 8.64297 5.12255 8.56019 5.2699 8.41284C5.41725 8.26549 5.50003 8.06564 5.50003 7.85725C5.50003 7.64887 5.41725 7.44902 5.2699 7.30166C5.12255 7.15431 4.9227 7.07153 4.71431 7.07153H0.785719Z" fill="white"/>
<path fill-rule="evenodd" clip-rule="evenodd" d="M3.14119 10.2144C2.9328 10.2144 2.73295 10.2971 2.5856 10.4445C2.43825 10.5918 2.35547 10.7917 2.35547 11.0001C2.35547 11.2085 2.43825 11.4083 2.5856 11.5557C2.73295 11.703 2.9328 11.7858 3.14119 11.7858H4.71262C4.92101 11.7858 5.12086 11.703 5.26821 11.5557C5.41556 11.4083 5.49834 11.2085 5.49834 11.0001C5.49834 10.7917 5.41556 10.5918 5.26821 10.4445C5.12086 10.2971 4.92101 10.2144 4.71262 10.2144H3.14119Z" fill="white"/>
<path fill-rule="evenodd" clip-rule="evenodd" d="M0.785719 13.3572C0.577333 13.3572 0.377482 13.44 0.230131 13.5873C0.0827802 13.7347 0 13.9345 0 14.1429C0 14.3513 0.0827802 14.5511 0.230131 14.6985C0.377482 14.8458 0.577333 14.9286 0.785719 14.9286H4.71431C4.9227 14.9286 5.12255 14.8458 5.2699 14.6985C5.41725 14.5511 5.50003 14.3513 5.50003 14.1429C5.50003 13.9345 5.41725 13.7347 5.2699 13.5873C5.12255 13.44 4.9227 13.3572 4.71431 13.3572H0.785719Z" fill="white"/>
<path fill-rule="evenodd" clip-rule="evenodd" d="M3.14119 16.5C2.9328 16.5 2.73295 16.5828 2.5856 16.7301C2.43825 16.8775 2.35547 17.0773 2.35547 17.2857C2.35547 17.4941 2.43825 17.694 2.5856 17.8413C2.73295 17.9887 2.9328 18.0714 3.14119 18.0714H4.71262C4.92101 18.0714 5.12086 17.9887 5.26821 17.8413C5.41556 17.694 5.49834 17.4941 5.49834 17.2857C5.49834 17.0773 5.41556 16.8775 5.26821 16.7301C5.12086 16.5828 4.92101 16.5 4.71262 16.5H3.14119Z" fill="white"/>
<path fill-rule="evenodd" clip-rule="evenodd" d="M0.785719 19.6428C0.577333 19.6428 0.377482 19.7256 0.230131 19.873C0.0827802 20.0203 0 20.2202 0 20.4285C0 20.6369 0.0827802 20.8368 0.230131 20.9841C0.377482 21.1315 0.577333 21.2143 0.785719 21.2143H4.71431C4.9227 21.2143 5.12255 21.1315 5.2699 20.9841C5.41725 20.8368 5.50003 20.6369 5.50003 20.4285C5.50003 20.2202 5.41725 20.0203 5.2699 19.873C5.12255 19.7256 4.9227 19.6428 4.71431 19.6428H0.785719Z" fill="white"/>
<path fill-rule="evenodd" clip-rule="evenodd" d="M3.14119 22.7856C2.9328 22.7856 2.73295 22.8684 2.5856 23.0158C2.43825 23.1631 2.35547 23.363 2.35547 23.5714C2.35547 23.7797 2.43825 23.9796 2.5856 24.127C2.73295 24.2743 2.9328 24.3571 3.14119 24.3571H4.71262C4.92101 24.3571 5.12086 24.2743 5.26821 24.127C5.41556 23.9796 5.49834 23.7797 5.49834 23.5714C5.49834 23.363 5.41556 23.1631 5.26821 23.0158C5.12086 22.8684 4.92101 22.7856 4.71262 22.7856H3.14119Z" fill="white"/>
<path fill-rule="evenodd" clip-rule="evenodd" d="M0.785719 25.9287C0.577333 25.9287 0.377482 26.0115 0.230131 26.1588C0.0827802 26.3062 0 26.506 0 26.7144C0 26.9228 0.0827802 27.1227 0.230131 27.27C0.377482 27.4174 0.577333 27.5001 0.785719 27.5001H4.71431C4.9227 27.5001 5.12255 27.4174 5.2699 27.27C5.41725 27.1227 5.50003 26.9228 5.50003 26.7144C5.50003 26.506 5.41725 26.3062 5.2699 26.1588C5.12255 26.0115 4.9227 25.9287 4.71431 25.9287H0.785719Z" fill="white"/>
<path fill-rule="evenodd" clip-rule="evenodd" d="M21.9982 18.4644C21.5643 18.4644 21.2125 18.8161 21.2125 19.2501V24.8176L20.1966 23.8017C20.0493 23.6544 19.8494 23.5716 19.6411 23.5715C19.4327 23.5716 19.2329 23.6544 19.0855 23.8017C18.9382 23.9491 18.8555 24.1489 18.8555 24.3572C18.8555 24.5656 18.9382 24.7654 19.0855 24.9128L21.4427 27.2699C21.5901 27.4172 21.7899 27.5 21.9982 27.5C22.2066 27.5 22.4064 27.4172 22.5538 27.2699L24.9109 24.9128C25.0582 24.7654 25.141 24.5656 25.141 24.3572C25.141 24.1489 25.0582 23.9491 24.9109 23.8017C24.7636 23.6544 24.5637 23.5716 24.3554 23.5716C24.147 23.5716 23.9472 23.6544 23.7999 23.8017L22.7839 24.8176V19.2501C22.7839 18.8161 22.4322 18.4644 21.9982 18.4644Z" fill="white"/>
<path fill-rule="evenodd" clip-rule="evenodd" d="M21.9982 12.1785C21.5643 12.1785 21.2125 11.8267 21.2125 11.3927V5.82519L20.1966 6.8411C20.0493 6.98846 19.8494 7.07126 19.6411 7.0713C19.4327 7.07126 19.2329 6.98846 19.0855 6.8411C18.9382 6.69376 18.8555 6.49393 18.8555 6.28558C18.8555 6.07722 18.9382 5.8774 19.0855 5.73005L21.4427 3.37289C21.5901 3.2256 21.7899 3.14286 21.9982 3.14286C22.2066 3.14286 22.4064 3.2256 22.5538 3.37289L24.9109 5.73005C25.0582 5.8774 25.141 6.07722 25.141 6.28558C25.141 6.49393 25.0582 6.69376 24.9109 6.8411C24.7636 6.98842 24.5637 7.07118 24.3554 7.07118C24.147 7.07118 23.9472 6.98842 23.7999 6.8411L22.7839 5.82519V11.3927C22.7839 11.8267 22.4322 12.1785 21.9982 12.1785Z" fill="white"/>
</svg>
