<svg width="44" height="35" viewBox="0 0 44 35" fill="none" xmlns="http://www.w3.org/2000/svg">
<path d="M29.1144 34.7831L30.355 33.5485L30.3551 33.5484C30.431 33.4729 30.4735 33.3705 30.4735 33.2638V31.9865C30.4735 31.7644 30.2941 31.585 30.072 31.585C29.8499 31.585 29.6705 31.7644 29.6705 31.9865V33.0552V33.0967L29.6411 33.126L28.6948 34.0678L28.6655 34.097H28.6242H5.64156H5.60026L5.571 34.0678L4.62519 33.126L4.59575 33.0967V33.0552V19.6168C4.59575 19.3948 4.41592 19.2153 4.19426 19.2153H1.00279H0.902793V19.1153V17.83V17.7817L0.940659 17.7516L7.23157 12.763C7.2316 12.763 7.23162 12.763 7.23165 12.763C7.32733 12.6866 7.38352 12.5704 7.38352 12.448V7.12022V7.02111L7.48263 7.02022L9.67313 7.00066L9.77402 6.99976V7.10066V9.91501C9.77402 10.0686 9.86227 10.2092 10.0008 10.2763C10.1398 10.3434 10.3049 10.3249 10.4253 10.2293L10.4253 10.2293L16.7255 5.232L16.7528 5.21035H16.7876H17.4782H17.513L17.5403 5.232L24.7276 10.9319L24.7278 10.932C24.9005 11.0695 25.1535 11.0404 25.2913 10.8668L25.2913 10.8668C25.4294 10.693 25.4001 10.4405 25.2263 10.3028L25.2262 10.3028L17.9031 4.49413C17.832 4.43792 17.7441 4.40737 17.6532 4.40737H16.6126C16.5218 4.40737 16.4339 4.43789 16.3628 4.49404C16.3628 4.49407 16.3628 4.4941 16.3627 4.49413L10.7386 8.95528L10.5765 9.08389V8.87693V6.59466C10.5765 6.48783 10.5339 6.38508 10.4577 6.30969C10.3802 6.23303 10.2768 6.19001 10.1735 6.19313L10.1714 6.19319V6.19317L6.97793 6.22125C6.75748 6.22326 6.58004 6.40231 6.58004 6.62274V12.2048V12.2531L6.54219 12.2832L0.251568 17.2729L29.1144 34.7831ZM29.1144 34.7831C29.0389 34.8582 28.9374 34.8999 28.8309 34.8999H5.43444C5.3279 34.8999 5.22641 34.8582 5.15094 34.7831C5.15093 34.7831 5.15092 34.7831 5.15091 34.7831L3.91092 33.5486M29.1144 34.7831L3.91092 33.5486M3.91092 33.5486C3.83533 33.473 3.79277 33.3706 3.79277 33.2638V20.1183V20.0183M3.91092 33.5486L3.79277 20.0183M3.79277 20.0183H3.69277M3.79277 20.0183H3.69277M3.69277 20.0183H0.501305M3.69277 20.0183H0.501305M0.501305 20.0183C0.279647 20.0183 0.0998169 19.8388 0.0998169 19.6168M0.501305 20.0183L0.0998169 19.6168M0.0998169 19.6168V17.5873M0.0998169 19.6168V17.5873M0.0998169 17.5873C0.0998169 17.4644 0.156008 17.3488 0.251524 17.273L0.0998169 17.5873Z" fill="white" stroke="white" stroke-width="0.2"/>
<path d="M30.0677 32.388C29.8456 32.388 29.6662 32.2086 29.6662 31.9865V23.3574C29.6662 23.1354 29.8456 22.956 30.0677 22.956C30.2898 22.956 30.4692 23.1354 30.4692 23.3574V31.9865C30.4692 32.2086 30.2898 32.388 30.0677 32.388Z" fill="white" stroke="white" stroke-width="0.2"/>
<path d="M27.1187 17.4837V17.4356L27.0812 17.4056C25.3542 16.0224 24.3695 13.9775 24.3695 11.7547C24.3695 7.76087 27.6185 4.51187 31.6123 4.51187C35.6061 4.51187 38.8556 7.76088 38.8556 11.7547C38.8556 13.9775 37.8709 16.0224 36.1439 17.4056L36.1064 17.4356V17.4837L36.1064 21.5719C36.1064 21.572 36.1064 21.5721 36.1064 21.5722C36.1055 21.7945 35.9259 21.9738 35.704 21.9738H27.5202C27.2981 21.9738 27.1187 21.7944 27.1187 21.5723V17.4837ZM35.2025 21.1708H35.3025V21.0708V17.2374C35.3025 17.1109 35.3619 16.9917 35.4634 16.9158L35.4634 16.9158C37.108 15.6864 38.0516 13.8047 38.0516 11.7541C38.0516 8.20304 35.1624 5.31434 31.6113 5.31434C28.0602 5.31434 25.1715 8.20305 25.1715 11.7541C25.1715 13.8047 26.1152 15.6864 27.7597 16.9158L27.7599 16.916C27.8611 16.9912 27.9207 17.1102 27.9207 17.2374V21.0708V21.1708H28.0207H28.0217H35.2025Z" fill="white" stroke="white" stroke-width="0.2"/>
<path d="M30.4692 22.8559V22.9559H30.5692H32.6484H32.7484V22.8559V22.073V21.973H32.6484H30.5692H30.4692V22.073V22.8559ZM33.1499 23.7588H30.0677C29.8456 23.7588 29.6662 23.5795 29.6662 23.3574V21.5716C29.6662 21.3495 29.8456 21.1701 30.0677 21.1701H33.1499C33.372 21.1701 33.5513 21.3495 33.5513 21.5716V23.3574C33.5513 23.5795 33.372 23.7588 33.1499 23.7588Z" fill="white" stroke="white" stroke-width="0.2"/>
<path d="M35.7048 20.537H27.521C27.2989 20.537 27.1195 20.3576 27.1195 20.1355C27.1195 19.9134 27.2989 19.734 27.521 19.734H35.7048C35.9269 19.734 36.1063 19.9134 36.1063 20.1355C36.1063 20.3576 35.9269 20.537 35.7048 20.537Z" fill="white" stroke="white" stroke-width="0.2"/>
<path d="M35.7048 19.0995H27.521C27.2989 19.0995 27.1195 18.9201 27.1195 18.698C27.1195 18.4759 27.2989 18.2965 27.521 18.2965H35.7048C35.9269 18.2965 36.1063 18.4759 36.1063 18.698C36.1063 18.9201 35.9269 19.0995 35.7048 19.0995Z" fill="white" stroke="white" stroke-width="0.2"/>
<path d="M35.7048 17.663H27.521C27.2989 17.663 27.1195 17.4836 27.1195 17.2615C27.1195 17.0394 27.2989 16.86 27.521 16.86H35.7048C35.9269 16.86 36.1063 17.0394 36.1063 17.2615C36.1063 17.4836 35.9269 17.663 35.7048 17.663Z" fill="white" stroke="white" stroke-width="0.2"/>
<path d="M31.0023 0.707098C31.0023 0.371667 31.274 0.1 31.6094 0.1C31.9449 0.1 32.2165 0.371668 32.2165 0.707098V3.03701C32.2165 3.37244 31.9449 3.64411 31.6094 3.64411C31.274 3.64411 31.0023 3.37244 31.0023 3.03701V0.707098Z" fill="white" stroke="white" stroke-width="0.2"/>
<path d="M22.8287 4.09022C22.5915 3.85295 22.5915 3.46894 22.8287 3.23168C23.0655 2.99495 23.45 2.99485 23.6873 3.23174L25.3347 4.87906C25.5719 5.11633 25.5719 5.50034 25.3347 5.73761C25.0974 5.97488 24.7134 5.97488 24.4761 5.73761L22.8287 4.09022Z" fill="white" stroke="white" stroke-width="0.2"/>
<path d="M39.5386 3.23181C39.7759 2.99454 40.1599 2.99454 40.3972 3.23181C40.6344 3.46908 40.6344 3.85309 40.3972 4.09035L38.7498 5.73774C38.5125 5.97501 38.1285 5.97501 37.8912 5.73774C37.654 5.50047 37.654 5.11646 37.8912 4.8792L39.5386 3.23181Z" fill="white" stroke="white" stroke-width="0.2"/>
<path d="M42.9862 10.7963C43.3217 10.7963 43.5933 11.068 43.5933 11.4034C43.5933 11.7382 43.3213 12.01 42.9862 12.0105C42.9862 12.0105 42.9861 12.0105 42.9861 12.0105L40.6563 12.0105C40.3209 12.0105 40.0492 11.7388 40.0492 11.4034C40.0492 11.068 40.3209 10.7963 40.6563 10.7963H42.9862Z" fill="white" stroke="white" stroke-width="0.2"/>
<path d="M22.7206 10.7963C23.056 10.7963 23.3277 11.068 23.3277 11.4034C23.3277 11.7382 23.0561 12.01 22.7206 12.0105C22.7205 12.0105 22.7205 12.0105 22.7205 12.0105L20.3907 12.0105C20.0553 12.0105 19.7836 11.7388 19.7836 11.4034C19.7836 11.068 20.0553 10.7963 20.3907 10.7963H22.7206Z" fill="white" stroke="white" stroke-width="0.2"/>
<path d="M9.57485 33.9968V34.0968H9.67485H15.5628H15.6628V33.9968V22.9661V22.8661H15.5628H9.67485H9.57485V22.9661V33.9968ZM16.0638 34.8998H9.17336C8.95171 34.8998 8.77188 34.7204 8.77188 34.4983V22.4646C8.77188 22.2426 8.9517 22.0631 9.17336 22.0631H16.0643C16.286 22.0631 16.4658 22.2426 16.4658 22.4646V34.4981C16.4654 34.7204 16.2859 34.8998 16.0638 34.8998Z" fill="white" stroke="white" stroke-width="0.2"/>
<path d="M14.4195 30.4208C14.1979 30.4208 14.018 30.2413 14.018 30.0193V29.0003C14.018 28.7782 14.1979 28.5988 14.4195 28.5988C14.6412 28.5988 14.821 28.7782 14.821 29.0003V30.0193C14.821 30.2409 14.6415 30.4208 14.4195 30.4208Z" fill="white" stroke="white" stroke-width="0.2"/>
</svg>
