<svg width="16" height="18" viewBox="0 0 16 18" fill="none" xmlns="http://www.w3.org/2000/svg">
<path d="M11.3333 5.87122V11.9167C11.3333 14.9083 8.90825 17.3334 5.91667 17.3334C2.92512 17.3334 0.5 14.9083 0.5 11.9167C0.5 8.92516 2.92512 6.50008 5.91667 6.50008C6.34692 6.50008 6.76542 6.55024 7.16667 6.64502V9.28075C6.78783 9.10075 6.364 9.00008 5.91667 9.00008C4.30583 9.00008 3 10.3059 3 11.9167C3 13.5276 4.30583 14.8334 5.91667 14.8334C7.5275 14.8334 8.83333 13.5276 8.83333 11.9167V0.666748H11.3333C11.3333 2.96793 13.1988 4.83341 15.5 4.83341V7.33341C13.9234 7.33341 12.4747 6.78615 11.3333 5.87122Z" fill="white"/>
</svg>
