<svg width="45" height="38" viewBox="0 0 45 38" fill="none" xmlns="http://www.w3.org/2000/svg">
<path d="M44.1679 21.638L22.7634 0.232964C22.4528 -0.0776545 21.9497 -0.0776545 21.6391 0.232964L0.232964 21.638C-0.0776545 21.9487 -0.0776545 22.4517 0.232964 22.7623C0.388273 22.9176 0.591817 22.995 0.795362 22.995C0.998907 22.995 1.20245 22.9176 1.35776 22.7623L5.17688 18.9432V36.2164C5.17688 36.6553 5.53308 37.0115 5.97198 37.0115H38.431C38.8699 37.0115 39.2261 36.6553 39.2261 36.2164V18.9443L43.0442 22.7623C43.3548 23.0729 43.8578 23.0729 44.1684 22.7623C44.4791 22.4517 44.4785 21.9487 44.1679 21.638ZM37.6354 17.5046V35.4213H6.76654V17.5046C6.76654 17.4574 6.76071 17.4118 6.75276 17.3668L22.201 1.91963L37.6497 17.3684C37.6418 17.4129 37.6354 17.4579 37.6354 17.5046Z" fill="white"/>
<path d="M25.4677 24.3445C24.5565 23.666 23.4752 23.3071 22.3403 23.3071C21.0926 23.3071 19.884 23.754 18.9373 24.5655C18.6039 24.8512 18.5658 25.3532 18.8515 25.6866C19.0089 25.87 19.2315 25.9638 19.4557 25.9638C19.6391 25.9638 19.8225 25.9007 19.9731 25.7725C20.6314 25.2085 21.4721 24.8973 22.3409 24.8973C23.1307 24.8973 23.8839 25.1475 24.5178 25.6198C24.8703 25.8822 25.3681 25.809 25.631 25.4571C25.8928 25.1051 25.8197 24.6068 25.4677 24.3445Z" fill="white"/>
<path d="M14.9493 19.3967C15.1067 19.5801 15.3293 19.6739 15.5535 19.6739C15.7369 19.6739 15.9203 19.6108 16.0709 19.4826C17.8625 17.947 20.1476 17.101 22.5074 17.101C24.6606 17.101 26.7061 17.78 28.4246 19.0654C28.7765 19.3278 29.2743 19.2562 29.5377 18.9048C29.8006 18.5534 29.7285 18.0546 29.3771 17.7917C27.3814 16.2995 25.0062 15.5103 22.5074 15.5103C19.7686 15.5103 17.1151 16.4925 15.0357 18.2751C14.7017 18.5608 14.663 19.0633 14.9493 19.3967Z" fill="white"/>
<path d="M27.5069 21.0789C26.0312 19.9764 24.2735 19.3933 22.4257 19.3933C20.4014 19.3933 18.4391 20.1184 16.8993 21.4362C16.5659 21.7219 16.5266 22.2233 16.8123 22.5573C16.9698 22.7412 17.1924 22.835 17.4171 22.835C17.6 22.835 17.7834 22.7725 17.934 22.6442C19.1849 21.5729 20.7804 20.9835 22.4263 20.9835C23.9285 20.9835 25.3565 21.4574 26.556 22.3532C26.9085 22.6161 27.4062 22.544 27.6691 22.1915C27.931 21.8401 27.8589 21.3418 27.5069 21.0789Z" fill="white"/>
<path d="M22.2166 30.0986C23.1768 30.0986 23.9552 29.3202 23.9552 28.3599C23.9552 27.3997 23.1768 26.6213 22.2166 26.6213C21.2564 26.6213 20.478 27.3997 20.478 28.3599C20.478 29.3202 21.2564 30.0986 22.2166 30.0986Z" fill="white"/>
</svg>
