<svg width="27" height="39" viewBox="0 0 27 39" fill="none" xmlns="http://www.w3.org/2000/svg">
<path d="M24.3748 9.70042H23.3517V3.8929C23.3498 2.85977 22.938 1.86961 22.2068 1.13976C21.4756 0.409911 20.4847 0 19.4515 0C18.4184 0 17.4275 0.409911 16.6963 1.13976C15.965 1.86961 15.5533 2.85977 15.5513 3.8929V9.70042H11.252V3.8929C11.25 2.85977 10.8382 1.86961 10.107 1.13976C9.37581 0.409911 8.38488 0 7.35175 0C6.31861 0 5.32768 0.409911 4.59646 1.13976C3.86524 1.86961 3.45348 2.85977 3.45154 3.8929V9.70042H2.42851C1.78465 9.70113 1.16736 9.95722 0.712084 10.4125C0.256804 10.8678 0.000714035 11.4851 0 12.1289V21.6488C0.0033523 23.8834 0.783342 26.0474 2.20645 27.7703C3.62955 29.4933 5.60728 30.668 7.80108 31.0933V35.8916C7.80172 36.5355 8.05778 37.1528 8.51306 37.6082C8.96835 38.0635 9.58568 38.3197 10.2296 38.3204H16.5737C17.2176 38.3197 17.8349 38.0635 18.2902 37.6082C18.7455 37.1528 19.0016 36.5355 19.0022 35.8916V31.0933C21.196 30.668 23.1737 29.4933 24.5968 27.7703C26.02 26.0474 26.7999 23.8834 26.8033 21.6488V12.1289C26.8026 11.4851 26.5465 10.8678 26.0912 10.4125C25.6359 9.95722 25.0186 9.70113 24.3748 9.70042ZM16.9207 3.8929C16.9223 3.22271 17.1896 2.5805 17.6641 2.10715C18.1385 1.6338 18.7813 1.36796 19.4515 1.36796C20.1217 1.36796 20.7646 1.6338 21.239 2.10715C21.7135 2.5805 21.9808 3.22271 21.9824 3.8929V9.70042H16.9207V3.8929ZM4.82092 3.8929C4.82248 3.22271 5.08981 2.5805 5.56426 2.10715C6.03871 1.6338 6.68155 1.36796 7.35175 1.36796C8.02194 1.36796 8.66478 1.6338 9.13923 2.10715C9.61368 2.5805 9.88101 3.22271 9.88257 3.8929V9.70042H4.82092V3.8929ZM17.6328 35.8916C17.6325 36.1724 17.5208 36.4416 17.3223 36.6402C17.1237 36.8388 16.8545 36.9506 16.5737 36.951H10.2296C9.94877 36.9506 9.67958 36.8388 9.48103 36.6402C9.28249 36.4416 9.1708 36.1724 9.17046 35.8916V31.2486C9.32153 31.2557 9.47035 31.2716 9.62314 31.2716H17.1802C17.3329 31.2716 17.4818 31.2557 17.6328 31.2486V35.8916ZM25.4339 21.6488C25.4304 23.6154 24.7253 25.5163 23.4453 27.0094C22.1654 28.5025 20.3946 29.4899 18.4516 29.7939H8.35166C6.40866 29.4899 4.63791 28.5025 3.35796 27.0094C2.078 25.5163 1.37286 23.6154 1.36938 21.6488V12.1289C1.36974 11.8481 1.48144 11.579 1.67999 11.3804C1.87854 11.1819 2.14772 11.0702 2.42851 11.0698H24.3748C24.6556 11.0702 24.9248 11.1819 25.1233 11.3804C25.3218 11.579 25.4335 11.8481 25.4339 12.1289V21.6488Z" fill="white"/>
<path d="M17.5184 20.1525L15.1742 18.6715V14.1431C15.1742 14.0003 15.1297 13.8611 15.0467 13.7449C14.9637 13.6287 14.8465 13.5414 14.7114 13.4951C14.5763 13.4489 14.4301 13.4461 14.2934 13.487C14.1566 13.528 14.036 13.6106 13.9486 13.7235L9.11225 19.961C9.05121 20.0398 9.00809 20.1309 8.98592 20.2281C8.96374 20.3253 8.96304 20.4261 8.98386 20.5236C9.00468 20.6211 9.04652 20.7128 9.10646 20.7924C9.16639 20.8721 9.24299 20.9377 9.33089 20.9847L12.1225 22.4737V26.8286C12.1225 26.9737 12.1686 27.1151 12.2542 27.2323C12.3398 27.3496 12.4604 27.4366 12.5986 27.4809C12.666 27.5023 12.7364 27.5132 12.8072 27.5133C12.9163 27.5133 13.0238 27.4872 13.1208 27.4373C13.2178 27.3873 13.3015 27.3149 13.3648 27.2261L17.7103 21.1288C17.7644 21.0529 17.8025 20.9669 17.8221 20.8758C17.8418 20.7848 17.8427 20.6907 17.8247 20.5993C17.8067 20.5079 17.7703 20.4212 17.7176 20.3443C17.665 20.2675 17.5972 20.2022 17.5184 20.1525ZM13.4919 24.6883V22.0628C13.4919 21.9388 13.4582 21.817 13.3944 21.7106C13.3305 21.6042 13.239 21.5171 13.1295 21.4587L10.6916 20.1586L13.8048 16.1437V19.0489C13.8047 19.1645 13.834 19.2782 13.8897 19.3794C13.9455 19.4806 14.026 19.566 14.1237 19.6277L16.1751 20.9235L13.4919 24.6883Z" fill="white"/>
</svg>
 