<svg width="57" height="57" viewBox="0 0 57 57" fill="none" xmlns="http://www.w3.org/2000/svg">
<path d="M28.5039 21.375C24.5676 21.375 21.3788 24.5649 21.3788 28.5C21.3788 32.4361 24.5688 35.625 28.5039 35.625C32.44 35.625 35.6289 32.4351 35.6289 28.5C35.6289 24.5639 32.439 21.375 28.5039 21.375ZM28.5039 16.625C35.0598 16.625 40.3789 21.9381 40.3789 28.5C40.3789 35.0562 35.0658 40.375 28.5039 40.375C21.9477 40.375 16.6288 35.0619 16.6288 28.5C16.6288 21.9439 21.942 16.625 28.5039 16.625ZM43.9414 16.0292C43.9414 17.6682 42.6095 18.998 40.9726 18.998C39.3336 18.998 38.0039 17.6662 38.0039 16.0292C38.0039 14.3923 39.3355 13.0625 40.9726 13.0625C42.6073 13.0604 43.9414 14.3923 43.9414 16.0292ZM28.5039 9.5C22.627 9.5 21.6691 9.51556 18.9357 9.63728C17.0734 9.7247 15.825 9.97517 14.6651 10.4255C13.6344 10.8252 12.8909 11.3026 12.0986 12.0948C11.3034 12.8901 10.8269 13.6316 10.4287 14.6628C9.97737 15.8254 9.72698 17.0718 9.64112 18.9315C9.51821 21.5536 9.50384 22.47 9.50384 28.5C9.50384 34.3769 9.5194 35.3348 9.6411 38.0679C9.72857 39.9295 9.97937 41.1797 10.4286 42.3368C10.8294 43.3689 11.3077 44.1142 12.0961 44.9027C12.8945 45.7 13.6383 46.1781 14.6597 46.5723C15.8337 47.0262 17.0813 47.277 18.9353 47.3627C21.5574 47.4855 22.4738 47.5 28.5039 47.5C34.3808 47.5 35.3387 47.4843 38.0718 47.3627C39.9293 47.2756 41.1805 47.0241 42.3406 46.5752C43.37 46.1755 44.1176 45.6955 44.9066 44.9077C45.7051 44.108 46.1822 43.3661 46.5769 42.3422C47.0296 41.1725 47.2809 39.9233 47.3666 38.0686C47.4894 35.4464 47.5039 34.5299 47.5039 28.5C47.5039 22.6231 47.4882 21.6653 47.3666 18.932C47.2792 17.074 47.0277 15.821 46.5784 14.6613C46.1796 13.6334 45.7006 12.8876 44.909 12.0948C44.1124 11.2982 43.3728 10.8227 42.3409 10.4249C41.1793 9.97391 39.931 9.72316 38.0723 9.6373C35.4503 9.51437 34.5338 9.5 28.5039 9.5ZM28.5039 4.75C34.9558 4.75 35.7614 4.77375 38.2948 4.8925C40.8221 5.00928 42.5461 5.40906 44.0601 5.99688C45.6255 6.60053 46.9477 7.41594 48.2677 8.73603C49.5858 10.0562 50.4014 11.3822 51.007 12.9438C51.5927 14.4558 51.9926 16.1817 52.1114 18.7091C52.2242 21.2424 52.2539 22.0479 52.2539 28.5C52.2539 34.9522 52.2301 35.7575 52.1114 38.2909C51.9945 40.8184 51.5927 42.5422 51.007 44.0563C50.4033 45.6219 49.5858 46.9438 48.2677 48.264C46.9477 49.5822 45.6196 50.3975 44.0601 51.0031C42.5461 51.589 40.8221 51.9888 38.2948 52.1075C35.7614 52.2203 34.9558 52.25 28.5039 52.25C22.0518 52.25 21.2462 52.2263 18.7129 52.1075C16.1855 51.9907 14.4636 51.589 12.9476 51.0031C11.384 50.3994 10.06 49.5822 8.73988 48.264C7.41978 46.9438 6.60635 45.6159 6.00072 44.0563C5.41291 42.5422 5.0151 40.8184 4.89635 38.2909C4.78353 35.7575 4.75385 34.9522 4.75385 28.5C4.75385 22.0479 4.7776 21.2424 4.89635 18.7091C5.0131 16.1797 5.41291 14.4578 6.00072 12.9438C6.60435 11.3802 7.41978 10.0562 8.73988 8.73603C10.06 7.41594 11.386 6.6025 12.9476 5.99688C14.4617 5.40906 16.1835 5.01125 18.7129 4.8925C21.2462 4.77969 22.0518 4.75 28.5039 4.75Z" fill="white"/>
</svg>
