<svg width="44" height="35" viewBox="0 0 44 35" fill="none" xmlns="http://www.w3.org/2000/svg">
<path d="M28.831 34.9999H5.43462C5.30173 34.9999 5.17485 34.9478 5.08057 34.854L3.84039 33.6193C3.74611 33.5251 3.69296 33.3972 3.69296 33.2638V20.1183H0.501488C0.224667 20.1183 0 19.8941 0 19.6168V17.5873C0 17.4338 0.0702084 17.2894 0.189563 17.1946L6.48023 12.2048V6.62274C6.48023 6.34743 6.70189 6.12376 6.9772 6.12125L10.1707 6.09317C10.3036 6.08916 10.433 6.14432 10.5282 6.2386C10.6235 6.33288 10.6767 6.46126 10.6767 6.59466V8.87693L16.3009 4.41569C16.3896 4.34549 16.4995 4.30737 16.6128 4.30737H17.6534C17.7667 4.30737 17.8765 4.34549 17.9653 4.41569L25.2885 10.2244C25.5057 10.3964 25.5423 10.7119 25.3698 10.929C25.1978 11.1457 24.8818 11.1823 24.6657 11.0103L17.4784 5.31035H16.7878L10.4876 10.3077C10.3372 10.427 10.1311 10.4501 9.95754 10.3664C9.78453 10.2826 9.6742 10.1071 9.6742 9.91501V7.10066L7.4837 7.12022V12.448C7.4837 12.601 7.4135 12.7459 7.29414 12.8412L1.00298 17.83V19.1153H4.19445C4.47127 19.1153 4.69593 19.3395 4.69593 19.6168V33.0552L5.64174 33.997H28.6244L29.5707 33.0552V31.9865C29.5707 31.7092 29.7949 31.485 30.0722 31.485C30.3495 31.485 30.5737 31.7092 30.5737 31.9865V33.2638C30.5737 33.3972 30.5206 33.5251 30.4258 33.6193L29.1851 34.854C29.0908 34.9478 28.9639 34.9999 28.831 34.9999Z" fill="white"/>
<path fill-rule="evenodd" clip-rule="evenodd" d="M6.48023 12.2048L0.189563 17.1946C0.0702084 17.2894 0 17.4338 0 17.5873V19.6168C0 19.8941 0.224667 20.1183 0.501488 20.1183H3.69296V33.2638C3.69296 33.3972 3.74611 33.5251 3.84039 33.6193L5.08057 34.854C5.17485 34.9478 5.30173 34.9999 5.43462 34.9999H28.831C28.9639 34.9999 29.0908 34.9478 29.1851 34.854L30.4258 33.6193C30.5206 33.5251 30.5737 33.3972 30.5737 33.2638V31.9865C30.5737 31.7092 30.3495 31.485 30.0722 31.485C29.7949 31.485 29.5707 31.7092 29.5707 31.9865V33.0552L28.6244 33.997H5.64174L4.69593 33.0552V19.6168C4.69593 19.3395 4.47127 19.1153 4.19445 19.1153H1.00298V17.83L7.29414 12.8412C7.4135 12.7459 7.4837 12.601 7.4837 12.448V7.12022L9.6742 7.10066V9.91501C9.6742 10.1071 9.78453 10.2826 9.95754 10.3664C10.1311 10.4501 10.3372 10.427 10.4876 10.3077L16.7878 5.31035H17.4784L24.6657 11.0103C24.8818 11.1823 25.1978 11.1457 25.3698 10.929C25.5423 10.7119 25.5057 10.3964 25.2885 10.2244L17.9653 4.41569C17.8765 4.34549 17.7667 4.30737 17.6534 4.30737H16.6128C16.4995 4.30737 16.3896 4.34549 16.3009 4.41569L10.6767 8.87693V6.59466C10.6767 6.46126 10.6235 6.33288 10.5282 6.2386C10.433 6.14432 10.3036 6.08916 10.1707 6.09317L6.9772 6.12125C6.70189 6.12376 6.48023 6.34743 6.48023 6.62274V12.2048ZM6.97902 6.32125C6.81343 6.32276 6.68023 6.45719 6.68023 6.62274V12.3014L0.313939 17.3512M6.97902 6.32125L10.1724 6.29316L10.1767 6.29308C10.2504 6.29086 10.3279 6.32173 10.3876 6.38077C10.4447 6.43728 10.4767 6.51439 10.4767 6.59466V9.29086L16.4249 4.57256C16.4783 4.53036 16.5444 4.50737 16.6128 4.50737H17.6534C17.7217 4.50737 17.7877 4.5303 17.841 4.5724C17.841 4.57235 17.8411 4.57245 17.841 4.5724L25.1642 10.3811C25.2948 10.4845 25.3168 10.6741 25.2132 10.8046C25.1096 10.935 24.9195 10.9566 24.7902 10.8538L17.548 5.11035H16.7181L10.3633 10.151C10.273 10.2227 10.1489 10.2366 10.0445 10.1862C9.94027 10.1358 9.8742 10.0302 9.8742 9.91501V6.89887L7.2837 6.922V12.448C7.2837 12.5397 7.24152 12.6272 7.16952 12.6848C7.16957 12.6847 7.16947 12.6848 7.16952 12.6848L0.802976 17.7333V19.3153H4.19445C4.36094 19.3153 4.49593 19.4501 4.49593 19.6168V33.1383L5.55915 34.197H28.707L29.7707 33.1383V31.9865C29.7707 31.8196 29.9054 31.685 30.0722 31.685C30.2391 31.685 30.3737 31.8196 30.3737 31.9865V33.2638C30.3737 33.3439 30.3418 33.4208 30.2847 33.4775L29.0441 34.7122C28.9874 34.7686 28.9113 34.7999 28.831 34.7999H5.43462C5.3544 34.7999 5.27829 34.7686 5.22162 34.7122L3.98182 33.4779C3.98185 33.478 3.98179 33.4779 3.98182 33.4779C3.92498 33.421 3.89296 33.3439 3.89296 33.2638V19.9183H0.501488C0.334993 19.9183 0.2 19.7835 0.2 19.6168V17.5873C0.2 17.4951 0.24226 17.4082 0.313939 17.3512" fill="white"/>
<path d="M30.0679 32.488C29.7906 32.488 29.5664 32.2639 29.5664 31.9865V23.3574C29.5664 23.0801 29.7906 22.856 30.0679 22.856C30.3452 22.856 30.5694 23.0801 30.5694 23.3574V31.9865C30.5694 32.2639 30.3452 32.488 30.0679 32.488Z" fill="white"/>
<path fill-rule="evenodd" clip-rule="evenodd" d="M29.7664 31.9865C29.7664 32.1534 29.901 32.288 30.0679 32.288C30.2348 32.288 30.3694 32.1534 30.3694 31.9865V23.3574C30.3694 23.1906 30.2348 23.056 30.0679 23.056C29.901 23.056 29.7664 23.1906 29.7664 23.3574V31.9865ZM29.5664 31.9865C29.5664 32.2639 29.7906 32.488 30.0679 32.488C30.3452 32.488 30.5694 32.2639 30.5694 31.9865V23.3574C30.5694 23.0801 30.3452 22.856 30.0679 22.856C29.7906 22.856 29.5664 23.0801 29.5664 23.3574V31.9865Z" fill="white"/>
<path d="M35.7041 22.0738H27.5204C27.243 22.0738 27.0189 21.8496 27.0189 21.5723V17.4837C25.2682 16.0815 24.2697 14.0078 24.2697 11.7547C24.2697 7.70564 27.5635 4.41187 31.6125 4.41187C35.6615 4.41187 38.9558 7.70564 38.9558 11.7547C38.9558 14.0078 37.9573 16.0815 36.2066 17.4837V21.5723C36.2056 21.8496 35.9815 22.0738 35.7041 22.0738ZM35.2027 21.0708V17.2374C35.2027 17.0795 35.2769 16.9305 35.4038 16.8357C37.0231 15.6251 37.9518 13.7731 37.9518 11.7541C37.9518 8.25828 35.1074 5.41434 31.6115 5.41434C28.1156 5.41434 25.2717 8.25828 25.2717 11.7541C25.2717 13.7731 26.2004 15.6251 27.8197 16.8357C27.9466 16.93 28.0208 17.0789 28.0208 17.2374V21.0708H35.2027Z" fill="white"/>
<path fill-rule="evenodd" clip-rule="evenodd" d="M27.2189 17.3876V21.5723C27.2189 21.7391 27.3535 21.8738 27.5204 21.8738H35.7041C35.8708 21.8738 36.0059 21.7393 36.0066 21.5718C36.0066 21.5717 36.0066 21.5719 36.0066 21.5718V17.3876L36.0816 17.3275C37.7849 15.9633 38.7558 13.9471 38.7558 11.7547C38.7558 7.81611 35.5511 4.61187 31.6125 4.61187C27.6739 4.61187 24.4697 7.8161 24.4697 11.7547C24.4697 13.9471 25.4406 15.9633 27.1439 17.3275L27.2189 17.3876ZM36.2066 21.5723C36.2056 21.8496 35.9815 22.0738 35.7041 22.0738H27.5204C27.243 22.0738 27.0189 21.8496 27.0189 21.5723V17.4837C25.2682 16.0815 24.2697 14.0078 24.2697 11.7547C24.2697 7.70564 27.5635 4.41187 31.6125 4.41187C35.6615 4.41187 38.9558 7.70564 38.9558 11.7547C38.9558 14.0078 37.9573 16.0815 36.2066 17.4837V21.5723ZM35.4027 21.2708H27.8208V17.2374C27.8208 17.1415 27.776 17.0524 27.7005 16.9963C26.0307 15.748 25.0717 13.8363 25.0717 11.7541C25.0717 8.14782 28.0052 5.21434 31.6115 5.21434C35.2178 5.21434 38.1518 8.1478 38.1518 11.7541C38.1518 13.8363 37.1932 15.7476 35.5235 16.9959C35.4474 17.0528 35.4027 17.1423 35.4027 17.2374V21.2708ZM35.2027 17.2374C35.2027 17.0795 35.2769 16.9305 35.4038 16.8357C37.0231 15.6251 37.9518 13.7731 37.9518 11.7541C37.9518 8.25828 35.1074 5.41434 31.6115 5.41434C28.1156 5.41434 25.2717 8.25828 25.2717 11.7541C25.2717 13.7731 26.2004 15.6251 27.8197 16.8357C27.9466 16.93 28.0208 17.0789 28.0208 17.2374V21.0708H35.2027V17.2374Z" fill="white"/>
<path d="M33.15 23.8588H30.0679C29.7906 23.8588 29.5664 23.6348 29.5664 23.3574V21.5716C29.5664 21.2942 29.7906 21.0701 30.0679 21.0701H33.15C33.4274 21.0701 33.6515 21.2942 33.6515 21.5716V23.3574C33.6515 23.6347 33.4274 23.8588 33.15 23.8588ZM30.5694 22.8559H32.6486V22.073H30.5694V22.8559Z" fill="white"/>
<path fill-rule="evenodd" clip-rule="evenodd" d="M30.3694 23.0559V21.873H32.8486V23.0559H30.3694ZM30.0679 23.6588H33.15C33.3169 23.6588 33.4515 23.5242 33.4515 23.3574V21.5716C33.4515 21.4047 33.3169 21.2701 33.15 21.2701H30.0679C29.901 21.2701 29.7664 21.4047 29.7664 21.5716V23.3574C29.7664 23.5243 29.901 23.6588 30.0679 23.6588ZM32.6486 22.8559H30.5694V22.073H32.6486V22.8559ZM30.0679 23.8588H33.15C33.4274 23.8588 33.6515 23.6347 33.6515 23.3574V21.5716C33.6515 21.2942 33.4274 21.0701 33.15 21.0701H30.0679C29.7906 21.0701 29.5664 21.2942 29.5664 21.5716V23.3574C29.5664 23.6348 29.7906 23.8588 30.0679 23.8588Z" fill="white"/>
<path d="M35.705 20.637H27.5212C27.2439 20.637 27.0197 20.4128 27.0197 20.1355C27.0197 19.8582 27.2439 19.634 27.5212 19.634H35.705C35.9823 19.634 36.2065 19.8582 36.2065 20.1355C36.2065 20.4128 35.9823 20.637 35.705 20.637Z" fill="white"/>
<path fill-rule="evenodd" clip-rule="evenodd" d="M27.5212 20.437H35.705C35.8719 20.437 36.0065 20.3024 36.0065 20.1355C36.0065 19.9687 35.8719 19.834 35.705 19.834H27.5212C27.3543 19.834 27.2197 19.9687 27.2197 20.1355C27.2197 20.3024 27.3543 20.437 27.5212 20.437ZM27.5212 20.637H35.705C35.9823 20.637 36.2065 20.4128 36.2065 20.1355C36.2065 19.8582 35.9823 19.634 35.705 19.634H27.5212C27.2439 19.634 27.0197 19.8582 27.0197 20.1355C27.0197 20.4128 27.2439 20.637 27.5212 20.637Z" fill="white"/>
<path d="M35.705 19.1995H27.5212C27.2439 19.1995 27.0197 18.9753 27.0197 18.698C27.0197 18.4207 27.2439 18.1965 27.5212 18.1965H35.705C35.9823 18.1965 36.2065 18.4207 36.2065 18.698C36.2065 18.9753 35.9823 19.1995 35.705 19.1995Z" fill="white"/>
<path fill-rule="evenodd" clip-rule="evenodd" d="M27.5212 18.9995H35.705C35.8719 18.9995 36.0065 18.8649 36.0065 18.698C36.0065 18.5312 35.8719 18.3965 35.705 18.3965H27.5212C27.3543 18.3965 27.2197 18.5312 27.2197 18.698C27.2197 18.8649 27.3543 18.9995 27.5212 18.9995ZM27.5212 19.1995H35.705C35.9823 19.1995 36.2065 18.9753 36.2065 18.698C36.2065 18.4207 35.9823 18.1965 35.705 18.1965H27.5212C27.2439 18.1965 27.0197 18.4207 27.0197 18.698C27.0197 18.9753 27.2439 19.1995 27.5212 19.1995Z" fill="white"/>
<path d="M35.705 17.763H27.5212C27.2439 17.763 27.0197 17.5388 27.0197 17.2615C27.0197 16.9842 27.2439 16.76 27.5212 16.76H35.705C35.9823 16.76 36.2065 16.9842 36.2065 17.2615C36.2065 17.5388 35.9823 17.763 35.705 17.763Z" fill="white"/>
<path fill-rule="evenodd" clip-rule="evenodd" d="M27.5212 17.563H35.705C35.8719 17.563 36.0065 17.4284 36.0065 17.2615C36.0065 17.0946 35.8719 16.96 35.705 16.96H27.5212C27.3543 16.96 27.2197 17.0946 27.2197 17.2615C27.2197 17.4284 27.3543 17.563 27.5212 17.563ZM27.5212 17.763H35.705C35.9823 17.763 36.2065 17.5388 36.2065 17.2615C36.2065 16.9842 35.9823 16.76 35.705 16.76H27.5212C27.2439 16.76 27.0197 16.9842 27.0197 17.2615C27.0197 17.5388 27.2439 17.763 27.5212 17.763Z" fill="white"/>
<path d="M31.6096 0C31.219 0 30.9025 0.316439 30.9025 0.707098V3.03701C30.9025 3.42767 31.219 3.74411 31.6096 3.74411C32.0003 3.74411 32.3167 3.42767 32.3167 3.03701V0.707098C32.3167 0.316439 32.0003 0 31.6096 0Z" fill="white"/>
<path fill-rule="evenodd" clip-rule="evenodd" d="M31.6096 0.2C31.3294 0.2 31.1025 0.426895 31.1025 0.707098V3.03701C31.1025 3.31721 31.3294 3.54411 31.6096 3.54411C31.8898 3.54411 32.1167 3.31721 32.1167 3.03701V0.707098C32.1167 0.426896 31.8898 0.2 31.6096 0.2ZM30.9025 0.707098C30.9025 0.316439 31.219 0 31.6096 0C32.0003 0 32.3167 0.316439 32.3167 0.707098V3.03701C32.3167 3.42767 32.0003 3.74411 31.6096 3.74411C31.219 3.74411 30.9025 3.42767 30.9025 3.03701V0.707098Z" fill="white"/>
<path d="M22.7582 3.16097C22.4819 3.43729 22.4819 3.88461 22.7582 4.16093L24.4056 5.80832C24.6819 6.08464 25.1292 6.08464 25.4056 5.80832C25.6819 5.532 25.6819 5.08467 25.4056 4.80835L23.7582 3.16097C23.4819 2.88515 23.034 2.88515 22.7582 3.16097Z" fill="white"/>
<path fill-rule="evenodd" clip-rule="evenodd" d="M22.8996 3.30239C22.7014 3.5006 22.7014 3.8213 22.8996 4.01951L24.547 5.6669C24.7452 5.86511 25.0659 5.86511 25.2641 5.6669C25.4624 5.46868 25.4624 5.14799 25.2641 4.94977L23.6169 3.30252C23.6169 3.3025 23.6169 3.30254 23.6169 3.30252C23.4186 3.10462 23.0972 3.10476 22.8996 3.30239ZM23.7582 3.16097L25.4056 4.80835C25.6819 5.08467 25.6819 5.532 25.4056 5.80832C25.1292 6.08464 24.6819 6.08464 24.4056 5.80832L22.7582 4.16093C22.4819 3.88461 22.4819 3.43729 22.7582 3.16097C23.034 2.88515 23.4819 2.88515 23.7582 3.16097Z" fill="white"/>
<path d="M40.4681 3.1611C40.1917 2.88478 39.7444 2.88478 39.4681 3.1611L37.8207 4.80849C37.5444 5.0848 37.5444 5.53213 37.8207 5.80845C38.097 6.08477 38.5443 6.08477 38.8207 5.80845L40.4681 4.16106C40.7444 3.88474 40.7444 3.43742 40.4681 3.1611Z" fill="white"/>
<path fill-rule="evenodd" clip-rule="evenodd" d="M40.3266 3.30252C40.1284 3.1043 39.8077 3.1043 39.6095 3.30252L37.9621 4.94991C37.7639 5.14812 37.7639 5.46882 37.9621 5.66703C38.1603 5.86524 38.481 5.86524 38.6792 5.66703L40.3266 4.01964C40.5249 3.82143 40.5249 3.50073 40.3266 3.30252ZM39.4681 3.1611C39.7444 2.88478 40.1917 2.88478 40.4681 3.1611C40.7444 3.43742 40.7444 3.88474 40.4681 4.16106L38.8207 5.80845C38.5443 6.08477 38.097 6.08477 37.8207 5.80845C37.5444 5.53213 37.5444 5.0848 37.8207 4.80849L39.4681 3.1611Z" fill="white"/>
<path d="M43.6935 11.4034C43.6935 11.0127 43.3771 10.6963 42.9864 10.6963H40.6565C40.2658 10.6963 39.9494 11.0127 39.9494 11.4034C39.9494 11.794 40.2658 12.1105 40.6565 12.1105H42.9864C43.3766 12.11 43.6935 11.7935 43.6935 11.4034Z" fill="white"/>
<path fill-rule="evenodd" clip-rule="evenodd" d="M43.4935 11.4034C43.4935 11.1232 43.2666 10.8963 42.9864 10.8963H40.6565C40.3763 10.8963 40.1494 11.1232 40.1494 11.4034C40.1494 11.6836 40.3763 11.9105 40.6565 11.9105H42.9862C42.9862 11.9105 42.9861 11.9105 42.9862 11.9105C43.2663 11.9101 43.4935 11.6828 43.4935 11.4034ZM42.9864 10.6963C43.3771 10.6963 43.6935 11.0127 43.6935 11.4034C43.6935 11.7935 43.3766 12.11 42.9864 12.1105H40.6565C40.2658 12.1105 39.9494 11.794 39.9494 11.4034C39.9494 11.0127 40.2658 10.6963 40.6565 10.6963H42.9864Z" fill="white"/>
<path d="M23.4279 11.4034C23.4279 11.0127 23.1114 10.6963 22.7208 10.6963H20.3909C20.0002 10.6963 19.6838 11.0127 19.6838 11.4034C19.6838 11.794 20.0002 12.1105 20.3909 12.1105H22.7208C23.1114 12.11 23.4279 11.7935 23.4279 11.4034Z" fill="white"/>
<path fill-rule="evenodd" clip-rule="evenodd" d="M23.2279 11.4034C23.2279 11.1232 23.001 10.8963 22.7208 10.8963H20.3909C20.1107 10.8963 19.8838 11.1232 19.8838 11.4034C19.8838 11.6836 20.1107 11.9105 20.3909 11.9105H22.7205C22.7206 11.9105 22.7205 11.9105 22.7205 11.9105C23.001 11.9101 23.2279 11.6829 23.2279 11.4034ZM22.7208 12.1105H20.3909C20.0002 12.1105 19.6838 11.794 19.6838 11.4034C19.6838 11.0127 20.0002 10.6963 20.3909 10.6963H22.7208C23.1114 10.6963 23.4279 11.0127 23.4279 11.4034C23.4279 11.7935 23.1114 12.11 22.7208 12.1105Z" fill="white"/>
<path d="M16.064 34.9998H9.17355C8.89672 34.9998 8.67206 34.7756 8.67206 34.4983V22.4646C8.67206 22.1873 8.89672 21.9631 9.17355 21.9631H16.0645C16.3413 21.9631 16.566 22.1873 16.566 22.4646V34.4983C16.5655 34.7756 16.3413 34.9998 16.064 34.9998ZM9.67503 33.9968H15.563V22.9661H9.67503V33.9968Z" fill="white"/>
<path fill-rule="evenodd" clip-rule="evenodd" d="M9.47503 34.1968V22.7661H15.763V34.1968H9.47503ZM9.17355 34.7998H16.064C16.2307 34.7998 16.3656 34.6653 16.366 34.4982C16.366 34.4981 16.366 34.4983 16.366 34.4982V22.4646C16.366 22.2979 16.231 22.1631 16.0645 22.1631H9.17355C9.00705 22.1631 8.87206 22.2979 8.87206 22.4646V34.4983C8.87206 34.6651 9.00705 34.7998 9.17355 34.7998ZM15.563 33.9968H9.67503V22.9661H15.563V33.9968ZM9.17355 34.9998H16.064C16.3413 34.9998 16.5655 34.7756 16.566 34.4983V22.4646C16.566 22.1873 16.3413 21.9631 16.0645 21.9631H9.17355C8.89672 21.9631 8.67206 22.1873 8.67206 22.4646V34.4983C8.67206 34.7756 8.89672 34.9998 9.17355 34.9998Z" fill="white"/>
<path d="M14.4197 30.5208C14.1429 30.5208 13.9182 30.2966 13.9182 30.0193V29.0003C13.9182 28.7229 14.1429 28.4988 14.4197 28.4988C14.6965 28.4988 14.9212 28.7229 14.9212 29.0003V30.0193C14.9212 30.2961 14.697 30.5208 14.4197 30.5208Z" fill="white"/>
<path fill-rule="evenodd" clip-rule="evenodd" d="M14.1182 30.0193C14.1182 30.186 14.2532 30.3208 14.4197 30.3208C14.5864 30.3208 14.7212 30.1858 14.7212 30.0193V29.0003C14.7212 28.8335 14.5862 28.6988 14.4197 28.6988C14.2532 28.6988 14.1182 28.8335 14.1182 29.0003V30.0193ZM13.9182 30.0193C13.9182 30.2966 14.1429 30.5208 14.4197 30.5208C14.697 30.5208 14.9212 30.2961 14.9212 30.0193V29.0003C14.9212 28.7229 14.6965 28.4988 14.4197 28.4988C14.1429 28.4988 13.9182 28.7229 13.9182 29.0003V30.0193Z" fill="white"/>
</svg>
