<svg width="39" height="36" viewBox="0 0 39 36" fill="none" xmlns="http://www.w3.org/2000/svg">
<path d="M32.8693 35.0691H6.12988C5.99949 35.0691 5.87402 35.0174 5.78201 34.9249L4.36445 33.5069C4.27194 33.4144 4.22028 33.2899 4.22028 33.159V17.9845H0.4921C0.220495 17.9845 6.10352e-05 17.7641 6.10352e-05 17.4925V15.1627C6.10352e-05 15.0126 0.0684544 14.8714 0.18556 14.7779L7.40672 9.02449V2.57484C7.40672 2.30471 7.62421 2.08526 7.89433 2.0828L11.5438 2.05033C11.6835 2.03999 11.8011 2.10051 11.8946 2.19302C11.9876 2.28552 12.0403 2.41148 12.0403 2.54237V5.33272L18.5986 0.107265C18.6857 0.0378872 18.7935 0 18.9052 0H20.0944C20.2061 0 20.3139 0.0378872 20.401 0.107265L38.8146 14.7779C38.9317 14.8714 39.0001 15.0131 39.0001 15.1627V17.4925C39.0001 17.7641 38.7801 17.9845 38.508 17.9845H34.7794V33.159C34.7794 33.2899 34.7277 33.4149 34.6352 33.5069L33.2176 34.9249C33.1246 35.0169 33.0001 35.0691 32.8693 35.0691ZM6.33359 34.085H32.6656L33.7948 32.9553V17.4925C33.7948 17.2209 34.0147 17.0004 34.2868 17.0004H38.0155V15.3998L19.9217 0.984078H19.0769L11.8543 6.73847C11.7062 6.85607 11.5044 6.8792 11.3342 6.79703C11.1639 6.71486 11.0557 6.54264 11.0557 6.3537V3.03883L8.39031 3.06245V9.26116C8.39031 9.41123 8.32192 9.55245 8.20481 9.64593L0.984139 15.3998V17.0004H4.71232C4.98392 17.0004 5.20436 17.2209 5.20436 17.4925V32.9553L6.33359 34.085Z" fill="white"/>
<path d="M23.5717 29.803H15.4305C15.1589 29.803 14.9384 29.5831 14.9384 29.311V25.2399C13.1971 23.8469 12.2032 21.7853 12.2032 19.544C12.2032 15.5201 15.4767 12.2461 19.5011 12.2461C23.5255 12.2461 26.799 15.5196 26.799 19.544C26.799 21.7853 25.8051 23.8469 24.0638 25.2399V29.311C24.0638 29.5826 23.8438 29.803 23.5717 29.803ZM15.9225 28.819H23.0797V24.9983C23.0797 24.8433 23.1525 24.6971 23.277 24.6041C24.8894 23.3991 25.8145 21.5545 25.8145 19.5435C25.8145 16.0623 22.9818 13.2297 19.5006 13.2297C16.0194 13.2297 13.1868 16.0619 13.1868 19.5435C13.1868 21.5545 14.1118 23.3991 15.7242 24.6041C15.8482 24.6966 15.9215 24.8428 15.9215 24.9983V28.819H15.9225Z" fill="white"/>
<path d="M21.0311 31.5794H17.9648C17.6932 31.5794 17.4727 31.3595 17.4727 31.0874V29.3111C17.4727 29.039 17.6932 28.8191 17.9648 28.8191H21.0311C21.3032 28.8191 21.5232 29.039 21.5232 29.3111V31.0874C21.5232 31.3595 21.3032 31.5794 21.0311 31.5794ZM18.4568 30.5954H20.5391V29.8032H18.4568V30.5954Z" fill="white"/>
<path d="M23.5709 28.373H15.4296C15.158 28.373 14.9376 28.1531 14.9376 27.881C14.9376 27.6089 15.158 27.3889 15.4296 27.3889H23.5709C23.843 27.3889 24.0629 27.6089 24.0629 27.881C24.0629 28.1531 23.843 28.373 23.5709 28.373Z" fill="white"/>
<path d="M23.5709 26.9438H15.4296C15.158 26.9438 14.9376 26.7239 14.9376 26.4518C14.9376 26.1797 15.158 25.9597 15.4296 25.9597H23.5709C23.843 25.9597 24.0629 26.1797 24.0629 26.4518C24.0629 26.7239 23.843 26.9438 23.5709 26.9438Z" fill="white"/>
<path d="M23.5709 25.5146H15.4296C15.158 25.5146 14.9376 25.2947 14.9376 25.0226C14.9376 24.7505 15.158 24.5305 15.4296 24.5305H23.5709C23.843 24.5305 24.0629 24.7505 24.0629 25.0226C24.0629 25.2947 23.843 25.5146 23.5709 25.5146Z" fill="white"/>
<path d="M19.4962 7.85132C19.1079 7.85132 18.793 8.16622 18.793 8.55444V10.8724C18.793 11.2607 19.1079 11.5756 19.4962 11.5756C19.8844 11.5756 20.1993 11.2607 20.1993 10.8724V8.55444C20.1993 8.16622 19.8844 7.85132 19.4962 7.85132Z" fill="white"/>
<path d="M10.6864 10.9955C10.4119 11.27 10.4119 11.7153 10.6864 11.9899L12.3254 13.6289C12.6 13.9034 13.0453 13.9034 13.3198 13.6289C13.5944 13.3543 13.5944 12.909 13.3198 12.6345L11.6809 10.9955C11.4063 10.7209 10.961 10.7209 10.6864 10.9955Z" fill="white"/>
<path d="M28.3081 10.9955C28.0336 10.7209 27.5883 10.7209 27.3137 10.9955L25.6747 12.6345C25.4002 12.909 25.4002 13.3543 25.6747 13.6289C25.9493 13.9034 26.3946 13.9034 26.6691 13.6289L28.3081 11.9899C28.5832 11.7158 28.5832 11.2705 28.3081 10.9955Z" fill="white"/>
<path d="M31.5134 19.1946C31.5134 18.8064 31.1985 18.4915 30.8102 18.4915H28.4922C28.104 18.4915 27.7891 18.8064 27.7891 19.1946C27.7891 19.5828 28.104 19.8977 28.4922 19.8977H30.8102C31.1985 19.8977 31.5134 19.5833 31.5134 19.1946Z" fill="white"/>
<path d="M11.3571 19.1946C11.3571 18.8064 11.0422 18.4915 10.654 18.4915H8.336C7.94778 18.4915 7.63287 18.8064 7.63287 19.1946C7.63287 19.5828 7.94778 19.8977 8.336 19.8977H10.654C11.0422 19.8977 11.3571 19.5833 11.3571 19.1946Z" fill="white"/>
</svg>
