<svg width="21" height="36" viewBox="0 0 21 36" fill="none" xmlns="http://www.w3.org/2000/svg">
<path d="M0.605225 3.65166C0.605225 3.94975 0.719772 4.21344 0.948867 4.44274L14.454 17.96L0.948867 31.4772C0.719772 31.7065 0.605225 31.9702 0.605225 32.2683C0.605225 32.5663 0.719772 32.83 0.948867 33.0593L2.66708 34.7791C2.89618 35.0084 3.15963 35.123 3.45746 35.123C3.75528 35.123 4.01874 35.0084 4.24784 34.7791L20.2616 18.751C20.4907 18.5217 20.6052 18.258 20.6052 17.96C20.6052 17.6619 20.4907 17.3982 20.2616 17.1689L4.24784 1.14082C4.01874 0.911525 3.75528 0.796875 3.45746 0.796875C3.15963 0.796875 2.89618 0.911525 2.66708 1.14082L0.948867 2.86057C0.719772 3.08987 0.605225 3.35357 0.605225 3.65166Z" fill="black"/>
</svg>
