<svg width="76" height="76" viewBox="0 0 76 76" fill="none" xmlns="http://www.w3.org/2000/svg">
<path d="M50.6667 26.1103V49.0832C50.6667 60.4513 41.4514 69.6666 30.0833 69.6666C18.7155 69.6666 9.5 60.4513 9.5 49.0832C9.5 37.7152 18.7155 28.4999 30.0833 28.4999C31.7183 28.4999 33.3086 28.6905 34.8333 29.0507V39.0664C33.3938 38.3825 31.7832 37.9999 30.0833 37.9999C23.9622 37.9999 19 42.9621 19 49.0832C19 55.2044 23.9622 60.1666 30.0833 60.1666C36.2045 60.1666 41.1667 55.2044 41.1667 49.0832V6.33325H50.6667C50.6667 15.0777 57.7556 22.1666 66.5 22.1666V31.6666C60.509 31.6666 55.0037 29.587 50.6667 26.1103Z" fill="white"/>
</svg>
