<svg width="37" height="32" viewBox="0 0 37 32" fill="none" xmlns="http://www.w3.org/2000/svg">
<path d="M4.13571 27.8771L4.10653 27.8033L4.02759 27.7954C2.46473 27.6382 1.5771 27.2583 1.03366 26.6556L0.936902 26.7428L1.03366 26.6556C0.672384 26.2549 0.43271 25.734 0.298719 25.0263L0.298716 25.0262C0.138295 24.1795 0.130294 23.0273 0.130294 21.4427V17.3384L0.130292 17.338C0.130075 17.3024 0.115632 14.9379 2.2541 13.0566C3.58605 11.885 5.80831 10.8561 9.56181 10.8561C13.3153 10.8561 15.5376 11.885 16.8695 13.0566C19.008 14.9379 18.9935 17.3024 18.9933 17.338L18.9933 17.3384V21.4427C18.9933 23.0269 18.9853 24.1791 18.8249 25.0258L18.9529 25.0501L18.8249 25.0258C18.6909 25.7335 18.4512 26.2545 18.09 26.6553C17.5466 27.2582 16.6589 27.6382 15.096 27.7954L15.0171 27.8033L14.9879 27.8771C14.6216 28.8035 14.1138 29.5369 13.48 30.0864L13.5653 30.1848L13.48 30.0864C12.5054 30.9312 11.2084 31.3821 9.56181 31.3821C7.91525 31.3821 6.61825 30.9312 5.64366 30.0864L5.55832 30.1848L5.64366 30.0864C5.0098 29.5369 4.502 28.8035 4.13571 27.8771ZM15.4618 26.1697L15.4295 26.3491L15.6097 26.3215C16.2565 26.2227 16.7336 26.0656 17.0484 25.7163C17.3413 25.3912 17.4397 24.9363 17.5053 24.3766C17.5911 23.6452 17.5911 22.7191 17.591 21.557L17.591 21.4427V17.3384C17.591 17.3064 17.5628 15.5343 15.9433 14.1096C14.7586 13.0675 12.7889 12.2585 9.56181 12.2585C6.33474 12.2585 4.36499 13.0675 3.18035 14.1096L3.2664 14.2074L3.18035 14.1096C1.56079 15.5343 1.53265 17.3064 1.53265 17.3384V21.4427L1.53265 21.557C1.53256 22.7194 1.53248 23.6456 1.61826 24.377C1.68383 24.9366 1.78218 25.3916 2.0752 25.7165C2.39006 26.0657 2.86701 26.2228 3.51389 26.3215L3.69409 26.349L3.66177 26.1696C3.52616 25.4169 3.45614 24.5789 3.45614 23.6541V19.4562C3.45614 19.0692 3.77038 18.755 4.15731 18.755C4.54424 18.755 4.85849 19.0692 4.85849 19.4562V23.6541C4.85849 26.1639 5.36367 27.9878 6.5622 29.0268L6.64754 28.9283L6.56221 29.0268C7.31973 29.6833 8.3303 29.9797 9.56181 29.9797C10.7933 29.9797 11.8039 29.6833 12.5614 29.0268L12.4761 28.9283L12.5614 29.0268C13.7599 27.9878 14.2651 26.1639 14.2651 23.6541V19.4562C14.2651 19.0692 14.5794 18.755 14.9663 18.755C15.3532 18.755 15.6675 19.0692 15.6675 19.4562V23.6541C15.6675 24.5789 15.5975 25.4168 15.4618 26.1697ZM18.0378 7.82113L17.9956 7.85985V7.91717V10.8396C17.9956 11.2265 17.6813 11.5408 17.2944 11.5408C16.9075 11.5408 16.5932 11.2265 16.5932 10.8396V7.64944C16.5932 7.63686 16.5935 7.62468 16.5941 7.61292L16.5948 7.61295L16.5941 7.59994C16.5853 7.41339 16.6502 7.22429 16.7896 7.0796C17.9749 5.8502 21.5753 3.36142 26.5579 3.29131L26.5579 3.29145L26.5638 3.2911C26.5779 3.29025 26.5922 3.28983 26.6067 3.28983L26.6894 3.29009L26.691 3.29008L26.773 3.28983C26.7873 3.28983 26.8015 3.29025 26.8155 3.29109L26.8154 3.29123L26.8215 3.29132C31.8456 3.36069 35.4763 5.84871 36.6712 7.07743L36.7646 6.9866L36.6712 7.07744C36.7364 7.14445 36.7854 7.22103 36.8183 7.30235L36.8183 7.30244C36.8514 7.38383 36.8697 7.47279 36.8697 7.56629V17.4919C36.8697 19.9246 35.2985 22.4792 33.3213 24.6513C30.6133 27.6262 27.251 29.85 27.0022 30.0129L27.0022 30.0129L27.0005 30.0141C26.9799 30.028 26.9586 30.0408 26.9367 30.0524L26.9363 30.0526C26.8308 30.109 26.7162 30.1356 26.6027 30.1348L26.6024 30.1348C26.4889 30.1342 26.3746 30.1062 26.2697 30.0486L26.2696 30.0486C26.2478 30.0366 26.2265 30.0235 26.2061 30.0093L26.2044 30.0081C25.9657 29.8478 22.8311 27.7197 20.227 24.8459C19.9671 24.5591 19.9889 24.1153 20.2757 23.8554C20.5624 23.5956 21.0063 23.6174 21.2661 23.9042L21.3626 23.8167L21.2661 23.9042C23.2602 26.1046 25.5755 27.8455 26.5374 28.5315L26.6121 28.5848L26.6874 28.5325C27.6981 27.8308 30.193 26.0048 32.2843 23.7073C33.9751 21.8498 35.4674 19.662 35.4674 17.4919V7.91933V7.86167L35.4247 7.8229C34.1337 6.64998 30.9545 4.71769 26.6911 4.69243L26.6895 4.69244C22.4657 4.71769 19.3165 6.64912 18.0378 7.82113ZM25.4007 17.2126L25.4925 17.3038L25.5843 17.2126L30.0205 12.8059C30.295 12.5332 30.7394 12.5347 31.0121 12.8093C31.2847 13.0837 31.2833 13.5281 31.0087 13.8009L25.9866 18.7896C25.7132 19.0612 25.2718 19.0612 24.9983 18.7896L22.5373 16.3449C22.2628 16.0722 22.2613 15.6277 22.534 15.3532C22.8067 15.0787 23.2511 15.0772 23.5257 15.3499L25.4007 17.2126ZM9.56181 9.93039C6.88182 9.93039 4.70333 7.73973 4.70333 5.03033C4.70333 2.32094 6.88182 0.130282 9.56181 0.130282C12.2418 0.130282 14.4203 2.32094 14.4203 5.03033C14.4203 7.73973 12.2418 9.93039 9.56181 9.93039ZM9.56181 8.52803C11.4745 8.52803 13.0179 6.95812 13.0179 5.03033C13.0179 3.10255 11.4745 1.53264 9.56181 1.53264C7.64911 1.53264 6.10568 3.10255 6.10568 5.03033C6.10568 6.95812 7.64911 8.52803 9.56181 8.52803Z" fill="white" stroke="white" stroke-width="0.260563"/>
</svg>
