<svg width="1219" height="742" viewBox="0 0 1219 742" fill="none" xmlns="http://www.w3.org/2000/svg">
<path d="M274.397 0H1218.35V741.723H0.65625L274.397 0Z" fill="#E6F1FA"/>
<path d="M358.625 109.451H377L353.375 143.724V119.996H335L358.625 85.7235V109.451Z" fill="white"/>
<g opacity="0.05">
<g clip-path="url(#clip0_0_1)">
<path d="M565.801 510.002H716.471L732.823 493.65H799.398L816.529 510.781H882.909L903.609 531.48V688.607" stroke="#3793E0" stroke-width="2.30058" stroke-miterlimit="10"/>
<path d="M539.129 524.602H870.967L888.033 541.635V662.749" stroke="#3793E0" stroke-width="1.15029" stroke-miterlimit="10"/>
<path d="M860.036 539.494H764.034L739.473 564.054H639.675L608.27 595.46" stroke="#3793E0" stroke-width="2.30058" stroke-miterlimit="10"/>
<path d="M823.274 293.859H713.581L692.979 273.257H631.27L607.262 249.281V141.891" stroke="#3793E0" stroke-width="2.30058" stroke-miterlimit="10"/>
<path d="M573.748 232.346H533.031L510.547 254.829H326.816" stroke="#3793E0" stroke-width="2.30058" stroke-miterlimit="10"/>
<path d="M494.228 232.345H303.392L277.956 206.909H219.621" stroke="#3793E0" stroke-width="1.15029" stroke-miterlimit="10"/>
<path d="M909.672 510.002L931.669 488.005H1059.08L1081.4 510.326H1182.1" stroke="#3793E0" stroke-width="1.15029" stroke-miterlimit="10"/>
<path d="M924.66 524.602L942.472 506.79H1045.87L1068.71 529.631" stroke="#3793E0" stroke-width="2.30058" stroke-miterlimit="10"/>
<path d="M639.676 258.074H764.034L783.273 238.834H823.277L867.271 194.84" stroke="#3793E0" stroke-width="1.15029" stroke-miterlimit="10"/>
<path d="M639.676 243.571H749.694L778.601 214.696" stroke="#3793E0" stroke-width="2.30058" stroke-miterlimit="10"/>
<path d="M701.996 539.494H499.221L480.695 558.019" stroke="#3793E0" stroke-width="2.30058" stroke-miterlimit="10"/>
<path d="M1000.84 458.773H1075.76L1100.9 483.95H1139.35" stroke="#3793E0" stroke-width="2.30058" stroke-miterlimit="10"/>
<path d="M584.68 214.696V117.039L559.828 92.1869" stroke="#3793E0" stroke-width="2.30058" stroke-miterlimit="10"/>
<path d="M565.799 167.717V129.952L524.887 89.04V55.3955" stroke="#3793E0" stroke-width="1.15029" stroke-miterlimit="10"/>
<path d="M368.994 296.747H286.716L259.723 269.754" stroke="#3793E0" stroke-width="2.30058" stroke-miterlimit="10"/>
<path d="M1014.11 283.575H1082.7L1115.37 250.903H1182.11" stroke="#3793E0" stroke-width="2.30058" stroke-miterlimit="10"/>
<path d="M1038.96 263.33L1088.54 213.755V161.78" stroke="#3793E0" stroke-width="1.15029" stroke-miterlimit="10"/>
<path d="M1075.75 262.778L1121.6 216.935V189.584L1155.34 155.875" stroke="#3793E0" stroke-width="1.15029" stroke-miterlimit="10"/>
<path d="M860.03 558.019H778.595L731.648 604.933" stroke="#3793E0" stroke-width="1.15029" stroke-miterlimit="10"/>
<path d="M376.942 488.946H314.357L234.74 568.564H172.188" stroke="#3793E0" stroke-width="1.15029" stroke-miterlimit="10"/>
<path d="M458.18 506.79H326.813L291.125 542.446" stroke="#3793E0" stroke-width="2.30058" stroke-miterlimit="10"/>
<path d="M802.383 258.074H888.035L913.374 232.767H1000.84L1036.37 197.209" stroke="#3793E0" stroke-width="2.30058" stroke-miterlimit="10"/>
<path d="M924.66 558.019V712.453" stroke="#3793E0" stroke-width="2.30058" stroke-miterlimit="10"/>
<path d="M952.5 542.446H1023.07L1077.73 597.147H1139.35" stroke="#3793E0" stroke-width="2.30058" stroke-miterlimit="10"/>
<path d="M1045.87 535.536L1069.23 558.863H1155.34L1209.23 612.785" stroke="#3793E0" stroke-width="1.15029" stroke-miterlimit="10"/>
<path d="M552.886 209.31H438.586L377.039 147.796H277.371" stroke="#3793E0" stroke-width="2.30058" stroke-miterlimit="10"/>
<path d="M1038.96 199.512C1041.55 199.512 1043.64 197.42 1043.64 194.84C1043.64 192.26 1041.55 190.168 1038.96 190.168C1036.38 190.168 1034.29 192.26 1034.29 194.84C1034.29 197.42 1036.38 199.512 1038.96 199.512Z" stroke="#3793E0" stroke-width="2.30058" stroke-miterlimit="10"/>
<path d="M272.668 152.468C275.248 152.468 277.34 150.377 277.34 147.796C277.34 145.216 275.248 143.125 272.668 143.125C270.088 143.125 267.996 145.216 267.996 147.796C267.996 150.377 270.088 152.468 272.668 152.468Z" stroke="#3793E0" stroke-width="2.30058" stroke-miterlimit="10"/>
<path d="M322.141 259.501C324.721 259.501 326.813 257.409 326.813 254.829C326.813 252.249 324.721 250.157 322.141 250.157C319.56 250.157 317.469 252.249 317.469 254.829C317.469 257.409 319.56 259.501 322.141 259.501Z" stroke="#3793E0" stroke-width="2.30058" stroke-miterlimit="10"/>
<path d="M373.664 301.419C376.244 301.419 378.336 299.327 378.336 296.747C378.336 294.167 376.244 292.075 373.664 292.075C371.084 292.075 368.992 294.167 368.992 296.747C368.992 299.327 371.084 301.419 373.664 301.419Z" stroke="#3793E0" stroke-width="2.30058" stroke-miterlimit="10"/>
<path d="M1186.78 255.575C1189.36 255.575 1191.45 253.484 1191.45 250.904C1191.45 248.323 1189.36 246.232 1186.78 246.232C1184.2 246.232 1182.11 248.323 1182.11 250.904C1182.11 253.484 1184.2 255.575 1186.78 255.575Z" stroke="#3793E0" stroke-width="2.30058" stroke-miterlimit="10"/>
<path d="M920.41 532.161C922.991 532.161 925.082 530.07 925.082 527.489C925.082 524.909 922.991 522.817 920.41 522.817C917.83 522.817 915.738 524.909 915.738 527.489C915.738 530.07 917.83 532.161 920.41 532.161Z" stroke="#3793E0" stroke-width="2.30058" stroke-miterlimit="10"/>
<path d="M1144.34 601.559C1146.92 601.559 1149.01 599.468 1149.01 596.887C1149.01 594.307 1146.92 592.215 1144.34 592.215C1141.76 592.215 1139.66 594.307 1139.66 596.887C1139.66 599.468 1141.76 601.559 1144.34 601.559Z" stroke="#3793E0" stroke-width="2.30058" stroke-miterlimit="10"/>
<path d="M903.609 697.951C906.19 697.951 908.281 695.859 908.281 693.279C908.281 690.699 906.19 688.607 903.609 688.607C901.029 688.607 898.938 690.699 898.938 693.279C898.938 695.859 901.029 697.951 903.609 697.951Z" stroke="#3793E0" stroke-width="2.30058" stroke-miterlimit="10"/>
<path d="M605.676 601.819C608.256 601.819 610.348 599.727 610.348 597.147C610.348 594.567 608.256 592.475 605.676 592.475C603.096 592.475 601.004 594.567 601.004 597.147C601.004 599.727 603.096 601.819 605.676 601.819Z" stroke="#3793E0" stroke-width="2.30058" stroke-miterlimit="10"/>
<path d="M477.941 565.838C480.522 565.838 482.613 563.747 482.613 561.166C482.613 558.586 480.522 556.495 477.941 556.495C475.361 556.495 473.27 558.586 473.27 561.166C473.27 563.747 475.361 565.838 477.941 565.838Z" stroke="#3793E0" stroke-width="2.30058" stroke-miterlimit="10"/>
<path d="M288.664 550.362C291.244 550.362 293.336 548.271 293.336 545.691C293.336 543.11 291.244 541.019 288.664 541.019C286.084 541.019 283.992 543.11 283.992 545.691C283.992 548.271 286.084 550.362 288.664 550.362Z" stroke="#3793E0" stroke-width="2.30058" stroke-miterlimit="10"/>
<path d="M561.125 514.999C563.705 514.999 565.797 512.907 565.797 510.327C565.797 507.746 563.705 505.655 561.125 505.655C558.545 505.655 556.453 507.746 556.453 510.327C556.453 512.907 558.545 514.999 561.125 514.999Z" stroke="#3793E0" stroke-width="2.30058" stroke-miterlimit="10"/>
<path d="M924.664 557.987C927.244 557.987 929.336 555.895 929.336 553.315C929.336 550.735 927.244 548.643 924.664 548.643C922.084 548.643 919.992 550.735 919.992 553.315C919.992 555.895 922.084 557.987 924.664 557.987Z" stroke="#3793E0" stroke-width="2.30058" stroke-miterlimit="10"/>
<path d="M1144.02 488.621C1146.6 488.621 1148.69 486.53 1148.69 483.949C1148.69 481.369 1146.6 479.277 1144.02 479.277C1141.44 479.277 1139.35 481.369 1139.35 483.949C1139.35 486.53 1141.44 488.621 1144.02 488.621Z" stroke="#3793E0" stroke-width="2.30058" stroke-miterlimit="10"/>
<path d="M555.609 92.5114C558.19 92.5114 560.281 90.4197 560.281 87.8394C560.281 85.2592 558.19 83.1675 555.609 83.1675C553.029 83.1675 550.938 85.2592 550.938 87.8394C550.938 90.4197 553.029 92.5114 555.609 92.5114Z" stroke="#3793E0" stroke-width="2.30058" stroke-miterlimit="10"/>
<path d="M584.68 224.3C587.26 224.3 589.352 222.208 589.352 219.628C589.352 217.047 587.26 214.956 584.68 214.956C582.1 214.956 580.008 217.047 580.008 219.628C580.008 222.208 582.1 224.3 584.68 224.3Z" stroke="#3793E0" stroke-width="2.30058" stroke-miterlimit="10"/>
<path d="M827.949 298.531C830.53 298.531 832.621 296.44 832.621 293.859C832.621 291.279 830.53 289.188 827.949 289.188C825.369 289.188 823.277 291.279 823.277 293.859C823.277 296.44 825.369 298.531 827.949 298.531Z" stroke="#3793E0" stroke-width="2.30058" stroke-miterlimit="10"/>
<path d="M635.941 248.243C638.522 248.243 640.613 246.151 640.613 243.571C640.613 240.991 638.522 238.899 635.941 238.899C633.361 238.899 631.27 240.991 631.27 243.571C631.27 246.151 633.361 248.243 635.941 248.243Z" stroke="#3793E0" stroke-width="2.30058" stroke-miterlimit="10"/>
<path d="M804.603 263.413C807.55 262.192 808.949 258.814 807.729 255.867C806.508 252.921 803.13 251.521 800.183 252.742C797.236 253.963 795.837 257.341 797.058 260.287C798.278 263.234 801.656 264.633 804.603 263.413Z" fill="#3793E0"/>
<path d="M780.787 220.012C783.733 218.791 785.133 215.413 783.912 212.466C782.692 209.519 779.313 208.12 776.367 209.341C773.42 210.561 772.021 213.94 773.241 216.886C774.462 219.833 777.84 221.232 780.787 220.012Z" fill="#3793E0"/>
<path d="M261.758 275.246C264.711 274.041 266.128 270.671 264.923 267.717C263.718 264.764 260.347 263.347 257.394 264.553C254.441 265.758 253.024 269.129 254.229 272.082C255.434 275.035 258.805 276.452 261.758 275.246Z" fill="#3793E0"/>
<path d="M555.08 214.657C558.026 213.437 559.426 210.059 558.205 207.112C556.985 204.165 553.606 202.766 550.66 203.987C547.713 205.207 546.314 208.585 547.534 211.532C548.755 214.479 552.133 215.878 555.08 214.657Z" fill="#3793E0"/>
<path d="M1016.33 288.907C1019.28 287.686 1020.68 284.308 1019.46 281.361C1018.23 278.415 1014.86 277.015 1011.91 278.236C1008.96 279.456 1007.56 282.835 1008.78 285.781C1010 288.728 1013.38 290.127 1016.33 288.907Z" fill="#3793E0"/>
<path d="M1003.05 464.12C1006 462.899 1007.39 459.521 1006.17 456.575C1004.95 453.628 1001.58 452.229 998.628 453.449C995.682 454.67 994.282 458.048 995.503 460.995C996.724 463.941 1000.1 465.341 1003.05 464.12Z" fill="#3793E0"/>
<path d="M954.716 547.789C957.663 546.569 959.062 543.19 957.842 540.244C956.621 537.297 953.243 535.898 950.296 537.118C947.35 538.339 945.95 541.717 947.171 544.664C948.392 547.61 951.77 549.01 954.716 547.789Z" fill="#3793E0"/>
<path d="M927.318 717.8C930.265 716.58 931.664 713.201 930.443 710.255C929.223 707.308 925.845 705.909 922.898 707.129C919.951 708.35 918.552 711.728 919.773 714.675C920.993 717.621 924.371 719.021 927.318 717.8Z" fill="#3793E0"/>
<path d="M862.259 544.823C865.206 543.603 866.605 540.224 865.385 537.278C864.164 534.331 860.786 532.932 857.839 534.152C854.893 535.373 853.493 538.751 854.714 541.698C855.934 544.644 859.313 546.044 862.259 544.823Z" fill="#3793E0"/>
<path d="M704.216 544.825C707.163 543.604 708.562 540.226 707.342 537.279C706.121 534.333 702.743 532.933 699.796 534.154C696.85 535.374 695.45 538.753 696.671 541.699C697.892 544.646 701.27 546.045 704.216 544.825Z" fill="#3793E0"/>
<path d="M460.408 512.14C463.355 510.92 464.754 507.541 463.533 504.595C462.313 501.648 458.934 500.249 455.988 501.469C453.041 502.69 451.642 506.068 452.862 509.015C454.083 511.961 457.461 513.361 460.408 512.14Z" fill="#3793E0"/>
<path d="M1070.77 535.4C1073.71 534.18 1075.11 530.802 1073.89 527.855C1072.67 524.908 1069.29 523.509 1066.35 524.729C1063.4 525.95 1062 529.328 1063.22 532.275C1064.44 535.222 1067.82 536.621 1070.77 535.4Z" fill="#3793E0"/>
<path d="M574.455 237.676C577.401 236.456 578.801 233.077 577.58 230.131C576.36 227.184 572.981 225.785 570.035 227.005C567.088 228.226 565.689 231.604 566.909 234.551C568.13 237.497 571.508 238.897 574.455 237.676Z" fill="#3793E0"/>
<path d="M609.463 147.232C612.409 146.011 613.808 142.633 612.588 139.687C611.367 136.74 607.989 135.341 605.042 136.561C602.096 137.782 600.696 141.16 601.917 144.107C603.138 147.053 606.516 148.453 609.463 147.232Z" fill="#3793E0"/>
<path d="M498.938 237.018C501.518 237.018 503.61 234.926 503.61 232.346C503.61 229.765 501.518 227.674 498.938 227.674C496.357 227.674 494.266 229.765 494.266 232.346C494.266 234.926 496.357 237.018 498.938 237.018Z" stroke="#3793E0" stroke-width="1.15029" stroke-miterlimit="10"/>
<path d="M1035.46 271.927C1038.04 271.927 1040.13 269.836 1040.13 267.255C1040.13 264.675 1038.04 262.583 1035.46 262.583C1032.88 262.583 1030.79 264.675 1030.79 267.255C1030.79 269.836 1032.88 271.927 1035.46 271.927Z" stroke="#3793E0" stroke-width="1.15029" stroke-miterlimit="10"/>
<path d="M1072.9 270.889C1075.48 270.889 1077.57 268.797 1077.57 266.217C1077.57 263.637 1075.48 261.545 1072.9 261.545C1070.32 261.545 1068.23 263.637 1068.23 266.217C1068.23 268.797 1070.32 270.889 1072.9 270.889Z" stroke="#3793E0" stroke-width="1.15029" stroke-miterlimit="10"/>
<path d="M1212.8 620.506C1215.38 620.506 1217.47 618.415 1217.47 615.835C1217.47 613.254 1215.38 611.163 1212.8 611.163C1210.22 611.163 1208.12 613.254 1208.12 615.835C1208.12 618.415 1210.22 620.506 1212.8 620.506Z" stroke="#3793E0" stroke-width="1.15029" stroke-miterlimit="10"/>
<path d="M864.711 562.692C867.291 562.692 869.383 560.6 869.383 558.02C869.383 555.439 867.291 553.348 864.711 553.348C862.131 553.348 860.039 555.439 860.039 558.02C860.039 560.6 862.131 562.692 864.711 562.692Z" stroke="#3793E0" stroke-width="1.15029" stroke-miterlimit="10"/>
<path d="M167.481 573.236C170.061 573.236 172.152 571.144 172.152 568.564C172.152 565.984 170.061 563.892 167.481 563.892C164.9 563.892 162.809 565.984 162.809 568.564C162.809 571.144 164.9 573.236 167.481 573.236Z" stroke="#3793E0" stroke-width="1.15029" stroke-miterlimit="10"/>
<path d="M565.797 177.093C568.377 177.093 570.469 175.002 570.469 172.421C570.469 169.841 568.377 167.75 565.797 167.75C563.217 167.75 561.125 169.841 561.125 172.421C561.125 175.002 563.217 177.093 565.797 177.093Z" stroke="#3793E0" stroke-width="1.15029" stroke-miterlimit="10"/>
<path d="M870.969 195.456C873.549 195.456 875.641 193.365 875.641 190.785C875.641 188.204 873.549 186.113 870.969 186.113C868.389 186.113 866.297 188.204 866.297 190.785C866.297 193.365 868.389 195.456 870.969 195.456Z" stroke="#3793E0" stroke-width="1.15029" stroke-miterlimit="10"/>
<path d="M639.676 262.746C642.256 262.746 644.348 260.654 644.348 258.074C644.348 255.493 642.256 253.402 639.676 253.402C637.096 253.402 635.004 255.493 635.004 258.074C635.004 260.654 637.096 262.746 639.676 262.746Z" fill="#3793E0"/>
<path d="M219.621 211.581C222.201 211.581 224.293 209.49 224.293 206.909C224.293 204.329 222.201 202.237 219.621 202.237C217.041 202.237 214.949 204.329 214.949 206.909C214.949 209.49 217.041 211.581 219.621 211.581Z" fill="#3793E0"/>
<path d="M1155.34 160.547C1157.92 160.547 1160.01 158.455 1160.01 155.875C1160.01 153.295 1157.92 151.203 1155.34 151.203C1152.76 151.203 1150.67 153.295 1150.67 155.875C1150.67 158.455 1152.76 160.547 1155.34 160.547Z" fill="#3793E0"/>
<path d="M1088.54 166.451C1091.12 166.451 1093.21 164.36 1093.21 161.779C1093.21 159.199 1091.12 157.108 1088.54 157.108C1085.96 157.108 1083.87 159.199 1083.87 161.779C1083.87 164.36 1085.96 166.451 1088.54 166.451Z" fill="#3793E0"/>
<path d="M909.672 514.999C912.252 514.999 914.344 512.907 914.344 510.327C914.344 507.746 912.252 505.655 909.672 505.655C907.092 505.655 905 507.746 905 510.327C905 512.907 907.092 514.999 909.672 514.999Z" fill="#3793E0"/>
<path d="M1045.88 540.207C1048.46 540.207 1050.55 538.116 1050.55 535.535C1050.55 532.955 1048.46 530.863 1045.88 530.863C1043.29 530.863 1041.2 532.955 1041.2 535.535C1041.2 538.116 1043.29 540.207 1045.88 540.207Z" fill="#3793E0"/>
<path d="M888.035 667.421C890.616 667.421 892.707 665.329 892.707 662.749C892.707 660.168 890.616 658.077 888.035 658.077C885.455 658.077 883.363 660.168 883.363 662.749C883.363 665.329 885.455 667.421 888.035 667.421Z" fill="#3793E0"/>
<path d="M731.649 609.605C734.229 609.605 736.32 607.514 736.32 604.933C736.32 602.353 734.229 600.261 731.649 600.261C729.068 600.261 726.977 602.353 726.977 604.933C726.977 607.514 729.068 609.605 731.649 609.605Z" fill="#3793E0"/>
<path d="M539.129 529.274C541.709 529.274 543.801 527.182 543.801 524.602C543.801 522.022 541.709 519.93 539.129 519.93C536.549 519.93 534.457 522.022 534.457 524.602C534.457 527.182 536.549 529.274 539.129 529.274Z" fill="#3793E0"/>
<path d="M376.941 493.618C379.522 493.618 381.613 491.526 381.613 488.946C381.613 486.365 379.522 484.274 376.941 484.274C374.361 484.274 372.27 486.365 372.27 488.946C372.27 491.526 374.361 493.618 376.941 493.618Z" fill="#3793E0"/>
<path d="M1182.11 514.999C1184.69 514.999 1186.78 512.907 1186.78 510.327C1186.78 507.746 1184.69 505.655 1182.11 505.655C1179.53 505.655 1177.43 507.746 1177.43 510.327C1177.43 512.907 1179.53 514.999 1182.11 514.999Z" fill="#3793E0"/>
<path d="M524.887 60.0673C527.467 60.0673 529.559 57.9756 529.559 55.3953C529.559 52.8151 527.467 50.7234 524.887 50.7234C522.307 50.7234 520.215 52.8151 520.215 55.3953C520.215 57.9756 522.307 60.0673 524.887 60.0673Z" fill="#3793E0"/>
<path d="M349.426 383.243H541.592L568.066 409.717H1009.47" stroke="#3793E0" stroke-width="2.30058" stroke-miterlimit="10"/>
<path d="M613.168 379.22L658.46 333.928H876.938L914.866 296.001" stroke="#3793E0" stroke-width="2.30058" stroke-miterlimit="10"/>
<path d="M688.764 437.684L658.202 468.247H261.963L227.637 502.572" stroke="#3793E0" stroke-width="2.30058" stroke-miterlimit="10"/>
<path d="M809.324 376.365H1155.24L1192.36 339.281" stroke="#3793E0" stroke-width="2.30058" stroke-miterlimit="10"/>
<path d="M639.675 449.169H194.348" stroke="#3793E0" stroke-width="1.15029" stroke-miterlimit="10"/>
<path d="M1122.12 393.755H739.085L716.828 371.498H658.234" stroke="#3793E0" stroke-width="1.15029" stroke-miterlimit="10"/>
<path d="M725.844 429.281H1083.67L1114.36 459.973" stroke="#3793E0" stroke-width="1.15029" stroke-miterlimit="10"/>
<path d="M528.359 404.624H252.681L233.637 423.636" stroke="#3793E0" stroke-width="1.15029" stroke-miterlimit="10"/>
<path d="M418.34 282.342H524.789L543.834 263.33" stroke="#3793E0" stroke-width="1.15029" stroke-miterlimit="10"/>
<path d="M777.074 464.678H883.556L902.568 445.665" stroke="#3793E0" stroke-width="1.15029" stroke-miterlimit="10"/>
<path d="M521.704 364.004H219.52L186.492 330.976" stroke="#3793E0" stroke-width="1.15029" stroke-miterlimit="10"/>
<path d="M246.031 341.65H552.206L590.62 303.268" stroke="#3793E0" stroke-width="2.30058" stroke-miterlimit="10"/>
<path d="M688.766 351.188H956.462L977.842 329.807H1139.35" stroke="#3793E0" stroke-width="1.15029" stroke-miterlimit="10"/>
<path d="M847.77 481.484H894.165L916.875 458.773H968.364" stroke="#3793E0" stroke-width="1.15029" stroke-miterlimit="10"/>
<path d="M336.188 321.275H382.55L405.261 298.564H456.782" stroke="#3793E0" stroke-width="1.15029" stroke-miterlimit="10"/>
<path d="M914.051 332.955H937.897L967.973 302.847V272.836" stroke="#3793E0" stroke-width="1.15029" stroke-miterlimit="10"/>
<path d="M658.231 291.199H634.384L604.309 321.275V351.318" stroke="#3793E0" stroke-width="1.15029" stroke-miterlimit="10"/>
<path d="M287.137 427.14H505.81" stroke="#3793E0" stroke-width="2.30058" stroke-miterlimit="10"/>
<path d="M470.058 488.946H688.764" stroke="#3793E0" stroke-width="1.15029" stroke-miterlimit="10"/>
<path d="M990.91 309.919H1100.9L1127.24 283.575" stroke="#3793E0" stroke-width="2.30058" stroke-miterlimit="10"/>
<path d="M990.91 354.984H1122.11" stroke="#3793E0" stroke-width="2.30058" stroke-miterlimit="10"/>
<path d="M631.27 332.955L652.034 312.158H847.769" stroke="#3793E0" stroke-width="1.15029" stroke-miterlimit="10"/>
<path d="M188.606 328.361C189.204 325.851 187.654 323.331 185.144 322.733C182.634 322.135 180.114 323.685 179.516 326.195C178.918 328.705 180.468 331.225 182.978 331.823C185.488 332.421 188.008 330.871 188.606 328.361Z" stroke="#3793E0" stroke-width="1.15029" stroke-miterlimit="10"/>
<path d="M646.134 453.479C648.518 452.492 649.65 449.759 648.663 447.375C647.675 444.991 644.942 443.859 642.558 444.847C640.175 445.834 639.043 448.567 640.03 450.951C641.017 453.335 643.75 454.467 646.134 453.479Z" stroke="#3793E0" stroke-width="1.15029" stroke-miterlimit="10"/>
<path d="M721.141 433.953C723.721 433.953 725.813 431.862 725.813 429.281C725.813 426.701 723.721 424.609 721.141 424.609C718.56 424.609 716.469 426.701 716.469 429.281C716.469 431.862 718.56 433.953 721.141 433.953Z" stroke="#3793E0" stroke-width="1.15029" stroke-miterlimit="10"/>
<path d="M904.973 447.158C907.553 447.158 909.645 445.066 909.645 442.486C909.645 439.906 907.553 437.814 904.973 437.814C902.392 437.814 900.301 439.906 900.301 442.486C900.301 445.066 902.392 447.158 904.973 447.158Z" stroke="#3793E0" stroke-width="1.15029" stroke-miterlimit="10"/>
<path d="M843.098 486.156C845.678 486.156 847.77 484.064 847.77 481.484C847.77 478.903 845.678 476.812 843.098 476.812C840.518 476.812 838.426 478.903 838.426 481.484C838.426 484.064 840.518 486.156 843.098 486.156Z" stroke="#3793E0" stroke-width="1.15029" stroke-miterlimit="10"/>
<path d="M693.438 493.618C696.018 493.618 698.11 491.526 698.11 488.946C698.11 486.365 696.018 484.274 693.438 484.274C690.857 484.274 688.766 486.365 688.766 488.946C688.766 491.526 690.857 493.618 693.438 493.618Z" stroke="#3793E0" stroke-width="1.15029" stroke-miterlimit="10"/>
<path d="M331.488 325.947C334.069 325.947 336.16 323.855 336.16 321.275C336.16 318.695 334.069 316.603 331.488 316.603C328.908 316.603 326.816 318.695 326.816 321.275C326.816 323.855 328.908 325.947 331.488 325.947Z" stroke="#3793E0" stroke-width="1.15029" stroke-miterlimit="10"/>
<path d="M461.461 303.236C464.041 303.236 466.133 301.144 466.133 298.564C466.133 295.984 464.041 293.892 461.461 293.892C458.881 293.892 456.789 295.984 456.789 298.564C456.789 301.144 458.881 303.236 461.461 303.236Z" stroke="#3793E0" stroke-width="1.15029" stroke-miterlimit="10"/>
<path d="M666.211 294.505C668.036 292.68 668.036 289.722 666.211 287.897C664.387 286.073 661.429 286.073 659.604 287.897C657.78 289.722 657.78 292.68 659.604 294.505C661.429 296.329 664.387 296.329 666.211 294.505Z" stroke="#3793E0" stroke-width="1.15029" stroke-miterlimit="10"/>
<path d="M908.281 337.627C910.862 337.627 912.953 335.535 912.953 332.955C912.953 330.375 910.862 328.283 908.281 328.283C905.701 328.283 903.609 330.375 903.609 332.955C903.609 335.535 905.701 337.627 908.281 337.627Z" stroke="#3793E0" stroke-width="1.15029" stroke-miterlimit="10"/>
<path d="M1144.02 334.479C1146.6 334.479 1148.69 332.388 1148.69 329.807C1148.69 327.227 1146.6 325.135 1144.02 325.135C1141.44 325.135 1139.35 327.227 1139.35 329.807C1139.35 332.388 1141.44 334.479 1144.02 334.479Z" stroke="#3793E0" stroke-width="1.15029" stroke-miterlimit="10"/>
<path d="M856.861 312.778C857.274 310.231 855.543 307.832 852.996 307.419C850.449 307.007 848.05 308.737 847.638 311.284C847.225 313.831 848.955 316.23 851.502 316.643C854.05 317.055 856.449 315.325 856.861 312.778Z" stroke="#3793E0" stroke-width="1.15029" stroke-miterlimit="10"/>
<path d="M1131.55 394.344C1131.97 391.797 1130.23 389.398 1127.69 388.985C1125.14 388.573 1122.74 390.303 1122.33 392.85C1121.92 395.397 1123.65 397.796 1126.19 398.209C1128.74 398.621 1131.14 396.891 1131.55 394.344Z" stroke="#3793E0" stroke-width="1.15029" stroke-miterlimit="10"/>
<path d="M684.121 355.86C686.701 355.86 688.793 353.769 688.793 351.188C688.793 348.608 686.701 346.516 684.121 346.516C681.541 346.516 679.449 348.608 679.449 351.188C679.449 353.769 681.541 355.86 684.121 355.86Z" stroke="#3793E0" stroke-width="1.15029" stroke-miterlimit="10"/>
<path d="M196.088 453.51C198.468 452.514 199.591 449.777 198.595 447.397C197.599 445.017 194.862 443.894 192.482 444.89C190.102 445.886 188.979 448.623 189.975 451.003C190.971 453.383 193.707 454.506 196.088 453.51Z" fill="#3793E0"/>
<path d="M233.637 428.308C236.217 428.308 238.309 426.216 238.309 423.636C238.309 421.056 236.217 418.964 233.637 418.964C231.057 418.964 228.965 421.056 228.965 423.636C228.965 426.216 231.057 428.308 233.637 428.308Z" fill="#3793E0"/>
<path d="M421.553 283.008C421.965 280.461 420.235 278.062 417.688 277.649C415.141 277.236 412.742 278.967 412.329 281.514C411.916 284.061 413.647 286.46 416.194 286.873C418.741 287.285 421.14 285.555 421.553 283.008Z" fill="#3793E0"/>
<path d="M543.832 267.45C546.412 267.45 548.504 265.358 548.504 262.778C548.504 260.198 546.412 258.106 543.832 258.106C541.252 258.106 539.16 260.198 539.16 262.778C539.16 265.358 541.252 267.45 543.832 267.45Z" fill="#3793E0"/>
<path d="M521.711 368.676C524.291 368.676 526.383 366.584 526.383 364.004C526.383 361.423 524.291 359.332 521.711 359.332C519.131 359.332 517.039 361.423 517.039 364.004C517.039 366.584 519.131 368.676 521.711 368.676Z" fill="#3793E0"/>
<path d="M528.359 407.868C530.94 407.868 533.031 405.776 533.031 403.196C533.031 400.616 530.94 398.524 528.359 398.524C525.779 398.524 523.688 400.616 523.688 403.196C523.688 405.776 525.779 407.868 528.359 407.868Z" fill="#3793E0"/>
<path d="M470.059 493.618C472.639 493.618 474.731 491.526 474.731 488.946C474.731 486.365 472.639 484.274 470.059 484.274C467.479 484.274 465.387 486.365 465.387 488.946C465.387 491.526 467.479 493.618 470.059 493.618Z" fill="#3793E0"/>
<path d="M604.309 355.99C606.889 355.99 608.981 353.898 608.981 351.318C608.981 348.738 606.889 346.646 604.309 346.646C601.728 346.646 599.637 348.738 599.637 351.318C599.637 353.898 601.728 355.99 604.309 355.99Z" fill="#3793E0"/>
<path d="M968.363 277.508C970.944 277.508 973.035 275.416 973.035 272.836C973.035 270.256 970.944 268.164 968.363 268.164C965.783 268.164 963.691 270.256 963.691 272.836C963.691 275.416 965.783 277.508 968.363 277.508Z" fill="#3793E0"/>
<path d="M1116.17 464.367C1118.55 463.379 1119.69 460.646 1118.7 458.262C1117.71 455.878 1114.98 454.746 1112.59 455.734C1110.21 456.721 1109.08 459.454 1110.07 461.838C1111.05 464.222 1113.79 465.354 1116.17 464.367Z" fill="#3793E0"/>
<path d="M660.029 375.823C662.413 374.835 663.545 372.102 662.557 369.718C661.57 367.335 658.837 366.203 656.453 367.19C654.069 368.177 652.937 370.91 653.925 373.294C654.912 375.678 657.645 376.81 660.029 375.823Z" fill="#3793E0"/>
<path d="M777.074 469.382C779.655 469.382 781.746 467.29 781.746 464.71C781.746 462.13 779.655 460.038 777.074 460.038C774.494 460.038 772.402 462.13 772.402 464.71C772.402 467.29 774.494 469.382 777.074 469.382Z" fill="#3793E0"/>
<path d="M968.363 463.445C970.944 463.445 973.035 461.353 973.035 458.773C973.035 456.193 970.944 454.101 968.363 454.101C965.783 454.101 963.691 456.193 963.691 458.773C963.691 461.353 965.783 463.445 968.363 463.445Z" fill="#3793E0"/>
<path d="M631.27 337.627C633.85 337.627 635.942 335.535 635.942 332.955C635.942 330.375 633.85 328.283 631.27 328.283C628.689 328.283 626.598 330.375 626.598 332.955C626.598 335.535 628.689 337.627 631.27 337.627Z" fill="#3793E0"/>
<path d="M282.043 431.812C284.623 431.812 286.715 429.72 286.715 427.14C286.715 424.559 284.623 422.468 282.043 422.468C279.463 422.468 277.371 424.559 277.371 427.14C277.371 429.72 279.463 431.812 282.043 431.812Z" stroke="#3793E0" stroke-width="2.30058" stroke-miterlimit="10"/>
<path d="M611.121 387.299C613.701 387.299 615.793 385.207 615.793 382.627C615.793 380.046 613.701 377.955 611.121 377.955C608.541 377.955 606.449 380.046 606.449 382.627C606.449 385.207 608.541 387.299 611.121 387.299Z" stroke="#3793E0" stroke-width="2.30058" stroke-miterlimit="10"/>
<path d="M1127.24 359.656C1129.82 359.656 1131.91 357.565 1131.91 354.984C1131.91 352.404 1129.82 350.312 1127.24 350.312C1124.66 350.312 1122.57 352.404 1122.57 354.984C1122.57 357.565 1124.66 359.656 1127.24 359.656Z" stroke="#3793E0" stroke-width="2.30058" stroke-miterlimit="10"/>
<path d="M985.137 359.656C987.717 359.656 989.809 357.565 989.809 354.984C989.809 352.404 987.717 350.312 985.137 350.312C982.557 350.312 980.465 352.404 980.465 354.984C980.465 357.565 982.557 359.656 985.137 359.656Z" stroke="#3793E0" stroke-width="2.30058" stroke-miterlimit="10"/>
<path d="M509.121 431.812C511.701 431.812 513.793 429.72 513.793 427.14C513.793 424.559 511.701 422.468 509.121 422.468C506.541 422.468 504.449 424.559 504.449 427.14C504.449 429.72 506.541 431.812 509.121 431.812Z" stroke="#3793E0" stroke-width="2.30058" stroke-miterlimit="10"/>
<path d="M224.293 510.002C226.873 510.002 228.965 507.91 228.965 505.33C228.965 502.75 226.873 500.658 224.293 500.658C221.713 500.658 219.621 502.75 219.621 505.33C219.621 507.91 221.713 510.002 224.293 510.002Z" stroke="#3793E0" stroke-width="2.30058" stroke-miterlimit="10"/>
<path d="M344.756 389.018C347.945 389.018 350.531 386.433 350.531 383.243C350.531 380.054 347.945 377.468 344.756 377.468C341.566 377.468 338.98 380.054 338.98 383.243C338.98 386.433 341.566 389.018 344.756 389.018Z" fill="#3793E0"/>
<path d="M594.728 307.337C596.983 305.081 596.983 301.425 594.728 299.169C592.472 296.914 588.816 296.914 586.56 299.169C584.305 301.425 584.305 305.081 586.56 307.337C588.816 309.592 592.472 309.592 594.728 307.337Z" fill="#3793E0"/>
<path d="M814.829 376.978C815.339 373.829 813.2 370.863 810.051 370.353C806.903 369.844 803.937 371.982 803.427 375.131C802.917 378.279 805.056 381.245 808.205 381.755C811.353 382.265 814.319 380.126 814.829 376.978Z" fill="#3793E0"/>
<path d="M994.997 313.977C997.252 311.722 997.252 308.065 994.997 305.81C992.742 303.555 989.085 303.555 986.83 305.81C984.574 308.065 984.574 311.722 986.83 313.977C989.085 316.232 992.741 316.232 994.997 313.977Z" fill="#3793E0"/>
<path d="M1133.11 285.034C1133.85 281.93 1131.92 278.819 1128.82 278.085C1125.72 277.351 1122.61 279.273 1121.87 282.377C1121.14 285.481 1123.06 288.592 1126.16 289.325C1129.27 290.059 1132.38 288.138 1133.11 285.034Z" fill="#3793E0"/>
<path d="M1193.94 345.201C1196.89 343.981 1198.29 340.602 1197.06 337.656C1195.84 334.709 1192.47 333.31 1189.52 334.53C1186.57 335.751 1185.17 339.129 1186.39 342.076C1187.61 345.022 1190.99 346.422 1193.94 345.201Z" fill="#3793E0"/>
<path d="M1015.33 411.179C1016.06 408.075 1014.14 404.964 1011.04 404.23C1007.94 403.497 1004.82 405.418 1004.09 408.522C1003.36 411.626 1005.28 414.737 1008.38 415.471C1011.49 416.204 1014.6 414.283 1015.33 411.179Z" fill="#3793E0"/>
<path d="M914.052 302.522C917.242 302.522 919.827 299.937 919.827 296.747C919.827 293.558 917.242 290.972 914.052 290.972C910.863 290.972 908.277 293.558 908.277 296.747C908.277 299.937 910.863 302.522 914.052 302.522Z" fill="#3793E0"/>
<path d="M688.767 443.459C691.957 443.459 694.542 440.873 694.542 437.684C694.542 434.494 691.957 431.909 688.767 431.909C685.578 431.909 682.992 434.494 682.992 437.684C682.992 440.873 685.578 443.459 688.767 443.459Z" fill="#3793E0"/>
<path d="M251.565 343.449C252.439 340.381 250.661 337.186 247.593 336.312C244.526 335.439 241.331 337.217 240.457 340.284C239.583 343.352 241.362 346.547 244.429 347.421C247.497 348.294 250.692 346.516 251.565 343.449Z" fill="#3793E0"/>
<rect x="408" y="196" width="67" height="169" fill="#D9D9D9"/>
</g>
</g>
<defs>
<clipPath id="clip0_0_1">
<rect width="1056.28" height="667.505" fill="white" transform="translate(162 50.7234)"/>
</clipPath>
</defs>
</svg>
